<svg width="450" height="124" viewBox="0 0 450 124" fill="none" xmlns="http://www.w3.org/2000/svg">
<path d="M146.975 3.93324H165.747V9.80087H153.715V17.3308H165.524V23.2561H153.715V31.284H165.747V37.1533H146.975V3.93324ZM169.925 12.5153H175.494C175.494 13.5674 175.494 14.6196 175.438 15.7822C176.497 13.8445 178.726 11.6842 183.181 11.7402C191.259 11.7946 192.819 17.9409 192.819 22.316V37.2093H186.914V23.8102C186.914 20.1013 185.688 17.2763 181.511 17.2763C177.333 17.3324 175.885 20.1013 175.885 23.5892V37.2093H169.981V12.5153H169.925ZM208.638 37.1533H202.845L193.653 12.5153H199.782L205.742 29.7899L211.701 12.5153H217.83L208.638 37.1533ZM220.559 3.93324H226.463V9.19233H220.559V3.93324ZM220.559 12.5153H226.463V37.2093H220.559V12.5153ZM231.365 12.5153H236.991V15.7262C238.049 13.5114 240.11 11.7946 243.842 11.7386V17.6639H243.563C239.387 17.6639 237.269 19.6016 237.269 23.8662V37.1533H231.365V12.5153ZM243.787 24.7518C243.787 18.439 248.465 11.7402 257.1 11.7402C265.733 11.7402 270.413 18.439 270.413 24.7518C270.413 31.1191 265.733 37.8194 257.1 37.8194C248.465 37.8739 243.787 31.1735 243.787 24.7518ZM249.692 24.8639C249.692 29.1813 252.978 32.3922 257.044 32.3922C261.11 32.3922 264.398 29.1813 264.398 24.8623C264.398 20.4888 261.166 17.3324 257.044 17.3324C252.922 17.3324 249.692 20.4327 249.692 24.8623V24.8639ZM274.033 12.5153H279.603C279.603 13.5674 279.603 14.6196 279.549 15.7822C280.606 13.8445 282.835 11.6842 287.29 11.7402C295.368 11.7946 296.927 17.9409 296.927 22.316V37.2093H291.023V23.8102C291.023 20.1013 289.798 17.2763 285.62 17.2763C281.442 17.3324 279.994 20.1013 279.994 23.5892V37.2093H274.09V12.5153H274.033ZM301.829 12.5153H307.399V15.6141C307.956 14.5075 310.352 11.7386 314.641 11.7386C316.702 11.7386 318.931 12.3471 320.768 14.2304C321.325 14.839 321.939 15.8351 322.273 16.4996C322.759 15.6471 323.359 14.8648 324.056 14.1744C325.615 12.7347 327.787 11.7386 330.405 11.7386C332.466 11.7386 335.085 12.2927 337.034 14.2304C339.317 16.5557 339.764 18.6039 339.764 23.642V37.1533H333.858V23.8646C333.858 22.3144 333.747 20.5977 332.855 19.2685C332.244 18.0514 331.073 17.2187 328.958 17.2187C326.897 17.2187 325.447 18.1059 324.667 19.4895C323.887 20.8187 323.831 22.1479 323.831 23.642V37.1533H317.927V23.642C317.927 22.2039 317.816 20.8187 317.147 19.5456C316.423 18.2164 315.198 17.2747 313.081 17.2747C310.91 17.2747 309.572 18.3269 308.848 19.5456C308.125 20.8747 307.9 22.3689 307.9 23.8086V37.1533H301.996V12.5153H301.829ZM348.899 26.8C349.177 30.7315 352.686 32.9463 356.084 32.8903C358.981 32.8903 360.93 31.5611 362.045 29.5689H368.172C367.003 32.3378 365.22 34.386 363.159 35.7696C361.098 37.2109 358.646 37.9299 356.084 37.9299C348.453 37.9299 342.994 31.7837 342.994 24.9183C342.994 17.8865 348.509 11.7386 356.028 11.7386C359.761 11.7386 362.991 13.1238 365.275 15.5052C368.284 18.6055 369.453 22.481 368.952 26.8H348.899ZM363.047 22.316C362.825 19.9892 360.318 16.7238 355.974 16.7238C351.573 16.7238 349.177 19.8787 348.955 22.316H363.047ZM372.516 12.5153H378.088C378.088 13.5674 378.088 14.6196 378.032 15.7822C379.09 13.8445 381.318 11.6842 385.775 11.7402C393.851 11.7946 395.41 17.9409 395.41 22.316V37.2093H389.506V23.8102C389.506 20.1013 388.281 17.2763 384.103 17.2763C379.925 17.3324 378.477 20.1013 378.477 23.5892V37.2093H372.572V12.5153H372.516ZM401.872 17.0553H397.75V12.5153H401.872V3.93164H407.777V12.5153H412.011V17.0553H407.777V37.2093H401.872V17.0553ZM439.081 37.1533H433.177V33.6109C431.617 36.4903 428.275 37.9299 424.822 37.9299C416.857 37.9299 412.233 31.7837 412.233 24.8078C412.233 17.0553 417.859 11.7402 424.822 11.7402C429.333 11.7402 432.12 14.1215 433.177 16.1137V12.5153H439.081V37.1533ZM418.138 24.9728C418.138 28.0187 420.365 32.5027 425.713 32.5027C429 32.5027 431.172 30.7876 432.343 28.5728C432.954 27.5207 433.177 26.302 433.289 25.0833C433.343 23.8843 433.115 22.6895 432.621 21.5954C431.563 19.2701 429.279 17.2219 425.713 17.2219C420.811 17.2219 418.138 21.0973 418.138 24.9728ZM444.095 3.93324H450V37.2109H444.095V3.93164V3.93324ZM146.975 46.5664H157.614C161.791 46.5664 167.808 46.954 171.818 52.3252C174.269 55.3711 175.272 59.08 175.272 63.178C175.272 72.5912 170.314 79.8441 158.116 79.8441H146.975V46.5664ZM158.449 73.9749C165.69 73.9749 168.475 69.2683 168.475 63.2885C168.475 60.6862 167.808 57.9174 166.192 55.8131C164.8 54.0419 162.516 52.4917 158.449 52.4917H153.659V73.9749H158.449ZM183.349 69.4348C183.626 73.3663 187.137 75.5811 190.535 75.5251C193.43 75.5251 195.381 74.1959 196.494 72.2037H202.623C201.452 74.971 199.67 77.0208 197.609 78.4044C195.548 79.8441 193.097 80.5631 190.535 80.5631C182.903 80.5631 177.445 74.4185 177.445 67.5515C177.445 60.5213 182.959 54.3734 190.479 54.3734C194.21 54.3734 197.442 55.7586 199.726 58.14C202.733 61.2403 203.904 65.1158 203.402 69.4348H183.349ZM197.498 64.9508C197.274 62.6239 194.768 59.357 190.423 59.357C186.022 59.357 183.626 62.5134 183.404 64.9492L197.498 64.9508ZM207.3 59.6901H204.237V55.1501H207.3V53.7649C207.3 46.4559 212.928 46.0139 217.16 45.9579V50.4979C215.657 50.4979 213.205 50.4979 213.205 53.9859V55.2045H217.16V59.7446H213.205V79.9002H207.3V59.6901ZM223.009 69.4348C223.287 73.3663 226.798 75.5811 230.194 75.5251C233.091 75.5251 235.042 74.1959 236.155 72.2037H242.282C241.113 74.971 239.331 77.0208 237.269 78.4044C235.208 79.8441 232.757 80.5631 230.194 80.5631C222.564 80.5631 217.104 74.4185 217.104 67.5515C217.104 60.5213 222.62 54.3734 230.14 54.3734C233.871 54.3734 237.103 55.7586 239.387 58.14C242.394 61.2403 243.563 65.1158 243.062 69.4348H223.009ZM237.157 64.9508C236.935 62.6239 234.429 59.357 230.084 59.357C225.683 59.357 223.287 62.5134 223.065 64.9492L237.157 64.9508ZM246.572 55.1501H252.142C252.142 56.2006 252.142 57.2528 252.086 58.417C253.144 56.4793 255.374 54.3173 259.829 54.3734C267.906 54.4294 269.466 60.5757 269.466 64.9492V79.8441H263.562V66.445C263.562 62.7345 262.337 59.9111 258.158 59.9111C253.98 59.9672 252.533 62.7345 252.533 66.224V79.8441H246.572V55.1501ZM285.119 61.7944C285.062 60.4652 284.395 59.136 282.111 59.136C280.104 59.136 279.158 60.4092 279.158 61.6279C279.214 63.178 280.996 64.0636 283.336 64.7282C287.29 65.7804 291.636 66.9991 291.636 72.2581C291.747 77.3523 287.402 80.5631 282.222 80.5631C278.378 80.5631 273.198 78.571 272.752 72.5912H278.657C278.879 75.2496 281.163 75.8021 282.334 75.8021C284.172 75.8021 285.786 74.585 285.732 72.9227C285.732 70.8185 283.893 70.2099 279.325 68.6597C275.982 67.6076 273.254 65.7804 273.198 62.238C273.198 57.3649 277.32 54.375 282.111 54.375C285.453 54.375 290.41 55.8691 290.911 61.7944H285.119ZM299.602 69.4348C299.88 73.3663 303.389 75.5811 306.787 75.5251C309.683 75.5251 311.633 74.1959 312.748 72.2037H318.875C317.704 74.971 315.922 77.0208 313.861 78.4044C311.8 79.8441 309.35 80.5631 306.787 80.5631C299.155 80.5631 293.697 74.4185 293.697 67.5515C293.697 60.5213 299.211 54.3734 306.731 54.3734C310.463 54.3734 313.694 55.7586 315.978 58.14C318.986 61.2403 320.156 65.1158 319.655 69.4348H299.602ZM313.75 64.9508C313.528 62.6239 311.02 59.357 306.675 59.357C302.275 59.357 299.88 62.5134 299.656 64.9492L313.75 64.9508ZM146.975 89.2573H164.744V95.1249H153.715V103.097H164.465V108.966H153.715V122.477H146.975V89.2573ZM191.315 122.533H185.744V119.266C184.685 121.204 182.513 123.364 178.001 123.308C169.869 123.254 168.309 117.108 168.309 112.789V97.8393H174.213V111.295C174.213 114.947 175.438 117.828 179.617 117.772C183.851 117.772 185.298 115.003 185.298 111.459V97.8393H191.203V122.533H191.315ZM196.271 97.8393H201.843C201.843 98.8915 201.843 99.9436 201.787 101.106C202.845 99.1685 205.073 97.0082 209.53 97.0642C217.606 97.1187 219.165 103.265 219.165 107.64V122.533H213.261V109.134C213.261 105.425 212.036 102.6 207.858 102.6C203.681 102.656 202.232 105.425 202.232 108.913V122.533H196.327V97.8393H196.271ZM249.469 122.533H243.787V118.989C242.729 120.817 240.333 123.308 235.264 123.308C227.632 123.308 222.676 117.383 222.676 110.186C222.676 102.158 228.412 97.1187 235.152 97.1187C239.888 97.1187 242.561 99.6105 243.453 101.05V89.2573H249.357V122.535L249.469 122.533ZM228.636 110.13C228.636 114.339 231.644 117.716 236.211 117.716C238.384 117.716 240.333 116.887 241.726 115.447C242.447 114.735 243.008 113.878 243.373 112.933C243.737 111.988 243.897 110.977 243.842 109.965C243.842 107.805 243.007 105.978 241.614 104.649C240.277 103.319 238.384 102.49 236.211 102.49C231.421 102.546 228.636 106.255 228.636 110.13Z" fill="black"/>
<path d="M87.9864 81.6158C97.4557 78.8486 107.873 79.4011 119.794 83.3886C119.794 83.3326 119.794 83.3326 119.848 83.2765C122.858 75.3046 124.195 66.9436 123.748 58.472C123.423 58.3667 123.107 58.2372 122.801 58.0845C116.117 55.5926 109.377 54.2634 102.748 54.1529C89.3797 53.932 77.4026 58.6369 68.1015 67.8291C66.1561 69.7716 64.2247 71.7281 62.3075 73.6984C55.0659 81.1738 47.6016 88.8703 38.0779 94.0205C33.7317 96.3442 28.8297 97.9504 23.9277 98.7255C35.1249 102.38 47.7137 101.88 58.1294 97.2297C62.0849 95.4586 65.9844 93.0228 69.7718 90.6959C75.4537 87.2641 81.2476 83.6096 87.9864 81.6158Z" fill="black"/>
<path d="M110.545 23.4771C100.573 22.481 92.0505 22.9807 84.5318 24.9729C74.4492 27.6312 65.0345 33.39 58.0714 41.1409C52.8924 46.8996 48.8809 53.9859 44.9814 60.7968C43.3671 63.6762 41.6953 66.61 39.9129 69.4893C33.3951 80.0652 26.7107 87.2075 19.248 91.5826C23.4246 91.4705 28.6052 90.42 34.3975 87.3196C42.8098 82.778 49.8834 75.5251 56.6798 68.4932C58.6287 66.4995 60.6353 64.3968 62.6403 62.4575C73.4468 51.7727 87.3728 46.2911 102.857 46.5665C109.375 46.6786 116.059 47.8412 122.687 50.056C120.851 40.3443 116.684 31.2235 110.545 23.4771Z" fill="black"/>
<path d="M3.98598 39.757C-2.03058 55.5375 -1.19463 73.1996 6.21357 88.3699C7.72578 88.045 9.21467 87.6197 10.6703 87.0968C18.9145 84.0525 26.1001 77.1311 33.2857 65.4471C35.012 62.6798 36.6279 59.8005 38.2437 56.9755C42.3097 49.7787 46.5423 42.3593 52.2802 35.992C60.2457 27.1329 70.9961 20.5431 82.5264 17.4988C88.7095 15.8925 95.3378 15.1174 102.748 15.284C97.1771 10.3943 90.7585 6.56567 83.8091 3.98751C51.8911 -8.0264 16.0736 8.02951 3.98598 39.757Z" fill="black"/>
<path d="M73.8932 97.2875C69.8832 99.7778 65.7612 102.324 61.3604 104.318C48.3809 110.131 33.0632 110.52 19.4719 105.426C18.9691 105.203 18.4134 105.038 17.9121 104.817C24.1921 111.114 31.7532 115.986 40.0823 119.102C69.4364 130.12 102.024 117.827 116.618 90.4751C106.535 87.2081 97.9018 86.7662 90.2149 89.0354C84.477 90.6977 79.3525 93.9101 73.8932 97.2875Z" fill="black"/>
</svg>
