<svg width="350" height="143" viewBox="0 0 350 143" fill="none" xmlns="http://www.w3.org/2000/svg">
<path d="M29.7656 0V118.99H59.9441L83.9588 0H29.7656Z" fill="black"/>
<path d="M19.6991 45.5107L0 142.871H55.0811L57.9204 129.005H19.6991V45.5107Z" fill="black"/>
<path d="M101.314 102.46H125.06L121.87 118.741H76.8555L91.826 42.2061H113.094L101.314 102.46Z" fill="black"/>
<path d="M194.916 80.3653C191.889 84.2672 187.964 87.3804 183.476 89.4406C178.3 91.8157 172.651 92.9842 166.957 92.858H156.426L151.378 118.669H130.15L145.121 42.1338H176.931C183.084 42.1338 188.099 43.2213 191.973 45.3963C195.643 47.3226 198.476 50.5304 199.934 54.4096C201.377 58.675 201.606 63.2578 200.594 67.6456C199.715 72.2687 197.771 76.6235 194.916 80.3653ZM178.882 67.7592C179.976 62.1977 177.519 59.4136 171.51 59.4066H163.044L159.792 76.0187H168.289C174.277 76.0187 177.808 73.2655 178.882 67.7592Z" fill="black"/>
<path d="M263.955 80.3653C260.926 84.2651 257.002 87.378 252.515 89.4406C247.339 91.8147 241.69 92.9832 235.996 92.858H225.465L220.417 118.669H199.189L214.16 42.1338H245.97C252.116 42.1338 257.13 43.2213 261.012 45.3963C264.682 47.3199 267.512 50.5291 268.962 54.4096C270.415 58.6729 270.647 63.2573 269.633 67.6456C268.754 72.2687 266.809 76.6235 263.955 80.3653ZM247.921 67.7592C249.015 62.1977 246.558 59.4136 240.549 59.4066H232.083L228.831 76.0187H237.297C243.306 76.0187 246.847 73.2655 247.921 67.7592Z" fill="black"/>
<path d="M281.859 60.1712C286.09 54.3216 291.659 49.57 298.103 46.3134C304.545 43.057 311.674 41.3903 318.893 41.4529C328.454 41.4529 335.987 44.003 341.493 49.1033C347 54.2036 349.836 61.1347 350.001 69.8968H327.07C326.421 67.2399 324.861 64.8946 322.662 63.2685C320.317 61.684 317.529 60.8851 314.701 60.9868C312.322 60.9624 309.962 61.4159 307.761 62.3203C305.56 63.2248 303.563 64.5618 301.889 66.2523C298.106 70.0846 295.608 74.9991 294.744 80.3142C293.588 86.2542 294.128 90.976 296.365 94.4794C298.602 97.9828 302.185 99.738 307.113 99.7449C310.213 99.7662 313.266 98.9798 315.971 97.4632C318.799 95.8476 321.2 93.5783 322.971 90.8452H345.871C342.529 99.2856 336.727 106.527 329.218 111.628C321.67 116.739 312.737 119.41 303.623 119.279C296.094 119.279 289.757 117.634 284.616 114.344C279.541 111.144 275.749 106.267 273.899 100.561C271.91 94.6549 271.659 87.9061 273.145 80.3142C274.521 73.0367 277.496 66.1562 281.859 60.1712Z" fill="black"/>
<path d="M74.7912 129.851H77.4343L75.3694 139.432H80.2735L79.747 141.879H72.1895L74.7912 129.851Z" fill="black"/>
<path d="M87.7579 129.851H89.957L92.5897 141.879H89.5956L89.1104 139.328H84.4334L82.8847 141.879H79.9629L87.7579 129.851ZM88.0263 133.351L85.7549 137.088H88.6974L88.0263 133.351Z" fill="black"/>
<path d="M96.4112 129.851H101.057C101.633 129.848 102.208 129.906 102.771 130.026C103.247 130.127 103.694 130.332 104.082 130.625C104.438 130.912 104.698 131.301 104.826 131.74C104.975 132.319 104.975 132.926 104.826 133.506C104.664 134.32 104.273 135.072 103.7 135.674C103.114 136.274 102.35 136.668 101.522 136.799L103.473 141.879H100.304L98.8271 137.068H97.5159L96.4835 141.879H93.8301L96.4112 129.851ZM97.9805 134.868H99.5395H100.304C100.561 134.851 100.814 134.799 101.057 134.714C101.295 134.63 101.511 134.492 101.687 134.311C101.881 134.097 102.01 133.832 102.059 133.547C102.148 133.31 102.148 133.05 102.059 132.814C101.981 132.637 101.846 132.492 101.677 132.401C101.484 132.299 101.274 132.233 101.057 132.205C100.818 132.172 100.576 132.155 100.335 132.153H98.6L97.9805 134.868Z" fill="black"/>
<path d="M115.891 141.063C115.049 141.46 114.161 141.755 113.248 141.941C112.376 142.125 111.487 142.219 110.595 142.22C109.738 142.236 108.885 142.086 108.086 141.776C107.395 141.512 106.783 141.075 106.31 140.506C105.832 139.935 105.515 139.247 105.391 138.513C105.236 137.643 105.261 136.751 105.464 135.891C105.66 134.969 106.009 134.086 106.496 133.279C106.971 132.516 107.575 131.841 108.282 131.286C108.979 130.728 109.769 130.298 110.615 130.016C111.482 129.717 112.393 129.567 113.31 129.572C114.184 129.559 115.054 129.677 115.891 129.923C116.618 130.13 117.269 130.547 117.76 131.121L115.458 133.186C115.189 132.82 114.834 132.526 114.425 132.329C113.904 132.119 113.345 132.021 112.784 132.04C112.241 132.04 111.702 132.138 111.194 132.329C110.697 132.519 110.237 132.791 109.831 133.134C109.422 133.488 109.073 133.907 108.798 134.373C108.521 134.852 108.318 135.371 108.2 135.912C108.08 136.423 108.055 136.951 108.127 137.471C108.188 137.914 108.359 138.337 108.623 138.699C108.892 139.052 109.248 139.329 109.655 139.504C110.122 139.703 110.625 139.802 111.132 139.794C111.651 139.803 112.169 139.737 112.67 139.597C113.044 139.49 113.41 139.356 113.764 139.195L114.177 137.243H112.02L112.556 134.797H117.264L115.891 141.063Z" fill="black"/>
<path d="M120.797 129.851H128.964L128.437 132.297H122.862L122.377 134.538H127.591L127.064 136.985H121.83L121.303 139.432H127.126L126.599 141.879H118.123L120.797 129.851Z" fill="black"/>
<path d="M136.377 129.851H140.848C141.43 129.846 142.011 129.9 142.582 130.016C143.062 130.108 143.514 130.309 143.904 130.605C144.263 130.893 144.522 131.287 144.647 131.73C144.797 132.312 144.797 132.923 144.647 133.506C144.524 134.136 144.278 134.735 143.924 135.271C143.616 135.728 143.214 136.115 142.747 136.407C142.273 136.697 141.753 136.904 141.209 137.016C140.614 137.134 140.009 137.193 139.402 137.192H137.461L136.429 141.879H133.775L136.377 129.851ZM137.926 134.951H139.691C139.934 134.946 140.177 134.918 140.414 134.869C140.641 134.826 140.86 134.749 141.064 134.641C141.264 134.528 141.439 134.377 141.581 134.198C141.739 133.992 141.845 133.75 141.89 133.495C141.982 133.256 141.982 132.992 141.89 132.752C141.79 132.565 141.635 132.414 141.446 132.318C141.227 132.211 140.988 132.144 140.744 132.122C140.486 132.107 140.228 132.107 139.97 132.122H138.618L137.926 134.951Z" fill="black"/>
<path d="M155.631 137.243C155.485 137.936 155.231 138.602 154.877 139.215C154.54 139.808 154.1 140.337 153.576 140.774C153.041 141.224 152.428 141.573 151.77 141.807C151.04 142.061 150.272 142.187 149.498 142.179C148.768 142.199 148.041 142.072 147.361 141.807C146.826 141.593 146.359 141.239 146.01 140.781C145.661 140.322 145.443 139.778 145.379 139.205C145.297 138.546 145.332 137.879 145.482 137.233L147.082 129.841H149.705L148.125 137.13C148.059 137.471 148.059 137.822 148.125 138.162C148.16 138.461 148.271 138.745 148.445 138.988C148.611 139.224 148.835 139.412 149.096 139.536C149.39 139.672 149.711 139.739 150.035 139.732C150.389 139.737 150.74 139.671 151.068 139.536C151.39 139.405 151.687 139.221 151.945 138.988C152.219 138.755 152.449 138.475 152.627 138.162C152.816 137.842 152.951 137.493 153.029 137.13L154.609 129.841H157.262L155.631 137.243Z" fill="black"/>
<path d="M159.678 129.851H164.158C164.677 129.847 165.195 129.885 165.707 129.964C166.172 130.021 166.621 130.168 167.029 130.398C167.393 130.616 167.681 130.94 167.855 131.327C168.021 131.84 168.021 132.394 167.855 132.907C167.728 133.554 167.402 134.145 166.925 134.6C166.44 135.053 165.852 135.383 165.212 135.56C165.573 135.605 165.924 135.717 166.244 135.891C166.522 136.047 166.761 136.261 166.946 136.521C167.126 136.79 167.242 137.098 167.287 137.419C167.353 137.777 167.353 138.145 167.287 138.503C167.172 139.087 166.913 139.634 166.533 140.093C166.179 140.515 165.748 140.865 165.263 141.125C164.768 141.392 164.235 141.584 163.684 141.693C163.144 141.804 162.593 141.858 162.042 141.858H157.117L159.678 129.851ZM160.204 139.639H162.589C162.801 139.64 163.012 139.615 163.219 139.566C163.441 139.524 163.655 139.444 163.849 139.329C164.04 139.212 164.21 139.067 164.355 138.895C164.506 138.697 164.612 138.468 164.664 138.224C164.729 137.996 164.704 137.752 164.592 137.543C164.487 137.367 164.333 137.228 164.148 137.14C163.94 137.043 163.717 136.98 163.487 136.954C163.26 136.94 163.033 136.94 162.806 136.954H160.803L160.204 139.639ZM161.288 134.662H163.209C163.417 134.658 163.625 134.633 163.828 134.59C164.031 134.551 164.227 134.477 164.406 134.373C164.592 134.271 164.754 134.129 164.881 133.96C165.022 133.783 165.115 133.574 165.15 133.351C165.219 133.151 165.219 132.932 165.15 132.731C165.08 132.573 164.965 132.44 164.819 132.349C164.653 132.253 164.471 132.187 164.282 132.153C164.078 132.112 163.871 132.091 163.663 132.091H161.856L161.288 134.662Z" fill="black"/>
<path d="M170.787 129.851H173.451L171.386 139.432H176.301L175.774 141.879H168.186L170.787 129.851Z" fill="black"/>
<path d="M179.78 129.851H182.433L179.831 141.879H177.178L179.78 129.851Z" fill="black"/>
<path d="M192.036 132.979C191.847 132.659 191.566 132.404 191.23 132.246C190.837 132.061 190.405 131.973 189.971 131.988C189.475 131.991 188.984 132.089 188.525 132.277C188.058 132.473 187.625 132.746 187.245 133.082C186.84 133.441 186.492 133.859 186.213 134.321C185.934 134.798 185.735 135.319 185.624 135.86C185.501 136.37 185.473 136.898 185.542 137.419C185.607 137.856 185.766 138.276 186.006 138.647C186.232 138.987 186.542 139.265 186.904 139.453C187.299 139.647 187.734 139.746 188.174 139.742C188.703 139.746 189.225 139.629 189.702 139.401C190.173 139.168 190.593 138.845 190.941 138.451L192.789 140.093C192.165 140.788 191.387 141.329 190.518 141.672C189.716 142.004 188.857 142.178 187.988 142.189C187.135 142.206 186.286 142.055 185.49 141.745C184.794 141.483 184.178 141.046 183.704 140.474C183.229 139.901 182.912 139.214 182.785 138.482C182.634 137.612 182.662 136.719 182.868 135.86C183.054 134.935 183.404 134.051 183.9 133.248C184.855 131.712 186.315 130.558 188.03 129.985C188.896 129.686 189.808 129.536 190.724 129.541C191.07 129.542 191.416 129.573 191.757 129.634C192.111 129.697 192.457 129.797 192.789 129.933C193.118 130.07 193.424 130.254 193.698 130.481C193.98 130.711 194.217 130.991 194.4 131.307L192.036 132.979Z" fill="black"/>
<path d="M201.514 129.851H205.984C206.567 129.846 207.148 129.9 207.719 130.016C208.199 130.108 208.651 130.309 209.04 130.605C209.4 130.893 209.659 131.287 209.784 131.73C209.933 132.312 209.933 132.923 209.784 133.506C209.665 134.138 209.419 134.738 209.061 135.271C208.752 135.728 208.351 136.115 207.884 136.407C207.411 136.699 206.891 136.906 206.346 137.016C205.751 137.134 205.145 137.193 204.539 137.192H202.598L201.565 141.879H198.912L201.514 129.851ZM203.063 134.951H204.828C205.063 134.948 205.299 134.924 205.53 134.879C205.757 134.837 205.976 134.759 206.181 134.652C206.38 134.538 206.555 134.388 206.697 134.208C206.858 134.002 206.968 133.762 207.017 133.506C207.098 133.265 207.098 133.003 207.017 132.762C206.912 132.577 206.754 132.426 206.563 132.329C206.343 132.221 206.104 132.154 205.86 132.133C205.607 132.117 205.35 132.117 205.096 132.133H203.734L203.063 134.951Z" fill="black"/>
<path d="M210.28 135.901C210.471 134.977 210.821 134.094 211.312 133.289C211.787 132.526 212.391 131.851 213.098 131.296C213.795 130.738 214.585 130.308 215.432 130.026C216.298 129.727 217.209 129.577 218.126 129.582C218.98 129.565 219.829 129.716 220.625 130.026C221.321 130.288 221.937 130.725 222.411 131.297C222.886 131.87 223.203 132.557 223.33 133.289C223.481 134.156 223.453 135.045 223.247 135.901C223.062 136.829 222.712 137.718 222.215 138.523C221.26 140.059 219.8 141.213 218.085 141.786C217.219 142.085 216.307 142.235 215.39 142.23C214.533 142.246 213.681 142.096 212.881 141.786C212.188 141.523 211.574 141.084 211.103 140.512C210.63 139.94 210.314 139.254 210.187 138.523C210.034 137.652 210.066 136.759 210.28 135.901ZM213.026 135.901C212.906 136.412 212.882 136.941 212.954 137.46C213.015 137.904 213.185 138.326 213.449 138.689C213.719 139.042 214.074 139.318 214.482 139.494C214.948 139.692 215.451 139.791 215.958 139.783C216.504 139.784 217.046 139.686 217.558 139.494C218.053 139.301 218.513 139.029 218.921 138.689C219.334 138.342 219.683 137.926 219.954 137.46C220.241 136.977 220.446 136.45 220.563 135.901C220.675 135.396 220.696 134.875 220.625 134.363C220.567 133.917 220.401 133.49 220.14 133.124C219.869 132.773 219.514 132.495 219.107 132.318C218.645 132.12 218.145 132.021 217.641 132.029C217.095 132.028 216.553 132.126 216.041 132.318C215.544 132.508 215.084 132.781 214.678 133.124C214.269 133.478 213.92 133.896 213.645 134.363C213.361 134.841 213.152 135.359 213.026 135.901Z" fill="black"/>
<path d="M225.074 129.851H227.965L228.213 137.563L232.405 129.851H234.862L235.646 137.769L239.374 129.851H242.058L235.946 141.879H233.582L232.735 133.557L228.285 141.879H226.107L225.074 129.851Z" fill="black"/>
<path d="M243.462 129.851H251.628L251.102 132.297H245.578L245.093 134.538H250.317L249.78 136.985H244.618L244.091 139.432H249.853L249.326 141.879H240.85L243.462 129.851Z" fill="black"/>
<path d="M254.065 129.851H258.722C259.295 129.849 259.866 129.907 260.425 130.026C260.901 130.126 261.349 130.331 261.737 130.625C262.096 130.909 262.356 131.299 262.48 131.74C262.626 132.319 262.626 132.926 262.48 133.506C262.31 134.319 261.916 135.07 261.344 135.674C260.758 136.274 259.994 136.668 259.166 136.799L261.127 141.879H257.947L256.471 137.067H255.16L254.127 141.879H251.484L254.065 129.851ZM255.635 134.868H257.204H257.968C258.225 134.85 258.478 134.798 258.722 134.713C258.955 134.627 259.167 134.489 259.341 134.311C259.54 134.099 259.669 133.833 259.713 133.547C259.794 133.309 259.794 133.051 259.713 132.814C259.627 132.639 259.491 132.495 259.321 132.401C259.129 132.295 258.918 132.229 258.701 132.205C258.462 132.172 258.22 132.155 257.978 132.153H256.254L255.635 134.868Z" fill="black"/>
<path d="M277.296 132.979C277.11 132.657 276.828 132.401 276.491 132.246C276.097 132.06 275.666 131.972 275.231 131.988C274.736 131.991 274.244 132.089 273.786 132.277C273.319 132.475 272.886 132.748 272.505 133.082C272.101 133.441 271.753 133.859 271.473 134.321C271.191 134.798 270.989 135.318 270.874 135.86C270.749 136.37 270.724 136.899 270.802 137.419C270.864 137.855 271.019 138.275 271.256 138.647C271.486 138.988 271.799 139.265 272.165 139.453C272.559 139.647 272.995 139.746 273.435 139.742C273.96 139.745 274.478 139.628 274.952 139.401C275.423 139.168 275.843 138.845 276.191 138.451L278.05 140.093C277.421 140.789 276.64 141.329 275.768 141.672C274.965 142.004 274.107 142.178 273.238 142.189C272.385 142.206 271.536 142.055 270.74 141.745C270.044 141.483 269.428 141.046 268.954 140.474C268.479 139.901 268.162 139.214 268.035 138.482C267.884 137.612 267.912 136.719 268.118 135.86C268.304 134.935 268.654 134.051 269.15 133.248C270.105 131.712 271.565 130.558 273.28 129.985C274.146 129.686 275.058 129.536 275.974 129.541C276.32 129.542 276.666 129.573 277.007 129.634C277.361 129.694 277.708 129.794 278.039 129.933C278.368 130.07 278.674 130.254 278.948 130.481C279.232 130.712 279.473 130.992 279.66 131.307L277.296 132.979Z" fill="black"/>
<path d="M279.793 135.901C279.984 134.977 280.334 134.094 280.826 133.289C281.301 132.526 281.905 131.851 282.612 131.296C283.309 130.738 284.099 130.308 284.945 130.026C285.811 129.727 286.723 129.577 287.64 129.582C288.494 129.565 289.342 129.716 290.138 130.026C290.834 130.288 291.45 130.725 291.925 131.296C292.394 131.872 292.711 132.558 292.844 133.289C292.994 134.156 292.966 135.045 292.761 135.901C292.576 136.829 292.226 137.718 291.728 138.523C290.773 140.059 289.314 141.213 287.599 141.786C286.732 142.085 285.821 142.235 284.904 142.23C284.047 142.246 283.194 142.096 282.395 141.786C281.701 141.523 281.088 141.084 280.616 140.512C280.143 139.94 279.827 139.254 279.7 138.523C279.548 137.652 279.58 136.759 279.793 135.901ZM282.54 135.901C282.42 136.412 282.395 136.941 282.467 137.46C282.528 137.904 282.699 138.326 282.963 138.689C283.232 139.042 283.588 139.318 283.995 139.494C284.462 139.692 284.965 139.791 285.472 139.783C286.018 139.784 286.56 139.686 287.072 139.494C287.567 139.301 288.027 139.029 288.435 138.689C288.848 138.342 289.197 137.926 289.467 137.46C289.753 136.977 289.96 136.45 290.077 135.901C290.189 135.396 290.21 134.875 290.138 134.363C290.081 133.917 289.914 133.49 289.653 133.124C289.383 132.773 289.028 132.495 288.621 132.318C288.158 132.12 287.659 132.021 287.155 132.029C286.609 132.028 286.067 132.126 285.554 132.318C285.058 132.508 284.597 132.781 284.192 133.124C283.783 133.478 283.434 133.896 283.159 134.363C282.877 134.841 282.672 135.36 282.55 135.901H282.54Z" fill="black"/>
<path d="M304.427 137.243C304.28 137.935 304.031 138.6 303.684 139.215C303.343 139.806 302.903 140.334 302.383 140.774C301.845 141.222 301.234 141.57 300.576 141.807C299.843 142.061 299.071 142.187 298.294 142.179C297.567 142.199 296.845 142.072 296.167 141.807C295.633 141.593 295.165 141.239 294.816 140.781C294.467 140.322 294.249 139.778 294.185 139.205C294.098 138.547 294.133 137.878 294.288 137.233L295.889 129.841H298.532L296.962 137.13C296.897 137.471 296.897 137.822 296.962 138.162C297.006 138.46 297.119 138.743 297.293 138.988C297.459 139.224 297.683 139.412 297.943 139.536C298.236 139.674 298.559 139.741 298.883 139.732C299.237 139.737 299.588 139.67 299.915 139.536C300.57 139.259 301.117 138.778 301.474 138.162C301.663 137.842 301.798 137.493 301.877 137.13L303.456 129.841H306.1L304.427 137.243Z" fill="black"/>
<path d="M308.474 129.851H312.077L315.392 138.213L317.198 129.851H319.852L317.25 141.879H313.864L310.467 133.32L308.608 141.879H305.955L308.474 129.851Z" fill="black"/>
<path d="M329.528 132.979C329.336 132.662 329.056 132.407 328.722 132.246C328.329 132.061 327.897 131.972 327.463 131.988C326.963 131.991 326.469 132.089 326.007 132.277C325.542 132.473 325.113 132.746 324.737 133.082C324.33 133.438 323.981 133.857 323.705 134.321C323.44 134.816 323.256 135.348 323.157 135.901C323.038 136.412 323.013 136.94 323.085 137.46C323.147 137.898 323.302 138.316 323.539 138.688C323.773 139.027 324.085 139.303 324.448 139.494C324.842 139.688 325.278 139.787 325.718 139.783C326.243 139.788 326.763 139.671 327.236 139.442C327.707 139.212 328.129 138.889 328.474 138.492L330.333 140.134C329.706 140.832 328.925 141.373 328.051 141.713C327.252 142.045 326.397 142.219 325.532 142.23C324.675 142.246 323.822 142.095 323.023 141.786C322.327 141.525 321.711 141.087 321.237 140.515C320.762 139.942 320.445 139.255 320.318 138.523C320.167 137.653 320.195 136.76 320.401 135.901C320.588 134.976 320.938 134.092 321.433 133.289C321.908 132.526 322.512 131.851 323.219 131.296C323.912 130.739 324.699 130.308 325.542 130.026C326.413 129.726 327.327 129.576 328.247 129.582C328.593 129.583 328.939 129.614 329.28 129.675C329.634 129.737 329.98 129.837 330.312 129.975C330.64 130.113 330.945 130.297 331.221 130.522C331.503 130.752 331.741 131.032 331.923 131.348L329.528 132.979Z" fill="black"/>
<path d="M333.934 129.851H336.577L333.976 141.879H331.322L333.934 129.851Z" fill="black"/>
<path d="M339.108 129.851H341.741L339.676 139.432H344.59L344.064 141.879H336.496L339.108 129.851Z" fill="black"/>
</svg>
