<svg width="250" height="145" viewBox="0 0 250 145" fill="none" xmlns="http://www.w3.org/2000/svg">
<path d="M113.987 125.544C113.007 124.564 111.849 123.784 110.525 123.219C109.202 122.654 107.779 122.368 106.291 122.368C104.804 122.368 103.373 122.654 102.057 123.219C100.741 123.784 99.5754 124.564 98.5955 125.544C97.6228 126.524 96.8361 127.682 96.271 129.005C95.706 130.329 95.4199 131.752 95.4199 133.247C95.4199 134.742 95.706 136.165 96.271 137.488C96.8361 138.804 97.6228 139.97 98.5955 140.95C99.5754 141.93 100.741 142.709 102.057 143.274C103.38 143.839 104.804 144.125 106.291 144.125C107.779 144.125 109.209 143.839 110.525 143.274C111.841 142.709 113.007 141.93 113.994 140.95C114.981 139.97 115.768 138.804 116.333 137.488C116.898 136.165 117.184 134.742 117.184 133.247C117.184 131.752 116.891 130.329 116.319 129.005C115.747 127.689 114.96 126.524 113.987 125.551V125.544ZM114.953 133.24C114.953 134.613 114.752 135.907 114.359 137.102C113.966 138.296 113.386 139.348 112.65 140.234C111.913 141.121 110.998 141.822 109.932 142.33C108.866 142.838 107.643 143.095 106.284 143.095C104.925 143.095 103.695 142.838 102.629 142.33C101.557 141.822 100.634 141.121 99.8829 140.234C99.1319 139.348 98.5455 138.296 98.1449 137.102C97.7444 135.907 97.537 134.606 97.537 133.24C97.537 131.873 97.7444 130.579 98.1521 129.392C98.5598 128.204 99.1463 127.167 99.8972 126.295C100.648 125.422 101.571 124.728 102.651 124.228C103.731 123.727 104.968 123.477 106.32 123.477C107.672 123.477 108.902 123.727 109.96 124.228C111.019 124.728 111.927 125.422 112.664 126.288C113.401 127.16 113.973 128.204 114.359 129.385C114.752 130.572 114.946 131.873 114.946 133.24H114.953Z" fill="black"/>
<path d="M155.61 139.276C155.532 139.563 155.424 139.92 155.296 140.356C155.174 140.771 155.01 141.179 154.802 141.572C154.609 141.944 154.366 142.28 154.087 142.552C153.844 142.795 153.543 142.91 153.179 142.91H144.059V124.979C144.059 124.664 144.102 124.421 144.188 124.25C144.267 124.085 144.381 123.956 144.524 123.871C144.682 123.77 144.868 123.699 145.082 123.663C145.325 123.62 145.597 123.592 145.898 123.577L146.212 123.563V122.669H139.646V123.563L139.961 123.577C140.254 123.592 140.533 123.62 140.777 123.663C140.991 123.706 141.177 123.77 141.334 123.871C141.477 123.964 141.585 124.092 141.671 124.257C141.756 124.428 141.799 124.672 141.799 124.986V141.501C141.799 141.816 141.756 142.059 141.671 142.23C141.585 142.395 141.477 142.524 141.334 142.609C141.177 142.71 140.991 142.781 140.777 142.817C140.533 142.86 140.262 142.888 139.961 142.903L139.646 142.917V143.811H155.231L156.59 139.026H155.675L155.61 139.269V139.276Z" fill="black"/>
<path d="M194.563 122.661H178.979V123.555L179.293 123.569C179.594 123.583 179.865 123.612 180.109 123.655C180.323 123.691 180.509 123.762 180.666 123.862C180.809 123.955 180.917 124.084 181.003 124.241C181.088 124.413 181.131 124.663 181.131 124.971V141.486C181.131 141.8 181.088 142.043 181.003 142.215C180.924 142.38 180.809 142.508 180.666 142.594C180.509 142.694 180.323 142.766 180.109 142.802C179.865 142.844 179.594 142.873 179.293 142.887L178.979 142.902V143.796H185.544V142.902L185.23 142.887C184.929 142.873 184.657 142.844 184.414 142.802C184.2 142.759 184.014 142.694 183.856 142.594C183.72 142.501 183.606 142.372 183.52 142.215C183.434 142.043 183.391 141.8 183.391 141.486V134.255H190.007C190.322 134.255 190.572 134.298 190.737 134.383C190.901 134.469 191.03 134.576 191.116 134.719C191.216 134.877 191.288 135.063 191.323 135.277C191.366 135.521 191.395 135.792 191.409 136.093L191.423 136.407H192.296V131.193H191.423L191.409 131.508C191.395 131.78 191.366 132.045 191.323 132.288C191.288 132.502 191.216 132.695 191.109 132.86C191.016 133.003 190.887 133.125 190.723 133.21C190.551 133.303 190.308 133.346 189.993 133.346H183.377V123.555H192.496C192.861 123.555 193.154 123.669 193.405 123.912C193.684 124.184 193.927 124.513 194.12 124.892C194.32 125.279 194.485 125.693 194.606 126.108C194.735 126.544 194.842 126.902 194.921 127.188L194.985 127.431H195.901L194.549 122.646L194.563 122.661Z" fill="black"/>
<path d="M73.9721 132.867H64.5668L63.5941 136.529H64.3523L64.4095 136.328C64.4953 136.028 64.6741 135.406 64.8744 135.019C65.0747 134.633 65.325 134.29 65.6111 134.004C65.8757 133.746 66.1904 133.618 66.5838 133.618H71.8335L71.8979 133.947C71.9194 134.04 71.9265 134.14 71.9337 134.233C72.0481 135.792 71.8764 137.158 71.5403 138.281C71.1827 139.475 70.6463 140.455 69.9596 141.213C69.2659 141.964 68.4577 142.522 67.5422 142.873C66.6195 143.223 65.6611 143.402 64.7027 143.402C63.3224 143.402 62.0636 143.13 60.9693 142.601C59.875 142.072 58.9309 141.335 58.1656 140.419C57.4003 139.497 56.7995 138.41 56.3918 137.187C55.9841 135.956 55.7696 134.626 55.7696 133.231C55.7696 131.837 55.9841 130.506 56.399 129.276C56.8138 128.046 57.4146 126.966 58.187 126.051C58.9523 125.142 59.8964 124.413 61.005 123.876C62.1065 123.347 63.3653 123.075 64.7457 123.075C65.6754 123.075 66.6267 123.218 67.5779 123.49C68.522 123.769 69.4089 124.191 70.21 124.749C71.011 125.307 71.6976 126.015 72.2555 126.844C72.8062 127.667 73.1567 128.661 73.2926 129.784V129.863L73.8004 129.841V129.755C73.829 128.897 73.8576 128.189 73.8791 127.617C73.9005 127.045 73.9148 126.58 73.9291 126.222C73.9434 125.814 73.9506 125.5 73.9506 125.271V125.071L73.7646 125.021C73.5715 124.963 73.4571 125.128 73.3856 125.242L73.171 125.571C73.1209 125.65 73.0709 125.722 73.028 125.793C72.0338 124.756 70.8465 123.919 69.5019 123.297C68.0643 122.632 66.4479 122.303 64.7027 122.303C63.2008 122.303 61.7703 122.589 60.4471 123.161C59.124 123.726 57.9582 124.513 56.9712 125.493C55.9913 126.472 55.2045 127.645 54.6395 128.969C54.0745 130.292 53.7812 131.722 53.7812 133.224C53.7812 134.726 54.0673 136.157 54.6395 137.48C55.2045 138.803 55.9913 139.969 56.9712 140.956C57.951 141.936 59.124 142.722 60.4471 143.287C61.7703 143.852 63.2008 144.146 64.7027 144.146C65.7684 144.146 66.8556 143.953 67.9356 143.574C69.0227 143.194 70.0169 142.587 70.9037 141.764C71.7906 140.941 72.5273 139.876 73.0923 138.588C73.6574 137.301 73.9649 135.727 73.9935 133.911V133.489L73.9792 132.852L73.9721 132.867Z" fill="black"/>
<path d="M50.2017 23.9117C44.8804 19.5202 36.6124 17.2959 25.6265 17.2959H0V20.0924L0.915487 20.1353C2.05985 20.1854 3.11123 20.2998 4.04102 20.4715C4.89929 20.6288 5.64313 20.9078 6.25822 21.3012C6.8304 21.6731 7.2953 22.1952 7.6243 22.8675C7.96761 23.5613 8.14642 24.534 8.14642 25.7785V88.3034C8.14642 89.5408 7.97476 90.5206 7.6243 91.2144C7.28815 91.8796 6.8304 92.4088 6.25822 92.7807C5.64313 93.1741 4.89929 93.4531 4.04102 93.6104C3.10408 93.7821 2.0527 93.8965 0.915487 93.9466L0 93.9895V96.786H24.2461V93.9895L23.3306 93.9466C22.1934 93.8965 21.1421 93.7821 20.2051 93.6104C19.3468 93.4531 18.603 93.1741 17.9879 92.7807C17.4157 92.4088 16.9508 91.8867 16.6218 91.2144C16.2785 90.5278 16.0997 89.5479 16.0997 88.3034V68.4702H25.6194C31.0837 68.4702 35.9043 68.034 39.9382 67.1685C44.0364 66.2888 47.4838 64.8369 50.1945 62.8557C52.9338 60.8459 54.9937 58.2354 56.3311 55.0884C57.64 51.9843 58.3052 48.2079 58.3052 43.8594C58.3052 35.0692 55.5802 28.3604 50.2017 23.926V23.9117ZM50.266 43.8522C50.266 47.9433 49.6795 51.4336 48.5137 54.2301C47.3694 56.9909 45.7315 59.2224 43.643 60.8674C41.5403 62.5339 38.944 63.7498 35.9401 64.4864C32.8718 65.2374 29.4029 65.6237 25.6194 65.6237H16.0997V20.1353H25.6194C29.3815 20.1353 32.8431 20.6074 35.89 21.53C38.894 22.4384 41.4902 23.876 43.593 25.7856C45.6957 27.6953 47.3479 30.1556 48.5066 33.1095C49.6724 36.092 50.266 39.7039 50.266 43.8522Z" fill="black"/>
<path d="M72.3828 20.0908L73.2983 20.1337C74.4427 20.1838 75.494 20.2982 76.4238 20.4699C77.2821 20.6272 78.0259 20.9062 78.641 21.2995C79.2132 21.6714 79.6781 22.1936 80.0071 22.8659C80.3504 23.5596 80.5292 24.5323 80.5292 25.7768V88.3018C80.5292 89.5392 80.3576 90.519 80.0071 91.2128C79.6709 91.8851 79.2132 92.4072 78.641 92.7791C78.0259 93.1725 77.2821 93.4514 76.4238 93.6088C75.4869 93.7804 74.4355 93.8949 73.2983 93.9449L72.3828 93.9879V96.7844H96.6289V93.9879L95.7206 93.9449C94.6835 93.8949 93.6822 93.7804 92.7453 93.6088C91.8799 93.4514 91.1146 93.1654 90.478 92.7648C89.8772 92.3929 89.3909 91.8565 89.0333 91.1842C88.6685 90.4976 88.4825 89.532 88.4825 88.2947V25.7697C88.4825 24.5395 88.6685 23.5668 89.0333 22.8802C89.3909 22.2079 89.8772 21.6786 90.478 21.3067C91.1217 20.9062 91.8799 20.6272 92.7453 20.4627C93.6751 20.2911 94.6764 20.1766 95.7206 20.1266L96.6289 20.0836V17.2871H72.3828V20.0836V20.0908Z" fill="black"/>
<path d="M118.075 17.2959L113.025 34.7975H115.943L116.144 34.1037C116.451 33.0165 116.852 31.6505 117.345 30.0055C117.817 28.4105 118.447 26.8513 119.219 25.3636C119.97 23.9117 120.9 22.6386 121.987 21.5729C122.974 20.6074 124.169 20.1353 125.628 20.1353H159.393L117.503 96.7789H163.892L168.856 79.2773H165.945L165.745 79.9711C165.437 81.0511 165.037 82.4243 164.543 84.0693C164.071 85.6714 163.449 87.2378 162.705 88.7254C161.983 90.1702 161.053 91.4433 159.951 92.4947C158.936 93.4674 157.727 93.9394 156.268 93.9394H127.237L169.128 17.2959H118.082H118.075Z" fill="black"/>
<path d="M220.79 2.33164L215.998 0L211.707 12.0372L213.853 13.1101L220.79 2.33164Z" fill="black"/>
<path d="M246.267 93.6176C245.616 93.4674 245.051 93.2099 244.6 92.838C244.128 92.4517 243.685 91.8867 243.277 91.1715C242.834 90.3776 242.326 89.2976 241.782 87.953L214.246 17.5105L214.16 17.2959H211.907L186.159 89.691C185.873 90.5063 185.559 91.2072 185.23 91.7794C184.943 92.2729 184.572 92.6806 184.121 92.981C183.656 93.2957 183.055 93.5317 182.326 93.6891C181.546 93.8536 180.552 93.9394 179.379 93.9394H178.428V96.7789H197.56V93.9394H196.609C194.299 93.9394 192.489 93.825 191.23 93.6033C189.707 93.3315 189.085 92.9953 188.849 92.8165C188.477 92.5376 188.441 92.3015 188.448 92.1013C188.47 91.5935 188.598 90.9998 188.82 90.3275L196.38 69.1712L196.494 69.0853C196.494 69.0853 199.877 66.5964 205.22 65.3948C210.098 64.3005 217.701 64.0645 226.219 69.164L226.334 69.2284L227.528 72.2609C227.628 72.7258 227.878 73.2622 228.057 73.5483L233.972 88.6539C234.387 89.6838 234.458 90.4992 234.187 91.0785C233.879 91.7222 233.393 92.23 232.685 92.6305C231.905 93.0668 230.968 93.3815 229.917 93.5746C228.794 93.7749 227.7 93.8965 226.663 93.9466L225.754 93.9895V96.786H250V93.9895L249.085 93.9466C247.962 93.8965 247.011 93.7892 246.267 93.6176ZM224.874 65.5593C219.889 63.0918 215.219 62.2263 211.128 62.2263C205.163 62.2263 200.421 64.0573 197.703 65.4377L198.039 64.4936L198.082 64.2719C198.375 63.5781 198.912 62.0761 200.113 58.7146L210.606 29.2688L224.874 65.5593Z" fill="black"/>
</svg>
