<svg width="200" height="113" viewBox="0 0 200 113" fill="none" xmlns="http://www.w3.org/2000/svg">
<path d="M98.4813 92.8687C118.799 69.4642 116.273 34.0488 92.8687 13.7313C69.4642 -6.58627 34.0488 -4.06061 13.7313 19.3439C-6.58627 42.7483 -4.0606 78.1637 19.3439 98.4813C27.7066 105.778 38.0899 110.38 49.0906 111.783V92.0829C29.222 88.2103 16.2008 69.0152 20.0735 49.0906C23.9462 29.1659 43.1412 16.2008 63.0659 20.0735C82.9906 23.9462 95.9556 43.1412 92.0829 63.0659C89.2205 77.7709 77.7709 89.2767 63.0659 92.0829V112.232H119.248V92.8687H98.4813Z" fill="black"/>
<path d="M126.182 92.8803L169.006 51.0104C170.24 49.7757 171.531 48.4286 172.878 47.0255C174.225 45.6223 175.46 44.1631 176.527 42.5915C177.649 41.0761 178.547 39.4485 179.333 37.7086C180.062 36.0248 180.399 34.1727 180.399 32.3205C180.455 30.2439 180.006 28.1111 179.052 26.2589C178.21 24.519 177.032 23.0036 175.572 21.7127C174.057 20.4218 172.373 19.4677 170.521 18.8503C168.557 18.1768 166.424 17.7839 164.347 17.8401C160.138 17.6717 155.984 19.1309 152.785 21.8811C149.698 24.7435 147.734 28.6162 147.341 32.7695L127.697 31.198C127.978 26.4834 129.269 21.9372 131.345 17.7278C133.253 13.9674 135.948 10.6559 139.203 7.9619C142.514 5.32399 146.331 3.30346 150.428 2.06869C154.918 0.665544 159.577 -0.00796594 164.291 0.0481599C169.006 0.0481599 173.72 0.665544 178.266 2.01256C182.364 3.19121 186.18 5.15561 189.548 7.79353C192.803 10.3753 195.441 13.7429 197.181 17.5594C199.145 21.9372 200.099 26.6518 199.987 31.4225C200.155 37.7647 198.528 43.9947 195.216 49.4389C191.793 54.7709 187.696 59.5977 182.981 63.8632L150.765 92.9364H199.987V112.3H126.182V92.8803Z" fill="black"/>
</svg>
