<svg width="430" height="132" viewBox="0 0 430 132" fill="none" xmlns="http://www.w3.org/2000/svg">
<path d="M36.7231 31.508C26.8419 28.7644 21.9029 27.2256 21.9029 22.3948C21.9029 18.0038 26.5137 16.1366 32.4407 16.1366C39.4405 16.1366 44.2829 19.1352 45.6722 24.2709C45.8774 25.033 46.5488 25.5781 47.3373 25.5781H63.852C64.8719 25.5781 65.678 24.6929 65.5697 23.6816C63.9867 8.89636 50.034 0 32.4376 0C14.8414 0 2.14026 6.69791 2.14026 23.8253C2.14026 38.3173 13.9972 44.1358 27.4986 48.0871C38.5875 51.3819 47.0412 52.8095 47.0412 59.0648C47.0412 63.0161 43.09 65.8711 35.7325 65.8711C27.5191 65.8711 20.6483 63.1832 19.7952 56.0104C19.6896 55.1309 18.9715 54.454 18.0863 54.454H1.72695C0.73033 54.454 -0.0581832 55.298 0.00337436 56.2917C1.04689 72.6159 16.0432 82.0077 35.7353 82.0077C55.4275 82.0077 66.8036 72.2377 66.8036 57.1976C66.8036 40.4014 51.5435 35.5708 36.7231 31.508Z" fill="black"/>
<path d="M104.313 22.2861C85.5412 22.2861 74.2324 34.6912 74.2324 52.1467C74.2324 69.6025 85.5412 82.0075 104.313 82.0075C123.085 82.0075 134.285 69.6025 134.285 52.1467C134.285 34.6912 122.976 22.2861 104.313 22.2861ZM104.313 68.8344C96.5187 68.8344 91.7965 63.0159 91.7965 52.1467C91.7965 41.2778 96.5158 35.4593 104.313 35.4593C112.11 35.4593 116.718 41.2778 116.718 52.1467C116.718 63.0159 111.999 68.8344 104.313 68.8344Z" fill="black"/>
<path d="M195.211 24.0449H181.085C180.135 24.0449 179.364 24.8158 179.364 25.7655V56.5408C179.364 64.335 175.522 67.7381 168.826 67.7381C163.008 67.7381 160.044 64.8832 160.044 56.4294V25.7626C160.044 24.8129 159.274 24.042 158.324 24.042H144.198C143.248 24.042 142.478 24.8129 142.478 25.7626V62.028C142.478 74.8729 149.832 82.0074 160.701 82.0074C170.691 82.0074 176.181 77.288 179.144 72.1262H179.364V78.5309C179.364 79.4806 180.135 80.2515 181.085 80.2515H195.211C196.161 80.2515 196.931 79.4806 196.931 78.5309V25.7626C196.931 24.8129 196.161 24.042 195.211 24.042V24.0449Z" fill="black"/>
<path d="M264.276 78.5348V42.2695C264.276 29.4248 256.923 22.29 246.052 22.29C236.063 22.29 230.572 27.0094 227.609 32.1712H227.39V25.7665C227.39 24.8168 226.618 24.0459 225.668 24.0459H211.543C210.593 24.0459 209.823 24.8168 209.823 25.7665V78.5348C209.823 79.4847 210.593 80.2556 211.543 80.2556H225.668C226.618 80.2556 227.39 79.4847 227.39 78.5348V47.7597C227.39 39.9655 231.233 36.5623 237.927 36.5623C243.746 36.5623 246.709 39.4173 246.709 47.8711V78.5379C246.709 79.4876 247.481 80.2585 248.429 80.2585H262.556C263.506 80.2585 264.276 79.4876 264.276 78.5379V78.5348Z" fill="black"/>
<path d="M297.822 82.0086C305.945 82.0086 311.875 77.6177 314.07 74.6542H314.289V78.5322C314.289 79.4818 315.061 80.2528 316.011 80.2528H330.136C331.086 80.2528 331.858 79.4818 331.858 78.5322V3.4804C331.858 2.53067 331.086 1.75977 330.136 1.75977H316.011C315.061 1.75977 314.289 2.53067 314.289 3.4804V29.6447H314.07C311.875 26.6814 305.947 22.2903 297.822 22.2903C282.891 22.2903 273.341 33.7076 273.341 52.1509C273.341 70.5944 282.891 82.0117 297.822 82.0117V82.0086ZM302.433 35.4603C309.567 35.4603 313.959 41.1675 313.959 52.148C313.959 63.1286 309.567 68.8357 302.433 68.8357C295.297 68.8357 290.907 63.1286 290.907 52.148C290.907 41.1675 295.297 35.4603 302.433 35.4603Z" fill="black"/>
<path d="M360.156 1.75977H346.034C345.081 1.75977 344.312 2.53012 344.312 3.4804V78.5322C344.312 79.4825 345.081 80.2528 346.034 80.2528H360.156C361.106 80.2528 361.876 79.4825 361.876 78.5322V3.4804C361.876 2.53012 361.106 1.75977 360.156 1.75977Z" fill="black"/>
<path d="M428.278 24.0459H414.471C413.707 24.0459 413.031 24.5531 412.818 25.2888L402.529 60.9327H402.31L389.975 25.2038C389.733 24.5091 389.084 24.0459 388.347 24.0459H374.444C373.258 24.0459 372.425 25.2212 372.824 26.3411L392.938 82.9817C393.079 83.3803 393.071 83.8171 392.909 84.2098C391.777 86.9682 387.041 98.4821 383.756 106.007H379.604C374.904 106.007 371.081 110.063 371.081 115.052V121.223C371.081 123.122 369.757 124.729 368.186 124.729C366.616 124.729 365.291 123.122 365.291 121.223V100.751C365.291 95.2313 361.075 90.7407 355.89 90.7407C350.704 90.7407 346.49 95.2313 346.49 100.751V121.223C346.49 123.122 345.165 124.729 343.592 124.729C342.022 124.729 340.697 123.122 340.697 121.223V100.751C340.697 95.2313 336.483 90.7407 331.296 90.7407C326.112 90.7407 321.896 95.2313 321.896 100.751V121.223C321.896 123.122 320.571 124.729 319 124.729C317.43 124.729 316.103 123.122 316.103 121.223V100.751C316.103 95.2313 311.889 90.7407 306.704 90.7407C301.518 90.7407 297.304 95.2313 297.304 100.751V121.223C297.304 123.122 295.977 124.729 294.406 124.729C292.836 124.729 291.511 123.122 291.511 121.223V100.751C291.511 95.2313 287.295 90.7407 282.11 90.7407C276.924 90.7407 272.71 95.2313 272.71 100.751V106.646C272.71 107.719 272.02 108.624 271.207 108.624H265.089C263.291 108.624 261.835 110.081 261.835 111.878C261.835 113.675 263.291 115.132 265.089 115.132H271.207C275.624 115.132 279.213 111.327 279.213 106.649V100.754C279.213 98.8544 280.54 97.248 282.11 97.248C283.681 97.248 285.006 98.8544 285.006 100.754V121.226C285.006 126.745 289.222 131.236 294.406 131.236C299.593 131.236 303.807 126.745 303.807 121.226V100.754C303.807 98.8544 305.132 97.248 306.704 97.248C308.275 97.248 309.6 98.8544 309.6 100.754V121.226C309.6 126.745 313.814 131.236 319 131.236C324.185 131.236 328.401 126.745 328.401 121.226V100.754C328.401 98.8544 329.726 97.248 331.296 97.248C332.867 97.248 334.194 98.8544 334.194 100.754V121.226C334.194 126.745 338.408 131.236 343.592 131.236C348.779 131.236 352.993 126.745 352.993 121.226V100.754C352.993 98.8544 354.32 97.248 355.89 97.248C357.461 97.248 358.786 98.8544 358.786 100.754V121.226C358.786 126.745 363.002 131.236 368.186 131.236C373.373 131.236 377.587 126.745 377.587 121.226V115.056C377.587 113.678 378.51 112.514 379.604 112.514H383.359C383.406 112.517 383.449 112.523 383.5 112.523H396.972C397.692 112.523 398.337 112.074 398.587 111.397L429.893 26.3646C430.305 25.2419 429.475 24.0518 428.278 24.0518V24.0459Z" fill="black"/>
</svg>
