<svg width="250" height="250" viewBox="0 0 250 250" fill="none" xmlns="http://www.w3.org/2000/svg">
<path d="M168.039 129.488C168.039 129.488 166.66 129.58 165.983 129.688C163.367 130.109 162.588 130.817 162.588 134.038V159.444C162.588 162.908 164.746 163.115 167.789 163.286C175.218 163.707 179.533 157.109 179.533 146.438C179.533 135.759 175.246 129.488 168.039 129.488C168.039 129.488 166.66 129.58 165.983 129.688C163.367 130.109 162.588 130.817 162.588 134.038V159.444C162.588 162.908 164.746 163.115 167.789 163.286C175.218 163.707 179.533 157.109 179.533 146.438C179.533 135.759 175.246 129.488 168.039 129.488ZM90.0607 129.86C83.3982 129.86 79.2835 136.217 79.2835 146.753C79.2835 157.054 83.3321 163.288 90.1826 163.288C96.847 163.288 101.026 156.81 101.026 146.639C101.026 136.339 96.783 129.86 90.0607 129.86ZM129.826 129.86C123.162 129.86 119.039 136.217 119.039 146.753C119.039 157.054 123.098 163.288 129.946 163.288C136.604 163.288 140.783 156.81 140.783 146.639C140.783 136.339 136.547 129.86 129.826 129.86ZM168.039 129.488C168.039 129.488 166.66 129.58 165.983 129.688C163.367 130.109 162.588 130.817 162.588 134.038V159.444C162.588 162.908 164.746 163.115 167.789 163.286C175.218 163.707 179.533 157.109 179.533 146.438C179.533 135.759 175.246 129.488 168.039 129.488C168.039 129.488 166.66 129.58 165.983 129.688C163.367 130.109 162.588 130.817 162.588 134.038V159.444C162.588 162.908 164.746 163.115 167.789 163.286C175.218 163.707 179.533 157.109 179.533 146.438C179.533 135.759 175.247 129.489 168.04 129.489M129.826 129.86C123.162 129.86 119.039 136.217 119.039 146.753C119.039 157.054 123.098 163.288 129.946 163.288C136.604 163.288 140.783 156.81 140.783 146.639C140.783 136.339 136.547 129.86 129.826 129.86ZM90.0607 129.86C83.3982 129.86 79.2835 136.217 79.2835 146.753C79.2835 157.054 83.3321 163.288 90.1826 163.288C96.847 163.288 101.026 156.81 101.026 146.639C101.026 136.339 96.783 129.86 90.0607 129.86ZM95.5052 189.569C95.404 189.383 93.9114 186.297 93.7338 185.91C93.5686 185.568 93.1557 185.547 93.005 185.925C92.8337 186.346 91.3616 189.305 91.2625 189.518C91.0973 189.869 91.2832 190.098 91.6197 190.098H95.1397C95.3978 190.098 95.6539 189.868 95.5052 189.569ZM90.0607 129.86C83.3982 129.86 79.2835 136.217 79.2835 146.753C79.2835 157.054 83.3321 163.288 90.1826 163.288C96.847 163.288 101.026 156.81 101.026 146.639C101.026 136.339 96.783 129.86 90.0607 129.86ZM129.826 129.86C123.162 129.86 119.039 136.217 119.039 146.753C119.039 157.054 123.098 163.288 129.946 163.288C136.604 163.288 140.783 156.81 140.783 146.639C140.783 136.339 136.547 129.86 129.826 129.86ZM168.04 129.489C168.04 129.489 166.66 129.583 165.983 129.69C163.367 130.111 162.589 130.819 162.589 134.04V159.446C162.589 162.911 164.746 163.117 167.79 163.288C175.218 163.709 179.533 157.111 179.533 146.44C179.533 135.762 175.247 129.489 168.04 129.489C168.04 129.489 166.66 129.583 165.983 129.69C163.367 130.111 162.589 130.819 162.589 134.04V159.446C162.589 162.911 164.746 163.117 167.79 163.288C175.218 163.709 179.533 157.111 179.533 146.44C179.533 135.762 175.247 129.489 168.04 129.489ZM129.827 129.862C123.162 129.862 119.039 136.219 119.039 146.755C119.039 157.056 123.098 163.29 129.947 163.29C136.605 163.29 140.784 156.812 140.784 146.641C140.784 136.341 136.547 129.862 129.827 129.862ZM90.0612 129.862C83.3987 129.862 79.2841 136.219 79.2841 146.755C79.2841 157.056 83.3327 163.29 90.1831 163.29C96.8476 163.29 101.026 156.812 101.026 146.641C101.026 136.341 96.7835 129.862 90.0612 129.862ZM95.5052 189.569C95.404 189.383 93.9114 186.297 93.7338 185.91C93.5686 185.568 93.1557 185.547 93.005 185.925C92.8337 186.346 91.3616 189.305 91.2625 189.518C91.0973 189.869 91.2832 190.098 91.6197 190.098H95.1397C95.3978 190.098 95.654 189.87 95.5054 189.57C95.4041 189.385 93.9115 186.298 93.734 185.912C93.5688 185.569 93.1559 185.549 93.0052 185.927C92.8338 186.348 91.3618 189.307 91.2627 189.519C91.0975 189.87 91.2833 190.099 91.6198 190.099H95.1399C95.398 190.099 95.654 189.87 95.5054 189.57M90.0612 129.862C83.3987 129.862 79.2841 136.219 79.2841 146.755C79.2841 157.056 83.3327 163.29 90.1831 163.29C96.8476 163.29 101.026 156.812 101.026 146.641C101.026 136.341 96.7835 129.862 90.0612 129.862ZM118.427 183.276H113.941C113.476 183.276 112.991 183.439 112.991 184.018V187.29C112.991 187.804 113.476 188.103 113.941 188.103H118.427C119.934 188.103 121.162 187.31 121.162 185.69C121.162 184.069 119.934 183.276 118.427 183.276ZM129.827 129.862C123.162 129.862 119.039 136.219 119.039 146.755C119.039 157.056 123.098 163.29 129.947 163.29C136.605 163.29 140.784 156.812 140.784 146.641C140.784 136.341 136.547 129.862 129.827 129.862ZM168.04 129.489C168.04 129.489 166.66 129.583 165.983 129.69C163.367 130.111 162.589 130.819 162.589 134.04V159.446C162.589 162.911 164.746 163.117 167.79 163.288C175.218 163.709 179.533 157.111 179.533 146.44C179.533 135.762 175.247 129.489 168.04 129.489C168.04 129.489 166.66 129.583 165.983 129.69C163.367 130.111 162.589 130.819 162.589 134.04V159.446C162.589 162.911 164.746 163.117 167.79 163.288C175.218 163.709 179.533 157.111 179.533 146.44C179.533 135.762 175.248 129.491 168.041 129.491M129.827 129.862C123.162 129.862 119.039 136.219 119.039 146.755C119.039 157.056 123.098 163.29 129.947 163.29C136.605 163.29 140.784 156.812 140.784 146.641C140.784 136.341 136.547 129.862 129.827 129.862ZM90.0612 129.862C83.3987 129.862 79.2841 136.219 79.2841 146.755C79.2841 157.056 83.3327 163.29 90.1831 163.29C96.8476 163.29 101.026 156.812 101.026 146.641C101.026 136.341 96.7835 129.862 90.0612 129.862ZM118.427 183.276H113.941C113.476 183.276 112.991 183.439 112.991 184.018V187.29C112.991 187.804 113.476 188.103 113.941 188.103H118.427C119.934 188.103 121.162 187.31 121.162 185.69C121.162 184.069 119.934 183.276 118.427 183.276ZM95.5054 189.57C95.4041 189.385 93.9115 186.298 93.734 185.912C93.5688 185.569 93.1559 185.549 93.0052 185.927C92.8338 186.348 91.3618 189.307 91.2627 189.519C91.0975 189.87 91.2833 190.099 91.6198 190.099H95.1399C95.398 190.099 95.654 189.87 95.5054 189.57C95.4041 189.385 93.9115 186.298 93.734 185.912C93.5688 185.569 93.1559 185.549 93.0052 185.927C92.8338 186.348 91.3618 189.307 91.2627 189.519C91.0975 189.87 91.2833 190.099 91.6198 190.099H95.1399C95.398 190.099 95.654 189.87 95.5054 189.57ZM90.0612 129.862C83.3987 129.862 79.2841 136.219 79.2841 146.755C79.2841 157.056 83.3327 163.29 90.1831 163.29C96.8476 163.29 101.026 156.812 101.026 146.641C101.026 136.341 96.7835 129.862 90.0612 129.862ZM118.427 183.276H113.941C113.476 183.276 112.991 183.439 112.991 184.018V187.29C112.991 187.804 113.476 188.103 113.941 188.103H118.427C119.934 188.103 121.162 187.31 121.162 185.69C121.162 184.069 119.934 183.276 118.427 183.276ZM129.827 129.862C123.162 129.862 119.039 136.219 119.039 146.755C119.039 157.056 123.098 163.29 129.947 163.29C136.605 163.29 140.784 156.812 140.784 146.641C140.784 136.341 136.547 129.862 129.827 129.862ZM168.041 129.491C168.041 129.491 166.662 129.583 165.985 129.69C163.369 130.111 162.591 130.82 162.591 134.04V159.446C162.591 162.911 164.748 163.117 167.791 163.289C175.22 163.71 179.535 157.111 179.535 146.44C179.535 135.762 175.248 129.491 168.041 129.491C168.041 129.491 166.662 129.583 165.985 129.69C163.369 130.111 162.591 130.82 162.591 134.04V159.446C162.591 162.911 164.748 163.117 167.791 163.289C175.22 163.71 179.535 157.111 179.535 146.44C179.535 135.762 175.248 129.491 168.041 129.491ZM129.828 129.862C123.164 129.862 119.041 136.219 119.041 146.756C119.041 157.056 123.1 163.291 129.948 163.291C136.607 163.291 140.785 156.812 140.785 146.642C140.785 136.342 136.549 129.862 129.828 129.862ZM90.0629 129.862C83.4004 129.862 79.2858 136.219 79.2858 146.756C79.2858 157.056 83.3343 163.291 90.1848 163.291C96.8493 163.291 101.028 156.812 101.028 146.642C101.028 136.342 96.7852 129.862 90.0629 129.862ZM118.429 183.277H113.942C113.478 183.277 112.993 183.44 112.993 184.019V187.291C112.993 187.805 113.478 188.104 113.942 188.104H118.429C119.936 188.104 121.164 187.312 121.164 185.691C121.164 184.07 119.936 183.277 118.429 183.277ZM95.5054 189.57C95.4041 189.385 93.9115 186.298 93.734 185.912C93.5688 185.569 93.1559 185.549 93.0052 185.927C92.8338 186.348 91.3618 189.307 91.2627 189.519C91.0975 189.87 91.2833 190.099 91.6198 190.099H95.1399C95.398 190.099 95.654 189.87 95.5054 189.57ZM218.977 166.419C218.977 165.998 218.556 165.897 218.141 165.897H217.571V166.933H217.999C218.521 166.933 218.977 166.905 218.977 166.419ZM218.977 169.004L217.92 167.511H217.563V169.004H216.933V165.319H218.319C219.184 165.319 219.576 165.662 219.576 166.419C219.576 167.154 219.169 167.439 218.635 167.497L219.704 169.004L218.977 169.004ZM218.127 164.718C216.704 164.718 215.647 165.783 215.647 167.253C215.647 168.725 216.704 169.782 218.127 169.782C219.555 169.782 220.604 168.725 220.604 167.253C220.604 165.783 219.555 164.718 218.127 164.718ZM93.7262 185.911C93.5611 185.568 93.1481 185.547 92.9974 185.926C92.8261 186.347 91.354 189.305 91.2549 189.518C91.0898 189.869 91.2756 190.098 91.6121 190.098H95.1321C95.3902 190.098 95.6462 189.869 95.4976 189.57C95.3963 189.384 93.9038 186.297 93.7262 185.911ZM90.0532 129.862C83.3907 129.862 79.276 136.219 79.276 146.755C79.276 157.055 83.3246 163.29 90.1751 163.29C96.8396 163.29 101.018 156.811 101.018 146.641C101.018 136.341 96.7755 129.862 90.0532 129.862ZM118.419 183.277H113.933C113.468 183.277 112.983 183.44 112.983 184.018V187.29C112.983 187.804 113.468 188.104 113.933 188.104H118.419C119.926 188.104 121.154 187.311 121.154 185.69C121.154 184.069 119.926 183.277 118.419 183.277ZM129.82 129.862C123.155 129.862 119.032 136.219 119.032 146.755C119.032 157.055 123.091 163.29 129.939 163.29C136.598 163.29 140.776 156.811 140.776 146.641C140.776 136.341 136.54 129.862 129.82 129.862ZM179.527 146.441C179.527 135.763 175.24 129.492 168.033 129.492C168.033 129.492 166.654 129.584 165.977 129.692C163.361 130.113 162.583 130.821 162.583 134.042V159.448C162.583 162.912 164.74 163.119 167.783 163.29C175.212 163.711 179.527 157.113 179.527 146.441ZM221.347 117.042C221.105 118.155 220.412 118.563 219.19 118.563L217.641 118.57H193.86C191.819 118.57 191.125 118.163 191.125 116.813C191.125 115.921 191.819 115.184 192.632 115.184H193.861C194.282 115.184 194.705 114.812 194.833 114.406C195.019 113.912 195.068 113.613 195.068 111.978V84.8639C195.068 83.2927 195.019 82.9768 194.833 82.4855C194.705 81.9487 194.218 81.5853 193.861 81.5853H192.632C191.819 81.5853 191.075 80.7925 191.075 79.8923C191.075 78.5483 191.819 78.1127 193.86 78.1127H218.067C219.29 78.1127 219.975 78.5215 220.225 79.6343L221.082 83.8502C221.41 85.4069 220.861 86.2431 219.754 86.2431C219.168 86.2431 218.604 86.0923 218.195 85.2996C218.125 85.1779 217.875 84.7359 217.596 83.9927C217.004 82.4339 215.782 82.2419 212.959 82.2419H207.247C203.939 82.2419 203.568 82.6776 203.568 85.8984V93.0997C203.568 94.4561 203.76 95.0486 204.125 95.2923C204.404 95.4843 204.854 95.5276 206.59 95.5276H209.41C211.954 95.5276 212.317 95.3418 212.503 94.1278L212.547 93.7562C212.732 92.728 213.275 92.2429 214.19 92.2429C215.46 92.2429 215.883 92.9634 215.883 95.092V100.185C215.883 102.306 215.46 103.035 214.19 103.035C213.275 103.035 212.732 102.485 212.547 101.457L212.483 101.057C212.303 99.8427 211.94 99.6631 209.39 99.6631H206.59C204.854 99.6631 204.404 99.7065 204.125 99.8984C203.76 100.142 203.568 100.728 203.568 102.093V109.778C203.568 112.986 203.76 113.663 204.718 114.035C205.496 114.328 206.338 114.456 208.325 114.456L214.353 114.441C216.517 114.441 218.047 113.764 218.796 112.193C219.139 111.478 219.246 111.206 219.319 111.084C219.725 110.291 220.367 109.942 220.96 109.942C222.06 109.942 222.603 110.779 222.281 112.335L221.347 117.042ZM218.126 170.414C216.376 170.414 214.976 169 214.976 167.255C214.976 165.498 216.376 164.092 218.126 164.092C219.869 164.092 221.277 165.498 221.277 167.255C221.277 168.999 219.869 170.414 218.126 170.414ZM204.004 167.678C201.768 167.678 199.37 167.362 197.639 166.819C196.768 166.584 196.669 166.52 196.326 166.52C195.812 166.52 195.554 166.642 195.034 167.121C194.462 167.557 194.163 167.678 193.626 167.678C192.612 167.678 192.112 167.121 191.755 165.67L190.225 159.606C190.112 159.243 190.068 158.691 190.068 158.392C190.068 157.314 190.905 156.499 191.982 156.499C192.612 156.499 193.132 156.821 193.504 157.314L194.375 158.514C196.475 161.479 199.869 163.314 203.334 163.314C207.269 163.314 209.955 161.113 209.955 157.907C209.955 156.263 209.276 154.814 207.983 153.356C206.67 151.907 205.041 150.571 201.554 148.149C195.813 144.128 195.276 143.762 193.391 141.592C191.863 139.821 191.082 137.649 191.082 135.227C191.082 129.349 195.554 125.464 202.233 125.464C203.947 125.464 205.698 125.627 207.463 126.007C207.647 126.071 208.14 126.184 208.997 126.378C209.275 126.434 209.591 126.498 209.827 126.498C210.227 126.498 210.69 126.3 211.218 125.949C211.819 125.513 212.011 125.464 212.498 125.464C213.39 125.464 213.962 126.071 214.206 127.157L215.655 133.714C215.762 133.999 215.762 134.364 215.762 134.556C215.762 135.349 215.054 136.006 214.02 136.006C213.37 136.006 212.969 135.764 212.412 134.986C211.047 132.921 210.791 132.684 209.525 131.707C207.898 130.435 205.811 129.756 203.827 129.756C201.025 129.756 199.213 131.35 199.213 133.836C199.213 134.728 199.37 135.648 199.869 136.32C200.482 137.234 201.455 138.192 202.654 139.107C203.404 139.641 204.362 140.335 205.654 141.235C210.44 144.57 212.011 145.786 213.962 147.778C216.012 149.898 217.24 152.927 217.24 156.043C217.24 163.05 212.011 167.678 204.004 167.678ZM188.697 183.305H185.169C184.684 183.305 184.333 183.464 184.333 184.049L184.354 194.599C184.354 195.342 183.825 195.429 182.997 195.429C182.198 195.429 181.661 195.348 181.661 194.628V184.063C181.661 183.549 181.476 183.306 180.834 183.306H177.262C176.684 183.306 176.519 182.75 176.519 182.286C176.519 181.772 176.475 180.778 177.241 180.778H188.64C189.154 180.778 189.496 181.063 189.496 182.007C189.496 182.843 189.276 183.305 188.697 183.305ZM159.382 186.57H164.418C165.025 186.57 165.184 187.1 165.184 187.87C165.184 188.541 165.039 189.128 164.475 189.128H159.454C159.054 189.128 158.69 189.406 158.69 189.871V192.006C158.69 192.52 158.969 192.763 159.382 192.763H168.018C168.59 192.763 168.79 193.141 168.79 194.085C168.79 194.764 168.634 195.321 168.027 195.321H156.905C156.26 195.321 155.996 195.014 155.996 194.25V181.72C155.996 181.15 156.225 180.75 156.89 180.75H168.047C168.712 180.75 168.832 181.191 168.832 181.984C168.832 182.721 168.733 183.306 168.012 183.306H159.289C158.94 183.306 158.69 183.578 158.69 183.956V185.928C158.69 186.343 158.99 186.57 159.382 186.57ZM150.219 164.892C150.219 163.977 150.826 163.207 151.661 163.207H152.897C153.312 163.207 153.725 162.885 153.925 162.414C154.047 161.978 154.111 161.613 154.111 160.027V133.036C154.111 131.456 154.047 131.087 153.925 130.649C153.725 130.187 153.312 129.856 152.897 129.856H151.661C150.826 129.856 150.219 129.086 150.219 128.172C150.219 126.85 151.132 126.664 152.897 126.4C154.669 126.142 159.611 125.465 167.176 125.465C174.732 125.465 179.425 127.106 183.139 130.864C186.705 134.444 188.639 139.956 188.639 146.507C188.639 153.843 186.168 159.906 181.669 163.486C178.176 166.315 173.791 167.601 167.176 167.601C159.611 167.601 154.669 166.922 152.897 166.664C151.132 166.408 150.219 166.221 150.219 164.892ZM129.754 167.657C119.976 167.657 112.976 162.136 110.726 153.236C110.698 153.172 110.677 153.108 110.662 153.036C110.462 152.036 109.562 151.964 109.347 153.029C109.347 153.064 109.318 153.099 109.304 153.136C107.033 162.165 99.9968 167.657 89.9893 167.657C77.9962 167.657 70.1891 159.357 70.1891 146.699C70.1891 133.743 77.9395 125.499 90.1099 125.499C100.102 125.499 107.211 131.072 109.388 140.156C109.617 141.199 110.503 141.12 110.695 140.129C110.695 140.114 110.695 140.1 110.716 140.092C112.937 131.006 119.93 125.499 129.878 125.499C141.993 125.499 149.864 133.677 149.864 146.4C149.864 159.357 142.051 167.657 129.756 167.657M146.544 195.436C145.315 195.436 144.979 195.244 144.665 194.864L140.001 189.886C139.365 189.335 138.729 189.25 137.858 189.25C137.371 189.25 136.993 189.75 136.993 190.328V194.571C136.993 195.378 136.301 195.43 135.543 195.43C134.742 195.43 134.321 195.207 134.321 194.565V181.614C134.321 180.85 134.8 180.722 135.744 180.722C136.487 180.722 136.993 180.893 136.993 181.593V185.501C136.993 186.129 137.28 186.437 137.672 186.437C138.808 186.437 139.051 186.193 139.472 185.83C139.943 185.429 144.729 181.036 144.729 181.036C145.33 180.521 145.937 180.53 146.515 181.085C146.994 181.543 147.206 182.058 146.672 182.586C146.3 182.949 142.101 186.75 142.101 186.75C141.578 187.2 141.708 187.621 142.065 188.014C142.065 188.014 147.107 193.572 147.636 194.144C148.428 195.007 147.7 195.436 146.544 195.436ZM120.913 190.735C121.028 190.908 123.07 193.871 123.37 194.315C123.82 194.986 123.413 195.43 122.022 195.43C121.243 195.43 120.721 195.294 120.384 194.794L118.122 191.278C117.863 190.886 117.492 190.636 116.984 190.636H113.749C113.356 190.636 112.985 190.958 112.985 191.35L113.005 194.858C113.005 195.55 111.663 195.436 111.222 195.436C110.641 195.436 110.321 195.271 110.321 194.623L110.342 181.285C110.342 180.937 110.641 180.728 110.964 180.728H118.636C121.598 180.728 123.828 182.636 123.828 185.693C123.828 188.336 121.92 189.201 121.156 189.849C120.779 190.179 120.686 190.407 120.913 190.735ZM99.3503 195.436C98.9064 195.436 98.2354 195.364 98.0269 194.878L97.0855 192.929C96.9636 192.671 96.7138 192.465 96.4062 192.465H90.3983C90.0204 192.465 89.6777 192.75 89.463 193.287L88.6289 194.878C88.4431 195.343 87.5347 195.415 87.1135 195.415C86.7419 195.415 85.5217 195.372 85.9057 194.556L92.2853 181.322C92.4628 180.936 92.7994 180.643 93.4002 180.643C93.9989 180.643 94.3272 180.843 94.5274 181.271C94.5274 181.271 100.62 194.257 100.791 194.637C101.107 195.314 99.7921 195.436 99.3503 195.436ZM76.2567 195.436C75.885 195.436 75.1934 195.229 75.1934 194.742L74.1652 186.965C74.0992 186.643 73.9794 186.5 73.7213 186.5C73.5149 186.5 73.4075 186.599 73.2651 186.779L69.7718 191.251C69.5922 191.492 69.3568 191.643 69.0781 191.643C68.6796 191.643 68.5062 191.542 68.2791 191.207L65.0646 186.872C64.9222 186.692 64.7653 186.643 64.6001 186.643C64.3441 186.643 64.214 186.872 64.1789 187.171L63.1714 194.693C63.0784 195.314 62.3146 195.436 61.6849 195.436C61.2493 195.436 60.5081 195.229 60.5081 194.672L61.9863 181.993C62.1432 181.236 62.3063 180.8 63.4006 180.8C63.6793 180.8 64.1294 180.879 64.4783 181.422L68.4712 187.035C68.6859 187.343 68.9295 187.601 69.1938 187.593C69.4581 187.586 69.7285 187.314 69.9577 187.015L74.1714 181.285C74.4295 180.893 74.8218 180.728 75.2863 180.728C75.7921 180.728 76.1638 180.843 76.3785 181.694L77.8567 194.693C77.9291 195.436 76.7645 195.436 76.2567 195.436ZM51.1364 160.16C51.1364 161.795 51.1364 162.088 51.279 162.515C51.535 163 52.0862 163.316 52.5714 163.316H53.9423C54.892 163.316 55.5506 164.095 55.5506 165.009C55.5506 166.345 54.8073 166.766 52.5713 166.766H41.4143C39.3434 166.766 38.6147 166.345 38.6147 165.009C38.6147 164.095 39.3435 163.316 40.1776 163.316H41.4143C41.8272 163.316 42.236 163 42.4362 162.515C42.5642 162.088 42.6283 161.795 42.6283 160.16V133.042C42.6283 131.471 42.5787 131.158 42.3846 130.672C42.2566 130.136 41.7714 129.764 41.4143 129.764H40.1858C39.3703 129.764 38.6291 128.979 38.6291 128.073C38.6291 126.737 39.3703 126.302 41.4142 126.302H67.7005C68.9207 126.302 69.6145 126.708 69.8559 127.821L70.7148 132.037C71.0431 133.585 70.4918 134.43 69.3914 134.43C68.7989 134.43 68.2352 134.273 67.8285 133.48C67.7562 133.365 67.5147 132.914 67.2277 132.179C66.6352 130.623 65.4129 130.422 62.5928 130.422H54.8072C51.4936 130.422 51.122 130.864 51.122 134.079V141.286C51.122 142.643 51.314 143.229 51.6856 143.479C51.9643 143.673 52.4061 143.714 54.1507 143.714H59.1635C61.7071 143.714 62.0705 143.529 62.2563 142.315L62.2997 141.937C62.4855 140.909 63.0285 140.421 63.9349 140.421C65.2149 140.421 65.6361 141.15 65.6361 143.273V148.372C65.6361 150.494 65.2149 151.221 63.9349 151.221C63.0285 151.221 62.4855 150.672 62.2997 149.644L62.2356 149.243C62.0559 148.029 61.6926 147.843 59.1428 147.843H54.1506C52.4061 147.843 51.9641 147.887 51.6855 148.079C51.3139 148.329 51.1219 148.915 51.1219 150.28L51.1425 160.159L51.1364 160.16ZM31.1776 84.4867C30.2713 81.9947 29.9843 81.6954 28.0415 81.2742C26.749 81.0368 26.3485 80.6156 26.3485 79.637C26.3485 78.6088 26.9926 78.0658 28.3842 78.0658H40.9058C42.285 78.0658 42.8981 78.6088 42.8981 79.701C42.8981 80.723 42.2849 81.1379 40.7137 81.2742C39.3779 81.3939 38.8349 81.8234 38.8349 82.7875C38.8349 83.2025 38.8845 83.6382 39.0559 84.1378L39.5348 85.5231C39.5348 85.5231 46.2282 104.481 47.2853 107.53C47.4629 108.017 48.0141 107.994 48.1999 107.452C49.3767 104.074 52.5768 94.7812 52.6925 94.4033C53.0207 93.3318 53.1632 92.2025 52.777 90.9659C52.6427 90.5302 50.5927 84.4872 50.5927 84.4872C50.3635 83.8307 50.2273 83.3455 50.091 83.0957C49.7338 82.21 49.2424 81.8879 47.8427 81.5163C46.5916 81.2086 46.1126 80.7957 46.1126 79.8955C46.1126 78.7311 46.8125 78.0663 48.2268 78.0663H60.127C61.5062 78.0663 62.1771 78.6093 62.1771 79.7015C62.1771 80.6656 61.5639 81.1384 60.2136 81.3304C58.5991 81.5163 58.1635 81.8879 58.1635 82.9738C58.1635 83.523 58.2853 84.066 58.785 85.5237C58.785 85.5237 64.6567 104.103 65.5857 107.025C65.7633 107.574 66.2856 107.453 66.4343 106.967C67.3489 103.996 73.1566 84.4881 73.1566 84.4881C73.3279 83.8811 73.3919 83.3959 73.3919 83.0326C73.3919 82.1241 72.7416 81.639 71.2695 81.4532C69.9337 81.3313 69.3206 80.7244 69.3206 79.7602C69.3206 78.5462 70.0143 78.0672 71.6266 78.0672H92.6425C94.643 78.0672 95.3058 78.474 95.3058 79.8035C95.3058 80.7965 94.643 81.5171 93.8069 81.5171H92.6425C92.1428 81.5171 91.67 81.8887 91.4842 82.2892C91.3706 82.7393 91.3212 83.1605 91.3212 84.6739V92.4965C91.3212 95.2961 91.5628 95.5315 93.807 95.5315H102.043C103.248 95.5315 103.872 95.3395 104.177 94.9885C104.456 94.6169 104.456 94.3815 104.456 92.1311V84.6738C104.456 83.0965 104.456 82.7394 104.307 82.2891C104.093 81.8246 103.614 81.517 103.199 81.517H102.043C101.128 81.517 100.393 80.7965 100.393 79.8034C100.393 78.4738 101.128 78.0672 103.199 78.0672H114.222C116.284 78.0672 117.021 78.4739 117.021 79.8034C117.021 80.7965 116.284 81.517 115.456 81.517H114.222C113.807 81.517 113.322 81.8886 113.191 82.2891C113.02 82.7392 112.979 83.1604 112.979 84.6738V111.903C112.979 113.481 113.02 113.838 113.191 114.331C113.322 114.752 113.807 115.054 114.222 115.054H115.456C116.356 115.054 117.021 115.847 117.021 116.745C117.021 118.089 116.356 118.504 114.222 118.504H103.199C101.128 118.504 100.472 118.089 100.472 116.745C100.472 115.847 101.207 115.054 102.043 115.054H103.199C103.614 115.054 104.093 114.752 104.308 114.331C104.456 113.838 104.456 113.481 104.456 111.903V103.052C104.456 100.802 104.456 100.567 104.177 100.203C103.872 99.846 103.248 99.6519 102.043 99.6519H93.8071C91.5628 99.6519 91.3214 99.8893 91.3214 102.689V111.903C91.3214 113.481 91.3709 113.838 91.4844 114.331C91.6702 114.752 92.143 115.054 92.6426 115.054H93.8071C94.6432 115.054 95.2646 115.847 95.2646 116.817C95.2646 118.089 94.5709 118.504 92.6426 118.504H81.593C79.5573 118.504 78.8201 118.089 78.8201 116.745C78.8201 115.847 79.5572 115.054 80.3913 115.054H81.5929C82.0202 115.054 82.5199 114.752 82.6355 114.331C82.8213 113.838 82.8213 113.524 82.8213 111.903V84.6737C82.8213 81.581 81.3699 81.3745 80.3066 81.5171C79.2351 81.6679 78.6074 82.347 77.9489 84.4881L68.2846 115.604C67.4134 118.569 66.5917 119.417 64.779 119.417C62.9704 119.417 62.0496 118.633 61.3207 116.388C61.3207 116.388 56.3285 101.461 56.1634 100.968C55.992 100.475 55.4779 100.46 55.3355 100.933C55.1992 101.41 49.8271 116.388 49.8271 116.388C49.2429 117.84 49.0921 118.261 48.5987 118.754C48.1218 119.112 47.3269 119.417 46.5341 119.417C44.7771 119.417 43.9142 118.688 43.078 116.388L31.1776 84.4867ZM111.657 66.13C113.684 58.6004 121.005 51.0007 129.099 53.3233C135.963 55.2806 135.478 60.9521 140.47 62.7296C142.262 63.3655 142.12 65.1658 140.557 65.4651C137.921 65.9647 134.363 64.0508 131.706 61.6434C128.599 58.8232 123.549 58.9449 121.084 60.8217C120.006 61.6434 120.555 62.4301 121.542 62.2091C123.828 61.7157 127.699 61.5877 130.678 64.9303C133.605 68.2151 139.062 71.1508 143.891 68.0004C145.221 67.1374 146.084 65.3514 147.434 65.7376C148.877 66.1443 148.898 68.244 147.007 70.6863C142.541 76.4444 137.964 75.7589 133.056 80.5653C128.155 85.3717 127.164 90.8367 127.164 97.779C127.164 108.544 131.399 115.064 138.556 115.064C145.52 115.064 149.891 108.294 149.891 97.6518C149.891 88.8795 147.814 83.208 142.605 81.2075C140.084 80.2722 140.514 77.8092 143.763 77.4232C146.441 77.1094 149.063 78.0219 151.941 80.1443C156.906 83.8008 159.384 89.6146 159.384 97.4026C159.384 110.953 151.22 119.624 138.371 119.624C125.829 119.624 117.663 110.953 117.663 97.7164C117.663 89.202 120.863 82.6449 126.398 78.9452C128.712 77.2151 132.627 75.2226 136.463 73.9241C137.256 73.6516 137.25 72.2435 135.842 72.5161C134.163 72.8526 131.076 73.0941 128.527 72.066C122.806 69.8095 121.142 65.7731 114.407 68.6655C112.377 69.5368 111.071 68.302 111.657 66.13ZM162.842 78.1151H174.042C176.227 78.1151 176.97 78.5507 176.97 79.8947C176.97 80.8589 176.227 81.5877 175.364 81.5877H174.042C173.485 81.5877 172.942 81.8871 172.771 82.3805C172.591 82.7872 172.591 83.1588 172.591 84.7382V110.2C172.591 112.866 172.707 113.487 173.421 113.9C174.042 114.33 174.969 114.443 177.406 114.443H180.82C182.984 114.443 184.514 113.766 185.263 112.195C185.606 111.472 185.713 111.208 185.784 111.086C186.192 110.293 186.835 109.936 187.421 109.936C188.527 109.936 189.07 110.781 188.748 112.337L187.813 117.045C187.57 118.157 186.878 118.566 185.656 118.566H162.843C160.822 118.566 160.157 118.166 160.157 116.815C160.157 115.924 160.822 115.187 161.67 115.187H162.843C163.243 115.187 163.735 114.815 163.857 114.408C164.036 113.958 164.092 113.665 164.092 112.152V84.7373C164.092 83.1 164.036 82.8585 163.857 82.3795C163.735 81.8861 163.243 81.5867 162.843 81.5867H161.67C160.758 81.5867 160.021 80.8579 160.021 79.8937C160.021 78.5497 160.757 78.1151 162.842 78.1151ZM125 0C55.9635 0 0 55.9652 0 125C0 194.036 55.9652 250 125 250C194.045 250 250 194.035 250 125C250 55.9635 194.043 0 125 0ZM218.972 166.422C218.972 166.001 218.551 165.9 218.136 165.9H217.566V166.936H217.993C218.515 166.936 218.972 166.907 218.972 166.422ZM218.972 169.007L217.915 167.514H217.558V169.007H216.928V165.322H218.313C219.178 165.322 219.57 165.665 219.57 166.422C219.57 167.157 219.164 167.442 218.629 167.5L219.698 169.007L218.972 169.007ZM218.121 164.721C216.699 164.721 215.642 165.786 215.642 167.256C215.642 168.728 216.699 169.785 218.121 169.785C219.55 169.785 220.599 168.728 220.599 167.256C220.599 165.786 219.55 164.721 218.121 164.721ZM95.4929 189.572C95.3919 189.386 93.8991 186.3 93.7215 185.914C93.5564 185.571 93.1434 185.55 92.9927 185.928C92.8214 186.35 91.3493 189.308 91.2502 189.521C91.085 189.872 91.2709 190.101 91.6074 190.101H95.1274C95.3855 190.101 95.6416 189.871 95.4929 189.572ZM118.415 183.28H113.928C113.464 183.28 112.979 183.443 112.979 184.021V187.293C112.979 187.807 113.464 188.107 113.928 188.107H118.415C119.922 188.107 121.15 187.314 121.15 185.693C121.15 184.072 119.922 183.28 118.415 183.28ZM90.049 129.865C83.3865 129.865 79.2718 136.222 79.2718 146.758C79.2718 157.058 83.3204 163.293 90.1709 163.293C96.8353 163.293 101.014 156.814 101.014 146.644C101.014 136.344 96.7713 129.865 90.049 129.865ZM129.815 129.865C123.15 129.865 119.027 136.222 119.027 146.758C119.027 157.058 123.086 163.293 129.934 163.293C136.593 163.293 140.771 156.814 140.771 146.644C140.771 136.344 136.535 129.865 129.815 129.865ZM168.028 129.493C168.028 129.493 166.648 129.586 165.971 129.693C163.355 130.114 162.577 130.823 162.577 134.043V159.449C162.577 162.914 164.734 163.12 167.778 163.292C175.206 163.713 179.521 157.114 179.521 146.443C179.521 135.765 175.235 129.493 168.028 129.493ZM218.964 166.423C218.964 166.002 218.542 165.901 218.127 165.901H217.558V166.937H217.985C218.507 166.937 218.964 166.908 218.964 166.423ZM218.964 169.008L217.907 167.515H217.549V169.008H216.92V165.323H218.305C219.17 165.323 219.562 165.665 219.562 166.423C219.562 167.158 219.156 167.443 218.621 167.501L219.69 169.008L218.964 169.008ZM218.113 164.722C216.69 164.722 215.633 165.787 215.633 167.257C215.633 168.729 216.691 169.786 218.113 169.786C219.542 169.786 220.59 168.729 220.59 167.257C220.59 165.787 219.542 164.722 218.113 164.722ZM168.019 129.493C168.019 129.493 166.64 129.586 165.963 129.694C163.347 130.115 162.569 130.823 162.569 134.044V159.45C162.569 162.914 164.726 163.121 167.77 163.292C175.198 163.713 179.513 157.115 179.513 146.443C179.513 135.765 175.227 129.493 168.019 129.493ZM129.807 129.866C123.142 129.866 119.019 136.222 119.019 146.759C119.019 157.059 123.078 163.294 129.927 163.294C136.585 163.294 140.763 156.815 140.763 146.645C140.763 136.345 136.527 129.866 129.807 129.866ZM118.406 183.28H113.92C113.455 183.28 112.97 183.444 112.97 184.022V187.294C112.97 187.808 113.455 188.107 113.92 188.107H118.406C119.913 188.107 121.141 187.315 121.141 185.694C121.141 184.073 119.913 183.28 118.406 183.28ZM90.0402 129.866C83.3777 129.866 79.2631 136.223 79.2631 146.759C79.2631 157.059 83.3116 163.294 90.1621 163.294C96.8266 163.294 101.005 156.815 101.005 146.645C101.005 136.345 96.7625 129.866 90.0402 129.866ZM95.4844 189.573C95.3834 189.388 93.8906 186.301 93.713 185.915C93.5479 185.572 93.1349 185.552 92.9842 185.93C92.8129 186.351 91.3408 189.309 91.2417 189.522C91.0765 189.873 91.2624 190.102 91.5989 190.102H95.1189C95.377 190.102 95.6331 189.873 95.4844 189.573C95.3834 189.388 93.8906 186.301 93.713 185.915C93.5479 185.572 93.1349 185.552 92.9842 185.93C92.8129 186.351 91.3408 189.309 91.2417 189.522C91.0765 189.873 91.2624 190.102 91.5989 190.102H95.1189C95.377 190.102 95.6331 189.873 95.4844 189.573ZM118.406 183.28H113.92C113.455 183.28 112.97 183.444 112.97 184.022V187.294C112.97 187.808 113.455 188.107 113.92 188.107H118.406C119.913 188.107 121.141 187.315 121.141 185.694C121.141 184.073 119.913 183.28 118.406 183.28ZM90.0402 129.866C83.3777 129.866 79.2631 136.223 79.2631 146.759C79.2631 157.059 83.3116 163.294 90.1621 163.294C96.8266 163.294 101.005 156.815 101.005 146.645C101.005 136.345 96.7625 129.866 90.0402 129.866ZM129.807 129.866C123.142 129.866 119.019 136.222 119.019 146.759C119.019 157.059 123.078 163.294 129.927 163.294C136.585 163.294 140.763 156.815 140.763 146.645C140.763 136.345 136.527 129.866 129.807 129.866ZM168.019 129.493C168.019 129.493 166.64 129.586 165.963 129.694C163.347 130.115 162.569 130.823 162.569 134.044V159.45C162.569 162.914 164.726 163.121 167.77 163.292C175.198 163.713 179.513 157.115 179.513 146.443C179.513 135.765 175.227 129.493 168.019 129.493C168.019 129.493 166.64 129.586 165.963 129.694C163.347 130.115 162.569 130.823 162.569 134.044V159.45C162.569 162.914 164.726 163.121 167.77 163.292C175.198 163.713 179.513 157.115 179.513 146.443C179.513 135.765 175.227 129.493 168.019 129.493ZM129.807 129.866C123.142 129.866 119.019 136.222 119.019 146.759C119.019 157.059 123.078 163.294 129.927 163.294C136.585 163.294 140.763 156.815 140.763 146.645C140.763 136.345 136.527 129.866 129.807 129.866ZM118.406 183.28H113.92C113.455 183.28 112.97 183.444 112.97 184.022V187.294C112.97 187.808 113.455 188.107 113.92 188.107H118.406C119.913 188.107 121.141 187.315 121.141 185.694C121.141 184.073 119.913 183.28 118.406 183.28ZM90.0402 129.866C83.3777 129.866 79.2631 136.223 79.2631 146.759C79.2631 157.059 83.3116 163.294 90.1621 163.294C96.8266 163.294 101.005 156.815 101.005 146.645C101.005 136.345 96.7625 129.866 90.0402 129.866ZM95.4844 189.573C95.3834 189.388 93.8906 186.301 93.713 185.915C93.5479 185.572 93.1349 185.552 92.9842 185.93C92.8129 186.351 91.3408 189.309 91.2417 189.522C91.0765 189.873 91.2624 190.102 91.5989 190.102H95.1189C95.377 190.102 95.6331 189.873 95.4844 189.573C95.3834 189.388 93.8906 186.301 93.713 185.915C93.5479 185.572 93.1349 185.552 92.9842 185.93C92.8129 186.351 91.3408 189.309 91.2417 189.522C91.0765 189.873 91.2624 190.102 91.5989 190.102H95.1189C95.377 190.102 95.6331 189.873 95.4844 189.573ZM118.406 183.28H113.92C113.455 183.28 112.97 183.444 112.97 184.022V187.294C112.97 187.808 113.455 188.107 113.92 188.107H118.406C119.913 188.107 121.141 187.315 121.141 185.694C121.141 184.073 119.913 183.28 118.406 183.28ZM90.0402 129.866C83.3777 129.866 79.2631 136.223 79.2631 146.759C79.2631 157.059 83.3116 163.294 90.1621 163.294C96.8266 163.294 101.005 156.815 101.005 146.645C101.005 136.345 96.7625 129.866 90.0402 129.866ZM129.807 129.866C123.142 129.866 119.019 136.222 119.019 146.759C119.019 157.059 123.078 163.294 129.927 163.294C136.585 163.294 140.763 156.815 140.763 146.645C140.763 136.345 136.527 129.866 129.807 129.866ZM168.019 129.493C168.019 129.493 166.64 129.586 165.963 129.694C163.347 130.115 162.569 130.823 162.569 134.044V159.45C162.569 162.914 164.726 163.121 167.77 163.292C175.198 163.713 179.513 157.115 179.513 146.443C179.513 135.765 175.227 129.493 168.019 129.493C168.019 129.493 166.64 129.586 165.963 129.694C163.347 130.115 162.569 130.823 162.569 134.044V159.45C162.569 162.914 164.726 163.121 167.77 163.292C175.198 163.713 179.513 157.115 179.513 146.443C179.513 135.765 175.227 129.493 168.019 129.493ZM129.807 129.866C123.142 129.866 119.019 136.222 119.019 146.759C119.019 157.059 123.078 163.294 129.927 163.294C136.585 163.294 140.763 156.815 140.763 146.645C140.763 136.345 136.527 129.866 129.807 129.866ZM118.406 183.28H113.92C113.455 183.28 112.97 183.444 112.97 184.022V187.294C112.97 187.808 113.455 188.107 113.92 188.107H118.406C119.913 188.107 121.141 187.315 121.141 185.694C121.141 184.073 119.913 183.28 118.406 183.28ZM90.0402 129.866C83.3777 129.866 79.2631 136.223 79.2631 146.759C79.2631 157.059 83.3116 163.294 90.1621 163.294C96.8266 163.294 101.005 156.815 101.005 146.645C101.005 136.345 96.7625 129.866 90.0402 129.866ZM95.4844 189.573C95.3834 189.388 93.8906 186.301 93.713 185.915C93.5479 185.572 93.1349 185.552 92.9842 185.93C92.8129 186.351 91.3408 189.309 91.2417 189.522C91.0765 189.873 91.2624 190.102 91.5989 190.102H95.1189C95.377 190.102 95.6331 189.873 95.4844 189.573ZM90.0402 129.866C83.3777 129.866 79.2631 136.223 79.2631 146.759C79.2631 157.059 83.3116 163.294 90.1621 163.294C96.8266 163.294 101.005 156.815 101.005 146.645C101.005 136.345 96.7625 129.866 90.0402 129.866ZM129.805 129.866C123.141 129.866 119.018 136.223 119.018 146.76C119.018 157.06 123.077 163.294 129.925 163.294C136.583 163.294 140.762 156.816 140.762 146.646C140.762 136.345 136.525 129.866 129.805 129.866ZM168.018 129.495C168.018 129.495 166.639 129.588 165.962 129.695C163.346 130.116 162.568 130.824 162.568 134.045V159.451C162.568 162.915 164.725 163.122 167.768 163.293C175.197 163.714 179.512 157.116 179.512 146.445C179.512 135.767 175.225 129.495 168.018 129.495C168.018 129.495 166.639 129.588 165.962 129.695C163.346 130.116 162.568 130.824 162.568 134.045V159.451C162.568 162.915 164.725 163.122 167.768 163.293C175.197 163.714 179.512 157.116 179.512 146.445C179.512 135.767 175.225 129.495 168.018 129.495ZM129.805 129.866C123.141 129.866 119.018 136.223 119.018 146.76C119.018 157.06 123.077 163.294 129.925 163.294C136.583 163.294 140.762 156.816 140.762 146.646C140.762 136.345 136.525 129.866 129.805 129.866ZM90.0402 129.866C83.3777 129.866 79.2631 136.223 79.2631 146.759C79.2631 157.059 83.3116 163.294 90.1621 163.294C96.8266 163.294 101.005 156.815 101.005 146.645C101.005 136.345 96.7625 129.866 90.0402 129.866C83.3777 129.866 79.2631 136.223 79.2631 146.759C79.2631 157.059 83.3116 163.294 90.1621 163.294C96.8266 163.294 101.005 156.815 101.005 146.645C101.005 136.345 96.7625 129.866 90.0402 129.866ZM129.805 129.866C123.141 129.866 119.018 136.223 119.018 146.76C119.018 157.06 123.077 163.294 129.925 163.294C136.583 163.294 140.762 156.816 140.762 146.646C140.762 136.345 136.525 129.866 129.805 129.866ZM168.018 129.495C168.018 129.495 166.639 129.588 165.962 129.695C163.346 130.116 162.568 130.824 162.568 134.045V159.451C162.568 162.915 164.725 163.122 167.768 163.293C175.197 163.714 179.512 157.116 179.512 146.445C179.512 135.767 175.225 129.495 168.018 129.495C168.018 129.495 166.639 129.588 165.962 129.695C163.346 130.116 162.568 130.824 162.568 134.045V159.451C162.568 162.915 164.725 163.122 167.768 163.293C175.197 163.714 179.512 157.116 179.512 146.445C179.512 135.767 175.226 129.496 168.019 129.496M129.806 129.868C123.141 129.868 119.018 136.225 119.018 146.761C119.018 157.061 123.077 163.296 129.926 163.296C136.584 163.296 140.763 156.817 140.763 146.647C140.763 136.347 136.526 129.868 129.806 129.868ZM90.0401 129.868C83.3776 129.868 79.263 136.225 79.263 146.761C79.263 157.061 83.3116 163.296 90.162 163.296C96.8265 163.296 101.005 156.817 101.005 146.647C101.005 136.347 96.7624 129.868 90.0401 129.868Z" fill="black"/>
</svg>
