<svg width="118" height="23" viewBox="0 0 118 23" fill="none" xmlns="http://www.w3.org/2000/svg">
<path d="M98.2467 15.2307C98.4452 15.1538 98.6437 15.1025 98.8175 15C99.0904 14.8718 99.3386 14.7179 99.5867 14.5641C99.8597 14.3846 100.133 14.2307 100.406 14.0513C100.803 13.7692 101.175 13.4359 101.473 13.0513C101.622 12.8461 101.746 12.641 101.82 12.4102C101.87 12.2564 101.746 12.0513 101.572 12.0513C101.473 12.0513 101.349 12.0513 101.274 12.1025C100.902 12.2564 100.604 12.5384 100.282 12.7948C99.6116 13.3333 98.9912 13.923 98.47 14.641C98.3956 14.7436 98.2963 14.8461 98.1971 14.9487C98.1722 14.9743 98.1474 15.0513 98.1722 15.1025C98.1474 15.1282 98.1971 15.1538 98.2467 15.2307ZM93.209 6.33331C93.3083 6.51279 93.4572 6.56408 93.6309 6.53843C93.6805 6.53843 93.7302 6.51279 93.7798 6.48715C94.2265 6.30767 94.6732 6.15382 95.0702 5.84613C95.5914 5.641 95.9884 5.28202 96.3359 4.87177C96.3607 4.82049 96.4103 4.79485 96.4599 4.7692C96.8322 4.48715 97.1051 4.10254 97.3533 3.71792C97.5767 3.35895 97.7504 2.99997 97.8496 2.58972C97.8744 2.51279 97.8248 2.30767 97.7504 2.30767C97.6759 2.28202 97.5767 2.28202 97.527 2.30767C97.254 2.48715 97.0059 2.69228 96.7577 2.89741C96.584 3.02561 96.4351 3.17946 96.2614 3.30767C96.0877 3.46151 95.8892 3.61536 95.7155 3.79485C95.3432 4.12818 94.9958 4.43587 94.6484 4.79485C94.2265 5.2051 93.8046 5.641 93.4076 6.0769C93.3331 6.15382 93.2835 6.25638 93.209 6.33331ZM65.6385 20.0513C65.7129 20.0513 65.8122 20.0513 65.8866 20.0513C66.2341 20 66.5567 19.8718 66.8545 19.6923C67.2019 19.4872 67.5741 19.3077 67.8967 19.1025C68.1201 18.9487 68.3186 18.7692 68.5171 18.5897C68.666 18.4615 68.8149 18.3589 68.9638 18.2307C69.2616 18 69.5842 17.7692 69.8324 17.5128C69.9565 17.3846 70.1054 17.2564 70.3039 17.2051C70.5272 17.1282 70.6513 16.9743 70.7506 16.7692C70.9739 16.2307 71.2717 15.7436 71.6936 15.3333C71.8921 15.1282 71.9914 14.8718 72.1403 14.641C72.2892 14.4102 72.4877 14.2307 72.6614 14C72.6862 13.9487 72.711 13.8974 72.7359 13.8461C72.7855 13.7692 72.711 13.5897 72.6118 13.5897C72.4877 13.5897 72.3388 13.5641 72.2147 13.5897C71.6688 13.7692 71.0732 13.923 70.6017 14.282C70.5024 14.3589 70.3783 14.4359 70.2543 14.4872C69.3609 14.9487 68.5668 15.5384 67.9216 16.3333C67.6734 16.6154 67.4004 16.8718 67.1523 17.1795C66.9041 17.4872 66.6808 17.8461 66.4326 18.1795C66.1596 18.5128 65.9859 18.923 65.7874 19.3077C65.6881 19.4872 65.6385 19.7179 65.5888 19.923C65.5392 19.9743 65.5889 20 65.6385 20.0513ZM86.7817 8.79484C86.2358 8.69228 85.6402 8.84613 85.0694 8.92305C84.8212 8.94869 84.6227 9.0769 84.449 9.28203C84.1016 9.74356 83.7542 10.2051 83.3571 10.6154C83.2578 10.7179 83.1834 10.8205 83.1089 10.9487C82.9104 11.282 82.6623 11.5641 82.4141 11.8718C82.2404 12.0769 82.0419 12.282 81.9178 12.5384C81.62 13.1282 81.2477 13.6666 80.9003 14.2307C80.5033 14.923 80.0566 15.5897 79.7588 16.3333C79.6595 16.5641 79.5602 16.7948 79.4114 16.9743C79.2376 17.2307 79.1136 17.4872 78.9895 17.7692C78.7661 18.2307 78.5676 18.7179 78.3691 19.2051C78.3691 19.2307 78.3691 19.2564 78.3443 19.282C78.3195 19.3333 78.3691 19.5128 78.4187 19.5128C78.4683 19.5128 78.518 19.5384 78.5676 19.5128C79.0887 19.2564 79.5851 19 79.9821 18.5897C80.5033 18.0256 81.1733 17.6666 81.7441 17.1538C81.7937 17.1025 81.8681 17.0769 81.9426 17.0256C82.1907 16.8461 82.4389 16.6923 82.6623 16.5128C82.9352 16.3077 83.1834 16.1025 83.4315 15.923C84.0271 15.4872 84.5234 14.9487 84.9701 14.3589C85.2431 13.9743 85.5409 13.641 85.8387 13.2564C85.9131 13.1538 86.0124 13.0513 86.062 12.9231C86.2357 12.641 86.4095 12.3589 86.5584 12.0769C86.7073 11.7692 86.9306 11.5384 87.1291 11.282C87.1539 11.2307 87.2036 11.2051 87.2284 11.1538C87.551 10.5128 88.0225 9.97433 88.3947 9.35895C88.4196 9.33331 88.4196 9.30767 88.4444 9.28203C88.5188 9.15382 88.4692 8.97433 88.3203 8.94869C87.8488 8.84613 87.3525 8.74356 86.7817 8.79484ZM105.816 13.5641C105.766 13.2051 105.716 12.8974 105.642 12.5897C105.567 12.2051 105.642 11.8718 105.84 11.5641C106.262 11 106.634 10.3846 107.106 9.84613C107.379 9.51279 107.702 9.2051 108.024 8.89741C108.372 8.56408 108.769 8.35895 109.215 8.23074C109.29 8.25638 109.364 8.28202 109.439 8.33331C110.109 8.66664 110.009 8.71792 110.158 9.33331C110.233 9.641 110.208 9.92305 110.084 10.2307C109.935 10.5897 109.861 10.9743 109.761 11.3333C109.761 11.3846 109.786 11.4359 109.786 11.4872C109.811 11.5384 109.91 11.5641 110.009 11.5384C110.084 11.5128 110.158 11.4872 110.233 11.4359C110.332 11.3846 110.407 11.3077 110.481 11.2307C110.779 11 111.101 10.7948 111.424 10.5897C111.573 10.4872 111.747 10.4102 111.92 10.3333C111.995 10.3077 112.094 10.3077 112.144 10.3333C112.491 10.4872 112.789 10.7179 113.087 10.9743C113.335 11.2051 113.409 11.5641 113.236 11.8718C113.111 12.0769 112.963 12.282 112.814 12.4872C112.466 12.8974 112.094 13.3077 111.722 13.7179C111.35 14.1282 110.977 14.5128 110.655 14.9487C110.382 15.3333 110.109 15.6923 109.836 16.0769C109.761 16.1795 109.712 16.3333 109.637 16.4359C109.464 16.7436 109.29 17.0513 109.066 17.3333C108.868 17.5641 108.744 17.8974 108.595 18.1795C108.347 18.6923 108.099 19.2307 107.875 19.7436C107.85 19.8205 107.85 19.8974 107.875 19.9743C107.875 20.0513 108.074 20.0513 108.173 20C108.198 20 108.223 19.9743 108.248 19.9743C108.297 19.9487 108.347 19.923 108.396 19.8974C108.868 19.6154 109.339 19.3589 109.786 19.0769C109.935 18.9743 110.109 18.8718 110.258 18.7692C110.357 18.7179 110.407 18.6154 110.506 18.5641C110.928 18.3846 111.25 18.0513 111.573 17.7179C111.697 17.5897 111.796 17.4615 111.92 17.3846C112.367 17.0769 112.739 16.6666 113.111 16.282C113.335 16.0769 113.583 15.8974 113.806 15.7179C114.03 15.5128 114.228 15.282 114.452 15.1025C115.146 14.4872 115.965 14.0513 116.759 13.6154C116.834 13.5897 116.933 13.5641 116.983 13.5897C117.256 13.7692 117.554 13.923 117.752 14.1795C117.802 14.2307 117.851 14.3077 117.901 14.3846C118.025 14.5897 118.05 14.7948 117.951 15C117.802 15.3333 117.578 15.5897 117.256 15.7692C116.784 16 116.387 16.3077 116.04 16.6923C115.916 16.8205 115.767 16.9487 115.618 17.0769C115.345 17.3077 115.097 17.5641 114.849 17.7948C114.228 18.3589 113.633 18.9487 113.012 19.5128C112.69 19.7948 112.317 20.0256 111.945 20.2564C111.25 20.6666 110.531 21.0513 109.836 21.4359C109.588 21.5897 109.29 21.6923 109.042 21.8205C108.694 22 108.347 21.9743 108.024 21.8461C107.702 21.7179 107.379 21.5384 107.081 21.3846C106.709 21.1795 106.461 20.8718 106.337 20.4615C106.138 19.7948 106.113 19.1538 106.461 18.5384C106.634 18.2051 106.833 17.8718 107.007 17.5384C107.18 17.2051 107.379 16.8718 107.553 16.5128C107.85 15.923 108.173 15.3589 108.545 14.8205C108.595 14.7436 108.645 14.6923 108.669 14.6154C108.744 14.4872 108.744 14.3077 108.645 14.2307C108.545 14.1538 108.446 14.1538 108.347 14.2051C108.148 14.282 107.95 14.3846 107.801 14.5384C107.702 14.6666 107.577 14.7948 107.453 14.8718C107.18 15.0513 106.957 15.3077 106.759 15.5384C106.486 15.8718 106.163 16.1795 105.791 16.3846C105.592 16.4872 105.443 16.641 105.319 16.8205C105.27 16.8974 105.17 16.9743 105.096 17.0513C104.475 17.4872 103.88 17.9487 103.284 18.4359C103.111 18.5897 102.887 18.7179 102.689 18.8718C102.589 18.923 102.49 18.9743 102.416 19.0513C101.87 19.5128 101.225 19.7692 100.579 20.0256C100.356 20.1025 100.133 20.1795 99.8845 20.2564C99.6116 20.3333 99.3882 20.4359 99.1401 20.5641C98.6189 20.8718 98.073 21.0769 97.4774 21.1795C97.3533 21.2051 97.2044 21.2307 97.0803 21.2307C96.7081 21.2307 96.3359 21.2564 95.9636 21.3333C95.6162 21.4102 95.2688 21.3589 94.9462 21.2307C94.6484 21.1025 94.3754 20.923 94.2017 20.641C94.1769 20.6154 94.1769 20.5897 94.152 20.5641C93.7798 19.9487 93.7054 20.0256 93.209 20.3077C92.9361 20.4615 92.6383 20.6154 92.3901 20.8205C92.0179 21.0769 91.6456 21.3333 91.1989 21.5128C91.0501 21.5641 90.926 21.6923 90.7771 21.7692C90.2808 22.0513 89.7844 22.282 89.2385 22.4615C88.9407 22.5641 88.6677 22.5641 88.3699 22.4615C87.824 22.3077 87.4021 22.0256 87.1788 21.4615C87.1539 21.4102 87.1291 21.3589 87.1043 21.3077C86.8313 20.7948 86.7817 20.282 87.005 19.7179C87.3028 18.9487 87.6503 18.2051 88.1714 17.5641C88.2707 17.4615 88.3203 17.3333 88.4196 17.2307C88.5933 17 88.767 16.7436 88.9655 16.5128C89.164 16.282 89.3378 16.0513 89.5115 15.7948C89.6852 15.5128 89.8837 15.2564 90.0822 15C90.3056 14.7179 90.5041 14.4359 90.6282 14.1025C90.6282 14.0769 90.6282 14.0513 90.6282 14.0256C90.5786 14 90.5289 13.9487 90.5041 13.9743C90.3056 14.0513 90.107 14.1282 89.9333 14.2564C89.437 14.6154 88.8662 14.8974 88.3203 15.1795C87.6751 15.5384 87.0547 15.8974 86.4095 16.2564C86.2854 16.3333 86.1861 16.4102 86.1365 16.5384C86.1117 16.6154 86.062 16.6923 86.0124 16.7436C85.6402 17.1282 85.2679 17.5384 84.8709 17.8974C84.722 18.0256 84.5979 18.1795 84.5483 18.3589C84.5235 18.4102 84.5234 18.4615 84.4986 18.5128C84.1512 19.0769 83.9279 19.7179 83.6301 20.282C83.4315 20.6666 83.3075 21.1025 83.0841 21.4872C82.8608 21.923 82.6623 22.3846 82.3148 22.7436C82.017 23.0513 81.5703 23.1025 81.2229 22.8205C80.801 22.4615 80.5529 22.0256 80.7514 21.4359C80.8259 21.2307 80.7018 21.1538 80.4784 21.2051C79.9821 21.3333 79.5106 21.5384 79.0639 21.7692C78.9647 21.8205 78.8902 21.8974 78.791 21.923C78.2202 22.2051 77.6991 22.1282 77.2027 21.7436C77.0787 21.641 76.9546 21.5128 76.8305 21.4359C76.5575 21.282 76.359 21.0513 76.2597 20.7692C76.2349 20.7179 76.1853 20.6923 76.1605 20.641C76.086 20.5384 75.9619 20.5128 75.8875 20.5897C75.5649 20.8205 75.2174 21.0513 74.8948 21.3077C74.3737 21.7179 73.8029 22.0256 73.2074 22.2564C72.6614 22.4615 72.1155 22.4359 71.5447 22.4102C71.3958 22.4102 71.2965 22.3333 71.1973 22.2307C70.8747 21.8974 70.5272 21.5897 70.3535 21.1282C70.3287 21.0513 70.2791 20.9743 70.2294 20.8974C70.1054 20.6666 70.0309 20.641 69.7828 20.7948C69.7579 20.8205 69.7331 20.8205 69.7083 20.8461C69.3361 21.0513 68.939 21.2564 68.5916 21.4872C68.2442 21.7179 67.8223 21.7692 67.4997 22.0256C66.7552 22.3589 66.0107 22.4615 65.2166 22.2564C64.7451 22.1538 64.3977 21.8974 64.0999 21.4872C63.7028 20.9743 63.5291 20.3589 63.4795 19.7179C63.4795 19.6154 63.4795 19.4872 63.5291 19.3846C63.8765 18.4615 64.2488 17.5384 64.8692 16.7692C65.6137 15.8718 66.4078 15 67.2019 14.1538C67.5493 13.7948 67.9712 13.4872 68.4179 13.2307C68.939 12.9487 69.3857 12.5641 69.882 12.2051C70.0061 12.1025 70.155 12.0256 70.2791 11.923C70.6513 11.6666 71.0484 11.5384 71.4702 11.4615C71.9914 11.3846 72.4877 11.5128 72.9344 11.7692C73.1081 11.8718 73.1825 12.0513 73.2818 12.2051C73.3811 12.3589 73.53 12.4359 73.7037 12.4102C73.8029 12.4102 73.927 12.3589 74.0015 12.3077C74.2248 12.1025 74.4233 11.8974 74.6467 11.6923C74.7708 11.5897 74.87 11.4615 74.9941 11.3589C75.0934 11.282 75.2423 11.2307 75.3664 11.2051C75.4904 11.1538 75.6393 11.2051 75.7386 11.282C75.8627 11.3846 75.9867 11.5128 76.086 11.6154C76.5079 12.1025 76.5079 12.8205 76.1356 13.282C75.9371 13.5384 75.7138 13.7948 75.5152 14.0513C75.2174 14.4102 74.9197 14.7436 74.6715 15.1538C74.5971 15.282 74.5226 15.3846 74.4233 15.4872C74.1752 15.7436 73.9767 16.0256 73.8029 16.3589C73.5796 16.7692 73.3066 17.1538 73.0336 17.5128C72.711 17.923 72.4877 18.4102 72.3636 18.923C72.314 19.1025 72.2644 19.3077 72.2395 19.4872C72.2147 19.6154 72.2395 19.7436 72.314 19.7692C72.3884 19.7948 72.4877 19.7948 72.5373 19.7692C72.984 19.5128 73.4307 19.2564 73.8278 18.9487C74.1752 18.6923 74.5226 18.4102 74.8452 18.1538C74.9941 18.0513 75.1678 17.9487 75.3167 17.8205C75.416 17.7436 75.5401 17.6666 75.6393 17.5641C75.8875 17.2307 76.2349 17 76.6072 16.8461C76.9049 16.7436 77.029 16.5384 77.1283 16.282C77.3764 15.6666 77.699 15.1025 78.0217 14.5384C78.3939 13.8974 78.7661 13.2564 79.1632 12.641C79.5106 12.0769 79.8332 11.5128 80.2551 11.0256C80.5529 10.6666 80.8011 10.282 81.074 9.89741C81.2229 9.66664 81.3966 9.46151 81.5455 9.23074C81.5952 9.17946 81.5455 9.05126 81.4711 9.02561C81.3966 8.99997 81.3222 8.97433 81.2477 8.94869C81.0492 8.89741 80.8259 8.84613 80.6273 8.79484C80.2055 8.66664 79.8084 8.51279 79.4858 8.2051C79.4114 8.12818 79.3369 8.05126 79.2376 7.99997C78.6917 7.74356 78.3691 7.25638 77.9968 6.82049C77.8479 6.641 77.7487 6.38459 77.6991 6.15382C77.6246 5.84613 77.5998 5.48715 77.575 5.17946C77.5502 5.0769 77.6991 4.97433 77.7983 4.99997C78.0713 5.05126 78.3195 5.17946 78.5428 5.30767C78.9399 5.58972 79.3617 5.69228 79.8084 5.82049C80.3295 5.97433 80.8507 6.05126 81.3966 5.99997C81.6448 5.97433 81.8681 5.99997 82.1163 6.02561C82.563 6.10254 83.0345 6.05126 83.4812 5.99997C84.4738 5.82049 84.2008 5.99997 84.9205 5.23074C85.119 4.99997 85.3176 4.7692 85.4665 4.51279C85.7146 4.10254 86.0372 3.7692 86.3846 3.46151C86.5584 3.30767 86.7073 3.15382 86.8561 3.02561C87.0547 2.84613 87.3277 2.84613 87.5262 2.99997C87.7495 3.2051 87.9729 3.38459 88.1714 3.61536C88.2707 3.71792 88.3203 3.84613 88.3451 3.97433C88.3947 4.12818 88.3699 4.30767 88.2707 4.43587C87.9481 4.84613 87.6006 5.23074 87.278 5.641C87.1539 5.79485 87.2284 5.97433 87.4269 5.99997C87.6006 6.05126 87.7992 6.0769 87.9729 6.0769C88.5933 6.12818 89.1888 6.28202 89.7844 6.46151C89.8837 6.48715 89.983 6.53843 90.0822 6.53843C90.2063 6.56408 90.3552 6.53843 90.4545 6.43587C90.7523 6.12818 91.0749 5.84613 91.2982 5.43587C91.3727 5.28202 91.4967 5.17946 91.596 5.05126C91.869 4.74356 92.142 4.46151 92.4149 4.15382C93.0353 3.46151 93.6805 2.82049 94.4002 2.2051C94.698 1.94869 94.9462 1.69228 95.2191 1.41023C95.7899 0.846127 96.5096 0.512794 97.254 0.307666C97.6759 0.205102 98.0482 0.333307 98.3708 0.615358C98.6686 0.846127 98.9664 1.10254 99.2393 1.35895C99.3386 1.43587 99.413 1.58972 99.4627 1.69228C99.6364 2.17946 99.6364 2.66664 99.5371 3.15382C99.413 3.7692 99.2641 4.38459 98.8671 4.92305C98.6189 5.58972 98.1226 6.05126 97.6511 6.53843C97.527 6.66664 97.3533 6.7692 97.2044 6.87177C96.7329 7.12818 96.2614 7.38459 95.7899 7.641C95.4425 7.84613 95.0951 7.89741 94.7228 7.94869C94.1024 8.02561 93.5068 8.10254 92.8864 8.15382C92.4646 8.2051 92.0675 8.38459 91.6208 8.35895C91.5712 8.35895 91.5216 8.38459 91.4719 8.41023C91.0997 8.641 90.7274 8.82049 90.5041 9.25638C90.4297 9.43587 90.3056 9.58972 90.1815 9.71792C89.8837 10.0256 89.6604 10.3333 89.4618 10.7179C89.2881 11.0513 89.0648 11.3589 88.8414 11.6923C88.6925 11.923 88.5436 12.1538 88.4692 12.4102C88.4692 12.4359 88.5188 12.5384 88.5436 12.5384C88.7173 12.5128 88.9159 12.4872 89.0896 12.4359C89.3129 12.3589 89.5363 12.2564 89.7596 12.1538C90.1815 11.9487 90.6034 11.9487 91.0004 12.1025C91.323 12.2307 91.6456 12.3846 91.9682 12.5128C92.2164 12.6154 92.4149 12.8205 92.5886 13.0256C93.0353 13.5384 93.085 14.1282 92.812 14.7436C92.6383 15.1795 92.3653 15.5641 92.0923 15.9487C91.6456 16.641 91.1741 17.3077 90.7026 17.9743C90.5289 18.2307 90.3304 18.4615 90.1319 18.6923C89.8589 19 89.6852 19.3846 89.4618 19.7179C89.437 19.7436 89.4618 19.8205 89.5115 19.8718C89.5363 19.8974 89.6107 19.8974 89.6604 19.923C89.6852 19.923 89.71 19.8974 89.7348 19.8974C90.0822 19.5384 90.5785 19.4359 90.9508 19.1282C91.1989 19.0769 91.3727 18.8974 91.5712 18.7436C92.0427 18.4102 92.4894 18.0769 92.9609 17.7692C93.3083 17.5384 93.6061 17.282 93.9535 17.0513C94.1769 16.923 94.3009 16.7436 94.4498 16.5384C94.9462 15.8718 95.4177 15.2051 95.8147 14.4872C95.8892 14.3589 95.9884 14.282 96.0629 14.1795C96.5096 13.6666 97.0059 13.2051 97.4278 12.641C97.6015 12.4102 97.8248 12.2051 98.073 12.0256C98.1722 11.9743 98.2467 11.8974 98.3211 11.8205C98.8919 11.2564 99.6116 10.9487 100.282 10.5384C100.43 10.4615 100.579 10.4359 100.753 10.4615C101.175 10.4872 101.622 10.5897 101.994 10.7436C102.465 10.9487 102.862 11.2564 103.185 11.6923C103.235 11.7692 103.26 11.8461 103.309 11.923C103.508 12.5641 103.483 13.1795 103.086 13.7436C102.813 14.1282 102.515 14.4872 102.267 14.8718C102.168 15 102.044 15.1282 101.919 15.2051C101.299 15.641 100.679 16.0769 100.058 16.5128C99.959 16.5897 99.8101 16.641 99.7108 16.6923C99.2145 16.8974 98.743 17.1795 98.2219 17.282C98.1722 17.282 98.1226 17.3077 98.073 17.3333C97.5518 17.641 97.0059 17.8461 96.4599 18.0513C95.9884 18.2307 95.6658 18.6154 95.5169 19.1025C95.5169 19.1282 95.4921 19.1538 95.4921 19.1795C95.4425 19.3589 95.5666 19.5384 95.7403 19.5384C96.0629 19.5384 96.3855 19.4872 96.6833 19.3589C96.9314 19.2564 97.1796 19.1538 97.4278 19.0256C98.0482 18.6666 98.6934 18.4102 99.3138 18.1538C99.8349 17.923 100.331 17.6666 100.778 17.3077C100.877 17.2307 100.976 17.1025 101.101 17.0769C101.448 17 101.646 16.7436 101.895 16.5384C101.969 16.4615 102.068 16.3846 102.168 16.3589C102.416 16.2564 102.639 16.0769 102.838 15.8974C103.26 15.4615 103.781 15.1538 104.277 14.8461C104.848 14.5384 105.319 14.0769 105.816 13.5641Z" fill="#F3F3EE"/>
<path d="M34.9167 12.923C34.8422 12.923 34.743 12.8717 34.6933 12.8974C34.2963 13.1538 33.8744 13.4358 33.4773 13.7179C33.2044 13.8974 32.981 14.1282 32.6832 14.2564C32.5343 14.3333 32.4351 14.4615 32.311 14.5641C32.038 14.8461 31.7402 15.0769 31.4176 15.2564C31.095 15.4358 30.7972 15.6923 30.4994 15.923C30.3505 16.0512 30.2264 16.2564 30.1272 16.4615C30.0031 16.6666 29.879 16.8974 29.7798 17.1025C29.482 17.8205 29.0601 18.4615 28.663 19.1282C28.3652 19.641 28.0426 20.1538 27.6952 20.6666C27.596 20.7948 27.4719 20.923 27.3726 21.0256C27.1244 21.282 26.8267 21.3333 26.4792 21.1794C26.3303 21.1025 26.2063 21.0256 26.107 20.8717C25.9333 20.5897 25.834 20.282 25.834 19.8974C26.0822 19.3333 26.4048 18.7948 26.7522 18.282C26.8267 18.1538 26.8763 18.0512 26.8763 17.8974C26.8763 17.8717 26.8763 17.8205 26.8515 17.8205C26.8018 17.7948 26.7522 17.7692 26.7274 17.7948C26.4544 18.0256 26.2063 18.2564 26.0077 18.5641C25.7596 18.923 25.4618 19.1794 25.0895 19.3589C24.6677 19.5384 24.3202 19.8717 23.948 20.1282C23.5758 20.3846 23.1787 20.5128 22.732 20.5128C22.5583 20.5128 22.4094 20.4615 22.2605 20.3846C21.789 20.1282 21.4416 19.7692 21.2431 19.2564C21.1934 19.1538 21.1438 19.0512 21.0942 18.9743C21.0693 18.923 20.9205 18.8974 20.8708 18.923C20.7964 18.9743 20.7467 19.0256 20.6971 19.0769C20.3745 19.4615 19.9774 19.7435 19.5804 20.0256C19.2578 20.282 18.9104 20.4871 18.5381 20.6153C18.0418 20.7948 17.4958 20.8717 16.9499 20.6666C16.8754 20.641 16.801 20.5897 16.7266 20.564C16.0565 20.2051 15.6346 19.5897 15.3865 18.8717C15.2128 18.3846 15.188 17.8461 15.4113 17.3333C15.5354 17.0256 15.6595 16.7179 15.8084 16.4358C16.2799 15.5897 16.7514 14.7692 17.3718 14.0256C17.7192 13.6153 18.0666 13.1794 18.3396 12.7179C18.5133 12.4102 18.687 12.1025 18.8607 11.7948C18.96 11.641 19.0593 11.4615 19.1833 11.3076C19.5308 10.9487 19.7541 10.5128 19.9526 10.0512C19.9774 9.99995 20.0023 9.92303 20.0271 9.92303C20.1263 9.87175 20.2256 9.82046 20.3249 9.82046C20.4241 9.82046 20.5234 9.89739 20.6227 9.94867C20.9701 10.1282 21.2182 10.4102 21.4664 10.7179C21.6153 10.923 21.6897 11.1538 21.6153 11.4102C21.5657 11.5897 21.516 11.7692 21.4416 11.9487C21.392 12.1025 21.2927 12.2564 21.2431 12.4102C20.9453 13.1538 20.5978 13.8717 20.2504 14.5897C20.2008 14.7179 20.1263 14.8205 20.0271 14.9487C19.5308 15.6923 19.0096 16.4358 18.5133 17.2051C18.4637 17.282 18.4389 17.3589 18.414 17.4358C18.414 17.4615 18.414 17.4871 18.4389 17.5128C18.4885 17.5384 18.5381 17.5641 18.5878 17.5641C18.96 17.4102 19.2826 17.1538 19.5804 16.8974C19.903 16.6153 20.2256 16.3076 20.5234 15.9999C20.846 15.6923 21.119 15.3589 21.3423 14.9743C21.4912 14.7179 21.6897 14.4871 21.8883 14.2564C22.3598 13.6666 22.8809 13.0769 23.3276 12.4615C23.6254 12.0512 23.8736 11.5641 24.1465 11.1282C24.1962 11.0256 24.2458 10.923 24.3202 10.8717C24.7669 10.5128 25.1144 10.0512 25.4866 9.61534C25.5114 9.56405 25.561 9.51277 25.6107 9.51277C25.7099 9.48713 25.8092 9.43585 25.9085 9.43585C26.0574 9.46149 26.2063 9.53841 26.3552 9.61534C26.504 9.69226 26.6033 9.82046 26.7274 9.92303C27.0252 10.1538 27.0996 10.5641 26.9507 10.8974C26.8267 11.2051 26.6778 11.4871 26.5537 11.7948C26.4048 12.1282 26.2807 12.4358 26.1814 12.7948C26.0822 13.1282 25.9581 13.4871 25.7596 13.7948C25.4866 14.282 25.3129 14.7948 25.0895 15.3076C25.0647 15.6153 24.7917 15.8461 24.7669 16.1538C24.7669 16.2307 24.8414 16.3076 24.9158 16.3076C24.9655 16.282 25.0151 16.282 25.0647 16.2564C25.164 16.2051 25.2632 16.1538 25.3377 16.0769C25.7596 15.641 26.2063 15.2564 26.5289 14.7435C26.6529 14.5641 26.8018 14.3846 26.9755 14.2564C27.323 13.9999 27.6456 13.7179 27.8441 13.3076C28.2163 12.8717 28.6134 12.4615 29.0105 12.0512C29.1842 11.8717 29.3331 11.6923 29.4571 11.4871C29.5812 11.2564 29.7798 11.0512 29.9535 10.8461C30.2016 10.5384 30.4498 10.2564 30.6979 9.97431C30.7972 9.8461 30.9213 9.74354 31.0454 9.64098C31.2439 9.48713 31.4921 9.48713 31.7154 9.66662C31.9139 9.8461 32.1125 10.0256 32.3358 10.1794C32.6088 10.3846 32.7577 10.6666 32.7577 11.0256C32.7577 11.1025 32.7825 11.1794 32.7825 11.282C32.7825 11.3589 32.8818 11.4102 32.9562 11.3846C33.0307 11.3589 33.1051 11.3333 33.1795 11.3076C33.7255 11.0512 34.2466 10.8205 34.7926 10.5641C35.0904 10.4358 35.3882 10.4615 35.6611 10.5897C36.0582 10.7692 36.4304 11 36.8027 11.2307C36.9019 11.282 36.9764 11.3589 37.0508 11.4615C37.299 11.7692 37.4727 12.1025 37.5968 12.4615C37.7705 12.8717 37.7705 13.3076 37.5968 13.7435C37.3486 14.3589 37.0757 14.9487 36.6538 15.4615C36.4056 15.7692 36.1823 16.0512 35.9341 16.3589C35.7108 16.641 35.5371 16.9487 35.3882 17.2564C35.3634 17.282 35.413 17.3589 35.4378 17.4102C35.4378 17.4102 35.4874 17.4102 35.5123 17.4102C35.7356 17.3333 35.8845 17.2051 36.0334 17.0512C36.1823 16.8974 36.3312 16.7435 36.5297 16.641C36.7282 16.5384 36.8771 16.3846 37.026 16.2051C37.4975 15.6923 37.9938 15.2564 38.5646 14.8974C38.7383 14.7692 38.912 14.641 39.0858 14.5128C39.1602 14.4358 39.2595 14.3589 39.2843 14.2564C39.4084 13.8717 39.6813 13.5897 39.9543 13.3333C40.1777 13.1282 40.3265 12.8717 40.5003 12.6153C40.8477 12.0769 41.1455 11.5384 41.4433 10.9743C41.4929 10.8717 41.5673 10.7948 41.617 10.6923C42.0637 10.1794 42.4359 9.58969 42.833 9.05123C43.0315 8.79482 43.2052 8.51277 43.4037 8.25636C43.5774 8.02559 43.7263 7.74354 43.9745 7.56405C44.0241 7.53841 44.0241 7.46149 44.0738 7.43585C44.1234 7.35893 44.0738 7.17944 43.9993 7.1538C43.9249 7.12816 43.8504 7.07687 43.776 7.05123C43.503 6.97431 43.2052 6.89739 42.9074 6.82046C42.287 6.66662 41.7659 6.35893 41.2944 5.92303C41.1455 5.76918 40.9966 5.61534 40.8477 5.46149C40.3762 5.02559 40.128 4.43585 39.8799 3.84611C39.8054 3.64098 39.731 3.43585 39.6565 3.23072C39.6069 3.07688 39.6069 3.07688 39.8302 2.92303C40.2025 3.12816 40.5747 3.35893 40.8477 3.69226C41.071 3.94867 41.344 4.10252 41.6666 4.17944C42.1381 4.282 42.6096 4.38457 43.1059 4.30764C43.4534 4.25636 43.8008 4.20508 44.1482 4.1538C44.6942 4.07688 45.2649 3.99995 45.8109 3.92303C45.9846 3.89739 46.1831 3.87175 46.3568 3.84611C46.6298 3.79482 46.8532 3.66662 47.0517 3.46149C47.548 2.99995 47.9699 2.46149 48.3669 1.89739C48.6151 1.56406 48.8632 1.25636 49.161 0.948671C49.434 0.66662 49.5581 0.692261 49.8063 1.02559C49.9055 1.17944 50.0296 1.33329 50.104 1.51277C50.2778 1.84611 50.3522 2.17944 50.1785 2.53841C50.0792 2.76918 50.0296 2.99995 49.9552 3.25636C49.8807 3.46149 49.9303 3.53841 50.1785 3.5897C50.4515 3.64098 50.6996 3.69226 50.9726 3.7179C51.3697 3.76918 51.7419 3.92303 52.0893 4.12816C52.2382 4.23072 52.4119 4.33329 52.5856 4.41021C52.7345 4.48713 52.8586 4.56405 52.9827 4.69226C53.2805 4.99995 53.6031 5.30764 53.9009 5.61534C54.0994 5.84611 54.2235 6.12816 54.3228 6.41021C54.3724 6.56405 54.2483 6.82046 54.1242 6.92303C54.025 6.97431 53.9257 6.99995 53.8264 6.94867C53.5783 6.84611 53.3301 6.76918 53.082 6.64098C52.7345 6.46149 52.3871 6.38457 52.0149 6.35893C50.8733 6.25636 50.2529 6.25636 48.9873 6.48713C48.6399 6.53841 48.2925 6.61534 47.9451 6.64098C47.7217 6.66662 47.548 6.76918 47.3991 6.97431C47.275 7.1538 47.1509 7.33328 47.0269 7.51277C46.6546 8.1538 46.2328 8.76918 45.8109 9.35892C45.4635 9.8461 45.116 10.3589 44.719 10.7948C44.3716 11.2051 44.0489 11.641 43.6767 12.0512C43.2052 12.6153 42.7833 13.2307 42.4111 13.8717C42.287 14.1025 42.1133 14.3333 41.9644 14.5641C41.5674 15.2307 41.1703 15.8717 40.7981 16.5384C40.5003 17.0256 40.2769 17.5641 40.0288 18.0769C39.9295 18.2564 39.9047 18.4871 39.8799 18.7179C39.8799 18.7948 39.9295 18.8717 39.9543 18.9743C40.1032 18.923 40.2273 18.8974 40.3514 18.8461C40.7236 18.6153 41.1207 18.4358 41.4433 18.1538C41.5177 18.0769 41.617 17.9999 41.7162 17.9743C42.1381 17.7692 42.4855 17.4615 42.8081 17.1282C43.1804 16.7692 43.5526 16.4102 43.9249 16.0512C44.1482 15.8461 44.3716 15.6666 44.5949 15.4615C44.8431 15.2307 45.1409 14.9999 45.3394 14.7179C45.389 14.641 45.4386 14.5897 45.5131 14.5384C45.7116 14.4358 45.8605 14.282 46.0094 14.1282C46.2079 13.9487 46.4313 13.7948 46.6546 13.641C46.7043 13.6153 46.8283 13.5897 46.878 13.641C47.1758 13.8205 47.4239 14.0769 47.6224 14.3846C47.6969 14.4871 47.7465 14.641 47.7217 14.7692C47.6969 15.1025 47.6721 15.4358 47.4736 15.7179C47.3247 15.9743 47.1261 16.2051 46.9028 16.4102C46.605 16.6923 46.332 16.9999 46.059 17.3076C45.4386 18.0512 44.719 18.7435 43.9745 19.3589C43.7015 19.5897 43.3789 19.7435 43.0563 19.8717C42.8081 19.9999 42.5848 20.1282 42.3615 20.282C41.9892 20.5128 41.6666 20.7948 41.2447 20.923C40.7484 21.0769 40.2521 21.0769 39.731 20.9743C39.5324 20.923 39.3339 20.8205 39.1602 20.6666C38.7383 20.3333 38.4654 19.8974 38.2668 19.4102C38.2172 19.282 38.1924 19.1538 38.1427 19.0256C37.9938 18.641 37.845 18.6923 37.5968 18.8205C37.3486 18.9743 37.1005 19.1538 36.8771 19.3589C36.6042 19.6153 36.2815 19.8205 35.9589 20.0256C35.3634 20.3846 35.3137 20.3846 34.6685 20.4615C34.4203 20.4871 34.197 20.4102 33.9985 20.2564C33.8248 20.1282 33.6511 19.9999 33.5022 19.8205C32.8321 19.1025 32.5591 18.2307 32.7825 17.2307C32.8073 17.1282 32.8073 16.9999 32.8569 16.8974C33.1547 16.2564 33.3533 15.5641 33.7255 14.9487C33.9737 14.5384 34.197 14.1538 34.5196 13.8205C34.6189 13.6923 34.7181 13.5641 34.8174 13.4358C34.9167 13.1794 34.9415 13.0512 34.9167 12.923C34.9663 12.923 35.0159 12.8974 35.0159 12.8205C35.0159 12.8205 34.9663 12.7692 34.9415 12.7948C34.8919 12.8205 34.8918 12.8717 34.9167 12.923Z" fill="#F3F3EE"/>
<path d="M11.8372 9.79486C12.2095 9.79486 12.5817 9.79486 12.9539 9.79486C13.1277 9.79486 13.2517 9.6923 13.351 9.56409C13.4254 9.48717 13.4503 9.38461 13.4999 9.28204C13.5992 9.1282 13.6984 8.94871 13.7977 8.79486C13.8721 8.66666 13.9962 8.53845 14.0707 8.38461C14.3188 7.87179 14.5918 7.35897 14.7903 6.82051C15.1129 5.99999 15.5596 5.2564 16.0311 4.51281C16.3537 4.02563 16.6763 3.5641 16.9245 3.05127C16.9741 2.92307 17.0734 2.82051 17.1478 2.71794C17.2967 2.53845 17.4208 2.38461 17.5201 2.17948C17.5945 1.99999 17.7434 1.87179 17.8427 1.71794C17.9171 1.61538 18.0412 1.51281 18.0908 1.38461C18.2646 0.897428 18.6616 0.589736 18.885 0.153838C18.9594 -7.72998e-06 19.2076 0.0256333 19.3068 0.153838C19.4557 0.384608 19.6046 0.615377 19.7535 0.846146C19.952 1.17948 19.952 1.51281 19.8528 1.87179C19.6294 2.64102 19.3316 3.38461 18.9842 4.10256C18.5375 5.05127 18.0908 5.97435 17.5449 6.87179C17.4208 7.07692 17.3216 7.30768 17.2223 7.53845C17.0734 7.89743 16.8997 8.23076 16.7508 8.58974C16.6019 8.94871 16.4282 9.28204 16.2793 9.64102C16.1552 9.92307 16.1056 10.2308 16.3041 10.5128C16.5026 10.7692 16.4778 11.0769 16.453 11.3846C16.4282 11.7179 16.2297 11.9487 15.9815 12.1282C15.9319 12.1795 15.8326 12.2051 15.7581 12.2308C15.6093 12.2564 15.4355 12.282 15.2866 12.3077C14.9144 12.3846 14.5918 12.5897 14.3933 12.9487C14.294 13.1026 14.1699 13.2564 14.0707 13.4359C13.8225 13.8974 13.4999 14.3077 13.1773 14.7179C13.0284 14.8974 12.9043 15.1282 12.7802 15.3333C12.6313 15.5897 12.5569 15.8974 12.3832 16.1538C12.2343 16.3846 12.0357 16.5641 11.9365 16.8205C11.862 17.0256 11.7131 17.1795 11.5146 17.3077C11.2913 17.4359 11.1424 17.6154 11.0183 17.8461C10.8198 18.2308 10.5964 18.6154 10.3731 19C10.0257 19.5897 9.6286 20.1538 9.25636 20.7179C9.23154 20.7692 9.18191 20.7949 9.1571 20.8461C8.95857 21.0513 8.66078 21.1282 8.41262 20.9487C7.96593 20.641 7.69295 20.2308 7.71777 19.641C7.74259 19.2308 7.81703 18.8718 8.04038 18.5641C8.23891 18.3077 8.41262 18.0256 8.58633 17.7436C8.76004 17.4359 8.93375 17.1282 9.08265 16.7949C9.1571 16.641 9.20673 16.4872 9.30599 16.359C9.50452 16.0256 9.70305 15.7179 9.92639 15.4102C10.3234 14.8461 10.6709 14.282 10.9935 13.6667C11.1424 13.3846 11.3161 13.1026 11.465 12.7949C11.5394 12.6667 11.4402 12.4359 11.2665 12.4102C11.1424 12.3846 10.9935 12.359 10.8694 12.3846C10.4227 12.4615 9.97602 12.4615 9.50452 12.4102C9.38044 12.3846 9.23154 12.3846 9.10746 12.3846C8.61115 12.4359 8.09001 12.4102 7.59369 12.5128C7.37035 12.5641 7.19663 12.641 7.04774 12.8205C6.35289 13.7179 5.60841 14.6154 5.01283 15.5897C4.61577 16.2308 4.16908 16.8718 3.74721 17.5128C3.49905 17.8974 3.22608 18.282 2.9531 18.6667C2.68013 19.0256 2.45678 19.4615 2.23344 19.8461C1.93565 20.3333 1.48896 20.5641 0.943007 20.4615C0.49632 20.359 0.0744479 19.9744 0 19.3333C0 19.2308 0 19.1026 0.049632 19C0.12408 18.7692 0.223344 18.5385 0.322608 18.3077C0.446688 18.0256 0.595583 17.7692 0.744479 17.5128C0.943007 17.1795 1.11672 16.8461 1.21598 16.4615C1.2408 16.359 1.29043 16.2308 1.36488 16.1795C1.76193 15.7949 1.91083 15.2308 2.30789 14.8461C2.70494 14.1026 3.20126 13.4102 3.64795 12.6667C3.77203 12.4615 3.74721 12.3077 3.62313 12.1282C3.5735 12.0769 3.49905 12 3.47424 11.9487C3.35016 11.7179 3.15163 11.5897 2.90347 11.5128C2.70494 11.4359 2.50641 11.359 2.30789 11.2564C2.18381 11.2051 2.05973 11.1026 2.01009 11C1.88601 10.7179 1.7123 10.4872 1.51377 10.2564C1.43933 10.1795 1.43933 10.0513 1.41451 9.94871C1.36488 9.87179 1.43933 9.74358 1.48896 9.74358C1.88601 9.74358 2.28307 9.71794 2.68013 9.61538C2.77939 9.58974 2.90347 9.58974 3.00273 9.61538C3.74721 9.82051 4.49169 9.53845 5.23617 9.61538C5.4347 9.64102 5.60841 9.51281 5.73249 9.41025C5.93102 9.2564 6.0551 9.05127 6.17918 8.82051C6.35289 8.48717 6.50179 8.1282 6.6755 7.79486C6.94847 7.23076 7.22145 6.66666 7.51924 6.10256C7.7674 5.64102 7.96593 5.15384 8.16446 4.6923C8.18927 4.61538 8.21409 4.53845 8.26372 4.46153C8.83449 3.5641 9.1571 2.51281 9.67823 1.58974C9.7775 1.41025 9.87676 1.20512 9.95121 0.999992C10.0257 0.6923 10.249 0.461531 10.4475 0.256403C10.5468 0.153838 10.6957 0.153838 10.8198 0.256403C10.8942 0.333326 10.9935 0.384608 11.0679 0.461531C11.465 0.769223 11.6883 1.20512 11.862 1.6923C11.9613 1.99999 11.9613 2.30768 11.8372 2.58974C11.5146 3.41025 11.2665 4.2564 10.919 5.05127C10.6212 5.71794 10.3731 6.43589 10.0753 7.1282C10.0257 7.2564 9.97602 7.38461 9.95121 7.51281C9.82713 7.84615 9.72786 8.17948 9.55415 8.51281C9.43007 8.74358 9.33081 9.02563 9.23154 9.28204C9.1571 9.48717 9.23154 9.61538 9.43007 9.64102C10.2242 9.6923 11.0431 9.79486 11.8372 9.79486Z" fill="#F3F3EE"/>
<path d="M57.1014 21.7949C56.4065 21.7692 55.7117 21.641 55.0665 21.3846C54.6446 21.2308 54.2476 21 53.9249 20.641C53.8009 20.4872 53.652 20.359 53.5279 20.2308C53.2301 19.9487 52.9819 19.6154 52.833 19.2308C52.8082 19.1795 52.8082 19.1282 52.7586 19.0769C52.4112 18.6667 52.3119 18.1282 52.1382 17.641C51.9645 17.1538 51.8404 16.641 51.7908 16.1025C51.766 15.7692 51.7411 15.4359 51.8652 15.1282C51.89 15.0256 51.9397 14.9231 51.9397 14.8205C52.0389 14 52.3615 13.2308 52.6345 12.4615C52.8082 11.9487 53.0812 11.4615 53.4038 11.0256C53.8505 10.3846 54.322 9.74358 54.7439 9.05127C55.2154 8.30768 55.811 7.66665 56.4562 7.07691C56.7788 6.76922 57.1262 6.43588 57.4736 6.12819C57.697 5.89742 57.9451 5.69229 58.2429 5.53845C58.3422 5.48717 58.4415 5.43588 58.5159 5.35896C59.037 4.92306 59.6078 4.56409 60.1786 4.23076C60.4764 4.05127 60.7493 3.8205 61.0471 3.64101C61.2953 3.48717 61.5435 3.30768 61.8164 3.23075C61.9653 3.17947 62.0894 3.07691 62.2135 2.9487C62.3872 2.79486 62.5609 2.69229 62.7594 2.61537C63.0324 2.53845 63.3054 2.41024 63.5784 2.30768C64.1491 2.10255 64.7199 2.05127 65.3155 2.12819C65.6629 2.17947 65.9855 2.28204 66.2833 2.48717C66.4074 2.56409 66.5315 2.69229 66.6804 2.74358C67.3256 3.02563 67.5986 3.64101 67.9212 4.20511C67.946 4.2564 67.946 4.30768 67.9708 4.35896C68.0949 5.20511 68.1445 6.07691 67.8219 6.89742C67.7723 6.99999 67.7475 7.10255 67.6978 7.20511C67.5737 7.53845 67.4745 7.89742 67.276 8.17947C67.003 8.61537 66.6804 9.02563 66.3826 9.46152C66.1592 9.76922 65.9111 10.0513 65.6629 10.359C65.4892 10.5641 65.241 10.641 65.0177 10.5128C64.9681 10.4872 64.9184 10.4615 64.8936 10.4102C64.5958 9.97434 64.4966 9.51281 64.7199 8.99999C64.7943 8.79486 64.8936 8.58973 64.9433 8.3846C65.0177 8.17947 65.0921 7.97434 65.1914 7.76922C65.3155 7.56409 65.3899 7.33332 65.4892 7.07691C65.6629 6.56409 65.8118 6.02563 65.9855 5.51281C66.0848 5.17947 66.1096 4.87178 66.0848 4.53845C66.06 4.30768 65.9359 4.17947 65.7125 4.23076C65.3899 4.28204 65.0673 4.33332 64.7695 4.43588C63.901 4.74358 63.0572 5.07691 62.2879 5.56409C62.0894 5.69229 61.8661 5.79486 61.6675 5.92306C61.072 6.30768 60.5012 6.69229 59.9552 7.15383C59.3845 7.64101 58.7889 8.12819 58.2926 8.71793C58.1685 8.87178 58.0196 8.99999 57.8955 9.12819C57.4985 9.51281 57.2007 9.97434 56.9525 10.4615C56.6795 11 56.3321 11.4872 56.0343 12C55.7365 12.4615 55.4387 12.9231 55.1657 13.3846C54.9176 13.7949 54.7439 14.2051 54.6446 14.6923C54.5205 15.2564 54.3965 15.8205 54.2476 16.3846C54.0242 17.2564 54.1731 18.0769 54.4461 18.8974C54.5453 19.1538 54.7191 19.3077 54.9672 19.359C55.5132 19.5128 56.0343 19.4615 56.5554 19.282C57.3744 19 58.1685 18.6667 58.8137 18.0769C58.9626 17.9487 59.1115 17.8461 59.2604 17.7179C59.7071 17.3333 60.0793 16.8461 60.4267 16.359C60.4516 16.3077 60.4764 16.2564 60.5012 16.2051C60.5756 16.0513 60.5012 15.8718 60.3523 15.7949C60.2778 15.7692 60.2034 15.7179 60.1289 15.7179C59.9304 15.7179 59.7567 15.6923 59.5582 15.7436C58.8881 15.8974 58.2181 15.8205 57.5481 15.8205C57.2503 15.8205 56.9525 15.7179 56.6795 15.6154C56.4065 15.5128 56.208 15.2564 56.0343 15C55.935 14.8461 55.8854 14.7179 55.8854 14.5384C55.8854 14.4102 55.9847 14.2564 56.0839 14.2051C56.4562 14.0513 56.8532 13.9743 57.2503 13.9231C58.1437 13.8205 59.0619 13.6667 59.9552 13.6667C60.4019 13.6667 60.799 13.5897 61.2208 13.4615C61.7172 13.3077 62.2135 13.2308 62.7098 13.1538C63.1317 13.0769 63.5536 13.0769 63.9506 13.282C63.9754 13.3077 64.0002 13.3077 64.0251 13.3077C64.7447 13.4359 65.0177 14 65.241 14.6154C65.2659 14.7179 65.2659 14.8461 65.241 14.9487C65.2162 15.0256 65.1418 15.0769 65.0921 15.1282C65.0673 15.1538 65.0425 15.1538 65.0177 15.1538C64.4966 15.0513 64.0251 15.282 63.5287 15.4359C63.3054 15.5128 63.1565 15.6667 63.1069 15.8974C63.0324 16.3846 62.8339 16.8461 62.5857 17.282C62.4368 17.5384 62.3376 17.8205 62.2383 18.1282C62.139 18.5128 61.9653 18.8461 61.6675 19.1026C61.5931 19.1795 61.5186 19.2564 61.4442 19.359C60.8238 20.1538 60.0545 20.7179 59.1859 21.1795C59.1115 21.2051 59.037 21.2564 58.9626 21.282C58.4911 21.7436 57.8211 21.8205 57.1014 21.7949Z" fill="#F3F3EE"/>
<path d="M47.9698 22.5642C47.5975 22.5385 47.399 22.5129 47.2005 22.3847C46.9771 22.2308 46.729 22.1283 46.5056 21.9744C46.3319 21.8718 46.2575 21.6667 46.3071 21.4616C46.3319 21.2821 46.4063 21.1026 46.4808 20.9231C46.6049 20.6411 46.729 20.3847 46.8779 20.1026C47.0516 19.7949 47.1012 19.4872 46.9523 19.1539C46.9275 19.1026 46.9275 19.0513 46.9027 19C46.8779 18.9231 47.0019 18.7949 47.1012 18.7949C47.5479 18.7949 47.9946 18.8718 48.4164 19.0513C48.8879 19.2565 49.1609 19.6667 49.4091 20.1026C49.4835 20.2052 49.5083 20.359 49.5083 20.5129C49.5083 21.0257 49.3843 21.4872 49.1361 21.9488C49.0865 22.0257 49.0617 22.1026 48.9872 22.1539C48.6398 22.359 48.2675 22.5642 47.9698 22.5642Z" fill="#F3F3EE"/>
</svg>
