<svg xmlns="http://www.w3.org/2000/svg" width="339" height="46" viewBox="0 0 339 46" fill="none">
<g clip-path="url(#clip0_2805_2345)">
<path d="M174.65 30.39H169.4V45.19H171.54V40.13H174.63C175.878 40.2177 177.117 39.8637 178.13 39.13C178.542 38.7523 178.863 38.2862 179.069 37.7666C179.275 37.247 179.361 36.6875 179.32 36.13V34.38C179.36 33.8235 179.275 33.2651 179.071 32.7459C178.867 32.2267 178.548 31.76 178.14 31.38C177.129 30.6497 175.893 30.2992 174.65 30.39ZM177.17 36.11C177.202 36.4046 177.169 36.7029 177.072 36.983C176.975 37.2632 176.817 37.5183 176.61 37.73C176.013 38.1015 175.31 38.2667 174.61 38.2H171.52V32.36H174.61C175.31 32.2933 176.013 32.4585 176.61 32.83C176.817 33.0416 176.975 33.2968 177.072 33.577C177.169 33.8571 177.202 34.1553 177.17 34.45V36.11Z" fill="#000"/>
<path d="M188.91 42.07C188.763 42.5185 188.471 42.9055 188.08 43.17C187.513 43.4294 186.891 43.5429 186.27 43.5C185.58 43.5521 184.895 43.3532 184.34 42.94C184.113 42.6938 183.941 42.4028 183.835 42.0858C183.728 41.7689 183.689 41.433 183.72 41.1V40.1H191V38.3C191.047 37.6779 190.955 37.0532 190.732 36.4706C190.509 35.8879 190.16 35.3619 189.71 34.93C188.753 34.1594 187.547 33.7678 186.32 33.83C185.1 33.7747 183.901 34.1578 182.94 34.91C182.486 35.3169 182.131 35.8222 181.902 36.3872C181.673 36.9522 181.577 37.562 181.62 38.17V41.08C181.576 41.6744 181.665 42.2711 181.882 42.8265C182.098 43.3819 182.435 43.8819 182.87 44.29C183.848 45.0628 185.075 45.4505 186.32 45.38C187.406 45.4444 188.491 45.2274 189.47 44.75C190.195 44.2747 190.74 43.5708 191.02 42.75L191.08 42.58L189.01 41.98L188.91 42.07ZM188.81 38.44H183.72V38.17C183.69 37.8317 183.731 37.4909 183.839 37.1691C183.947 36.8473 184.121 36.5514 184.35 36.3C184.888 35.8592 185.576 35.6442 186.27 35.7C186.963 35.6459 187.65 35.8689 188.18 36.32C188.646 36.8773 188.872 37.5963 188.81 38.32V38.44Z" fill="#000"/>
<path d="M202.3 43C201.932 43.1066 201.558 43.1901 201.18 43.25C200.767 43.3207 200.349 43.3541 199.93 43.35C199.408 43.391 198.891 43.2258 198.49 42.89C198.319 42.6956 198.19 42.4687 198.109 42.223C198.028 41.9773 197.998 41.7177 198.02 41.46V36H202.72V34H198V30.39H195.85V34H192.8V36H195.87V41.62C195.825 42.1373 195.891 42.6582 196.063 43.1479C196.236 43.6377 196.511 44.085 196.87 44.46C197.689 45.1168 198.722 45.4479 199.77 45.39C200.309 45.3948 200.847 45.3547 201.38 45.27C201.83 45.1971 202.274 45.0935 202.71 44.96H202.86L202.43 42.96L202.3 43Z" fill="#000"/>
<path d="M211.7 33.83C211 33.8076 210.307 33.9807 209.7 34.33C209.156 34.6856 208.742 35.2086 208.52 35.82H208.26V34H206.12V45.19H208.26V37.48C208.576 36.9981 208.988 36.5862 209.47 36.27C209.912 36.0101 210.417 35.8752 210.93 35.88C211.162 35.8606 211.396 35.8896 211.616 35.9654C211.837 36.0411 212.039 36.1619 212.21 36.32C212.522 36.717 212.672 37.217 212.63 37.72V38.87H214.68V37.07C214.705 36.6342 214.642 36.1979 214.494 35.7872C214.346 35.3765 214.117 34.9999 213.82 34.68C213.253 34.1282 212.491 33.8227 211.7 33.83Z" fill="#000"/>
<path d="M222.31 33.83C221.044 33.7646 219.8 34.1828 218.83 35C218.409 35.4173 218.082 35.9193 217.87 36.4727C217.658 37.0261 217.566 37.6183 217.6 38.21V41.1C217.564 41.6864 217.655 42.2737 217.865 42.8223C218.075 43.3709 218.401 43.8679 218.82 44.28C219.834 44.999 221.047 45.3852 222.29 45.3852C223.533 45.3852 224.746 44.999 225.76 44.28C226.182 43.8697 226.512 43.3734 226.726 42.8248C226.94 42.2761 227.033 41.6879 227 41.1V38.17C227.027 37.5842 226.931 36.9992 226.717 36.453C226.504 35.9069 226.177 35.4118 225.76 35C224.802 34.182 223.567 33.7631 222.31 33.83ZM219.75 38.17C219.721 37.8441 219.761 37.5157 219.866 37.2059C219.971 36.896 220.139 36.6113 220.36 36.37C220.932 35.9915 221.604 35.7898 222.29 35.7898C222.976 35.7898 223.647 35.9915 224.22 36.37C224.443 36.6105 224.613 36.8948 224.719 37.2047C224.826 37.5146 224.867 37.8433 224.84 38.17V41.1C224.866 41.4174 224.824 41.7366 224.717 42.0365C224.61 42.3365 224.44 42.6103 224.22 42.84C223.645 43.2123 222.975 43.4105 222.29 43.4105C221.605 43.4105 220.935 43.2123 220.36 42.84C220.141 42.6095 219.974 42.3352 219.868 42.0353C219.763 41.7354 219.723 41.4166 219.75 41.1V38.17Z" fill="#000"/>
<path d="M237.48 41.73C237.482 41.9757 237.424 42.2181 237.311 42.4361C237.198 42.654 237.032 42.8408 236.83 42.98C236.264 43.3071 235.612 43.4569 234.96 43.41C234.206 43.469 233.454 43.2679 232.83 42.84C232.597 42.6176 232.415 42.3461 232.3 42.0453C232.184 41.7444 232.136 41.4215 232.16 41.1V38.17C232.132 37.8391 232.177 37.5061 232.293 37.1949C232.409 36.8837 232.592 36.602 232.83 36.37C233.437 35.9377 234.177 35.7324 234.92 35.79C235.587 35.739 236.25 35.9191 236.8 36.3C237.018 36.4918 237.192 36.729 237.31 36.995C237.427 37.2609 237.485 37.5493 237.48 37.84V38.01L239.58 37.88V37.71C239.57 37.1644 239.449 36.6266 239.224 36.1296C238.998 35.6326 238.674 35.1869 238.27 34.82C237.31 34.1015 236.127 33.7471 234.93 33.82C233.614 33.7295 232.309 34.1204 231.26 34.92C230.825 35.3367 230.487 35.8437 230.269 36.4052C230.052 36.9667 229.96 37.5691 230 38.17V41.1C229.96 41.6919 230.053 42.2852 230.271 42.8369C230.489 43.3886 230.827 43.885 231.26 44.29C232.331 45.0992 233.662 45.487 235 45.38C236.174 45.4514 237.339 45.139 238.32 44.49C238.717 44.1742 239.041 43.7749 239.267 43.3205C239.493 42.8661 239.617 42.3675 239.63 41.86V41.69L237.51 41.56L237.48 41.73Z" fill="#000"/>
<path d="M248.24 33.83C247.534 33.8263 246.841 34.0203 246.24 34.39C245.696 34.7354 245.265 35.2325 245 35.82H244.73V30.39H242.59V45.19H244.73V37.68C245.169 37.1539 245.693 36.7045 246.28 36.35C246.753 36.0576 247.294 35.8954 247.85 35.88C248.119 35.8605 248.388 35.8996 248.64 35.9945C248.892 36.0895 249.121 36.2381 249.31 36.43C249.681 36.8928 249.863 37.4786 249.82 38.07V45.19H251.96V37.69C252.008 36.6585 251.649 35.6494 250.96 34.88C250.608 34.5208 250.183 34.2413 249.714 34.0602C249.244 33.879 248.742 33.8006 248.24 33.83Z" fill="#000"/>
<path d="M262 42.07C261.853 42.5185 261.561 42.9055 261.17 43.17C260.604 43.4294 259.981 43.5429 259.36 43.5C258.67 43.5521 257.985 43.3532 257.43 42.94C257.203 42.6938 257.031 42.4028 256.925 42.0858C256.818 41.7689 256.779 41.433 256.81 41.1V40.1H264V38.3C264.047 37.6779 263.955 37.0532 263.732 36.4706C263.509 35.8879 263.16 35.3619 262.71 34.93C261.753 34.1594 260.547 33.7678 259.32 33.83C258.121 33.7891 256.945 34.1714 256 34.91C255.546 35.3169 255.191 35.8222 254.962 36.3872C254.734 36.9522 254.637 37.562 254.68 38.17V41.08C254.636 41.6744 254.725 42.2711 254.942 42.8265C255.158 43.3819 255.495 43.8819 255.93 44.29C256.907 45.0645 258.135 45.4524 259.38 45.38C260.467 45.4444 261.551 45.2274 262.53 44.75C263.255 44.2747 263.8 43.5708 264.08 42.75L264.14 42.58L262.07 41.98L262 42.07ZM261.9 38.44H256.81V38.17C256.78 37.8317 256.821 37.4909 256.929 37.1691C257.038 36.8473 257.211 36.5514 257.44 36.3C257.978 35.8592 258.666 35.6442 259.36 35.7C260.053 35.647 260.74 35.8698 261.27 36.32C261.736 36.8773 261.962 37.5963 261.9 38.32V38.44Z" fill="#000"/>
<path d="M275.47 33.83C274.983 33.8357 274.51 33.9969 274.12 34.29C273.713 34.5941 273.389 34.9967 273.18 35.46H273C272.891 35.0154 272.655 34.6122 272.32 34.3C271.961 33.9865 271.497 33.8189 271.02 33.83C270.556 33.8391 270.108 34.0047 269.75 34.3C269.357 34.6067 269.044 35.005 268.84 35.46H268.75V34H266.75V45.19H268.75V37.3C269.037 36.8203 269.372 36.3713 269.75 35.96C269.928 35.7296 270.184 35.5729 270.47 35.52C270.577 35.5182 270.682 35.5487 270.771 35.6076C270.86 35.6665 270.93 35.751 270.97 35.85C271.123 36.2133 271.191 36.6065 271.17 37V45.19H273.17V37.3C273.45 36.8222 273.786 36.3792 274.17 35.98C274.56 35.6 274.79 35.52 274.91 35.52C275.016 35.5188 275.119 35.5497 275.206 35.6087C275.294 35.6676 275.361 35.7518 275.4 35.85C275.553 36.2133 275.621 36.6065 275.6 37V45.19H277.6V36.71C277.636 35.9751 277.44 35.2475 277.04 34.63C276.866 34.376 276.631 34.1696 276.357 34.0298C276.083 33.8901 275.778 33.8214 275.47 33.83Z" fill="#000"/>
<path d="M283.79 32.12C284.164 32.281 284.567 32.364 284.975 32.364C285.382 32.364 285.785 32.281 286.16 32.12C286.339 32.0264 286.485 31.8807 286.58 31.7022C286.674 31.5237 286.713 31.3207 286.69 31.12V31C286.714 30.8004 286.677 30.5982 286.584 30.4198C286.491 30.2414 286.347 30.0951 286.17 30C285.793 29.8416 285.388 29.76 284.98 29.76C284.571 29.76 284.167 29.8416 283.79 30C283.613 30.0951 283.468 30.2414 283.375 30.4198C283.283 30.5982 283.246 30.8004 283.27 31V31.13C283.248 31.3281 283.286 31.5281 283.378 31.7045C283.471 31.8809 283.614 32.0256 283.79 32.12Z" fill="#000"/>
<path d="M286.05 34.01H280.29V35.97H283.91V43.23H280.29V45.2H289.67V43.23H286.05V34.01Z" fill="#000"/>
<path d="M299.16 41.73C299.162 41.9757 299.104 42.2181 298.991 42.4361C298.878 42.654 298.712 42.8408 298.51 42.98C297.944 43.3071 297.292 43.4569 296.64 43.41C295.886 43.469 295.134 43.2679 294.51 42.84C294.277 42.6176 294.096 42.3461 293.98 42.0453C293.864 41.7444 293.816 41.4215 293.84 41.1V38.17C293.812 37.8391 293.858 37.5061 293.973 37.1949C294.089 36.8837 294.272 36.602 294.51 36.37C295.117 35.9377 295.857 35.7324 296.6 35.79C297.269 35.7439 297.935 35.9235 298.49 36.3C298.704 36.4953 298.874 36.7333 298.989 36.9986C299.105 37.264 299.163 37.5507 299.16 37.84V38.01L301.26 37.88V37.71C301.26 37.1675 301.149 36.6308 300.932 36.1335C300.715 35.6362 300.398 35.189 300 34.82C299.04 34.1015 297.857 33.7472 296.66 33.82C295.347 33.7273 294.045 34.1186 293 34.92C292.564 35.3335 292.225 35.8385 292.007 36.3987C291.789 36.9589 291.698 37.5604 291.74 38.16V41.1C291.7 41.6919 291.793 42.2852 292.011 42.8369C292.229 43.3886 292.567 43.885 293 44.29C294.055 45.0851 295.362 45.4722 296.68 45.38C297.854 45.4514 299.019 45.139 300 44.49C300.399 44.1756 300.723 43.7766 300.95 43.3219C301.176 42.8672 301.299 42.3679 301.31 41.86V41.69L299.19 41.56L299.16 41.73Z" fill="#000"/>
<path d="M313 43.22C312.71 43.09 312.56 42.73 312.56 42.15V37.29C312.59 36.7797 312.489 36.2703 312.267 35.81C312.044 35.3497 311.708 34.9539 311.29 34.66C310.369 34.0818 309.297 33.7927 308.21 33.83C307.148 33.7718 306.095 34.0595 305.21 34.65C304.431 35.2379 303.911 36.1057 303.76 37.07V37.23L305.66 37.75L305.71 37.59C305.81 37.0123 306.115 36.4902 306.57 36.12C307.095 35.8651 307.678 35.7513 308.26 35.79C308.846 35.7433 309.428 35.9103 309.9 36.26C310.075 36.4139 310.213 36.6055 310.303 36.8203C310.393 37.035 310.433 37.2675 310.42 37.5V38.89H306.83C305.986 38.8807 305.169 39.1875 304.54 39.75C304.208 40.0462 303.946 40.4125 303.773 40.8224C303.6 41.2323 303.521 41.6755 303.54 42.12C303.503 42.5987 303.589 43.0789 303.791 43.5148C303.992 43.9507 304.302 44.3278 304.69 44.61C305.44 45.1234 306.331 45.3923 307.24 45.38C308.059 45.3855 308.865 45.1787 309.58 44.78C310.195 44.4473 310.72 43.9703 311.11 43.39H311.22C311.217 43.7607 311.328 44.1233 311.54 44.4278C311.751 44.7323 312.052 44.9637 312.4 45.09C313.105 45.3096 313.851 45.3643 314.58 45.25H314.73V43.25H314.53C314.027 43.3797 313.498 43.3693 313 43.22ZM310.41 40.58V42.11C310.093 42.5769 309.654 42.9472 309.14 43.18C308.61 43.3952 308.042 43.504 307.47 43.5C306.974 43.5476 306.479 43.4085 306.08 43.11C305.945 42.9642 305.84 42.7924 305.773 42.605C305.706 42.4177 305.678 42.2186 305.69 42.02C305.663 41.8128 305.689 41.6022 305.766 41.408C305.843 41.2138 305.969 41.0424 306.13 40.91C306.485 40.6752 306.905 40.5596 307.33 40.58H310.41Z" fill="#000"/>
<path d="M322.87 30.39H317.11V32.36H320.73V43.23H317.11V45.2H326.49V43.23H322.87V30.39Z" fill="#000"/>
<path d="M337.37 39.66C336.413 39.06 335.318 38.7157 334.19 38.66C333.341 38.5981 332.505 38.4128 331.71 38.11C331.535 38.0268 331.388 37.8946 331.287 37.7295C331.186 37.5645 331.135 37.3735 331.14 37.18C331.124 36.9692 331.176 36.7588 331.287 36.5791C331.399 36.3995 331.564 36.2597 331.76 36.18C332.236 35.9718 332.75 35.8662 333.27 35.87C333.956 35.8663 334.636 35.9988 335.27 36.26C335.901 36.5075 336.494 36.8443 337.03 37.26L337.19 37.38L338.19 35.66L338.08 35.57C337.4 35.0356 336.641 34.6105 335.83 34.31C335.022 34.0177 334.169 33.8688 333.31 33.87C332.263 33.8462 331.234 34.1427 330.36 34.72C329.935 35.0023 329.59 35.3906 329.36 35.8464C329.131 36.3023 329.024 36.8102 329.05 37.32C329.017 37.7716 329.101 38.2241 329.294 38.6339C329.486 39.0437 329.781 39.397 330.15 39.66C331.084 40.2295 332.139 40.572 333.23 40.66C334.097 40.7328 334.95 40.9177 335.77 41.21C335.959 41.2804 336.12 41.4099 336.23 41.5791C336.34 41.7484 336.393 41.9486 336.38 42.15C336.401 42.387 336.338 42.624 336.2 42.8183C336.063 43.0126 335.861 43.1515 335.63 43.21C334.624 43.5036 333.561 43.5468 332.535 43.3359C331.508 43.125 330.549 42.6664 329.74 42L329.59 41.87L328.59 43.6L328.71 43.69C329.436 44.2673 330.259 44.7109 331.14 45C332.016 45.2804 332.93 45.4221 333.85 45.42C334.953 45.4299 336.039 45.1506 337 44.61C337.467 44.3524 337.853 43.9679 338.111 43.5007C338.369 43.0336 338.49 42.5029 338.46 41.97C338.483 41.5249 338.395 41.081 338.205 40.6779C338.015 40.2749 337.728 39.9251 337.37 39.66Z" fill="#000"/>
<path d="M178.78 12.69H175.65V17.58H178.78C179.468 17.6365 180.154 17.4604 180.73 17.08C180.943 16.8649 181.106 16.6056 181.208 16.3205C181.31 16.0354 181.348 15.7314 181.32 15.43V14.84C181.352 14.5398 181.315 14.2364 181.213 13.9524C181.111 13.6683 180.946 13.4111 180.73 13.2C180.158 12.8102 179.469 12.63 178.78 12.69Z" fill="#000"/>
<path d="M215.79 6.26002C215.372 6.21598 214.95 6.26388 214.552 6.40035C214.155 6.53682 213.792 6.75856 213.49 7.05002C212.96 7.8676 212.72 8.83977 212.81 9.81002V14.29C212.721 15.2413 212.961 16.1942 213.49 16.99C214.15 17.496 214.958 17.7703 215.79 17.7703C216.622 17.7703 217.43 17.496 218.09 16.99C218.618 16.1942 218.858 15.2413 218.77 14.29V9.81002C218.859 8.83977 218.62 7.8676 218.09 7.05002C217.788 6.75799 217.425 6.53587 217.028 6.39937C216.63 6.26286 216.208 6.21529 215.79 6.26002Z" fill="#000"/>
<path d="M240 6.43999H237.9V17.58H240C240.485 17.6189 240.973 17.5544 241.432 17.3906C241.89 17.2268 242.309 16.9676 242.66 16.63C243.261 15.9282 243.573 15.0233 243.53 14.1V9.99999C243.564 9.07184 243.254 8.1638 242.66 7.44999C242.317 7.09784 241.901 6.82497 241.442 6.6505C240.982 6.47602 240.49 6.40417 240 6.43999Z" fill="#000"/>
<path d="M245.47 0.359985H169.47V23.27H245.47L256.93 11.81L245.47 0.359985ZM183.47 15.64C183.513 16.207 183.418 16.7758 183.193 17.2981C182.968 17.8204 182.621 18.2808 182.18 18.64C181.031 19.3726 179.68 19.7227 178.32 19.64H173.44V4.44999H178.2C179.434 4.36078 180.664 4.66918 181.71 5.32999C182.107 5.66601 182.42 6.09121 182.621 6.57087C182.823 7.05053 182.908 7.57106 182.87 8.08999V8.91999C182.899 9.51115 182.712 10.0927 182.344 10.5563C181.976 11.0199 181.453 11.334 180.87 11.44V11.7C181.585 11.773 182.248 12.1078 182.73 12.64C183.244 13.2432 183.512 14.0181 183.48 14.81L183.47 15.64ZM195.79 6.43999H188.02V10.37H194.86V12.37H188.02V17.59H195.79V19.59H185.84V4.44999H195.79V6.43999ZM205 13.91V19.58H202.82V13.91L197.41 4.44999H199.86L204.02 11.85L207.97 4.44999H210.39L205 13.91ZM221 14.29C221.101 15.763 220.628 17.2177 219.68 18.35C218.608 19.261 217.247 19.7612 215.84 19.7612C214.433 19.7612 213.072 19.261 212 18.35C211.056 17.2157 210.584 15.7624 210.68 14.29V9.80999C210.579 8.31856 211.051 6.84468 212 5.68999C212.504 5.19263 213.108 4.80796 213.772 4.56144C214.435 4.31492 215.144 4.21217 215.85 4.25999C216.552 4.21648 217.254 4.32134 217.913 4.56774C218.571 4.81414 219.17 5.19654 219.67 5.68999C220.623 6.8432 221.099 8.31723 221 9.80999V14.29ZM233 19.58H230L225.36 7.79999V19.58H223.36V4.44999H226.17L231 16.5V4.49999H233V19.58ZM244.2 18.09C243.635 18.6058 242.972 19.0033 242.251 19.2592C241.529 19.5151 240.764 19.6242 240 19.58H235.76V4.44999H240C240.761 4.41486 241.521 4.53409 242.234 4.80047C242.947 5.06686 243.599 5.47489 244.15 5.99999C244.661 6.52934 245.059 7.15674 245.32 7.84426C245.581 8.53177 245.7 9.26513 245.67 9.99999V14.1C245.705 14.8347 245.587 15.5686 245.323 16.2554C245.06 16.9421 244.657 17.5668 244.14 18.09H244.2Z" fill="#000"/>
<path d="M180.22 10.28C180.413 10.0985 180.562 9.87532 180.655 9.6275C180.749 9.37968 180.785 9.11377 180.76 8.85003V8.33003C180.784 8.06484 180.748 7.79764 180.654 7.54831C180.561 7.29899 180.412 7.07397 180.22 6.89003C179.683 6.54481 179.046 6.38663 178.41 6.44003H175.65V10.74H178.41C179.048 10.7912 179.684 10.6294 180.22 10.28Z" fill="#000"/>
<path d="M144 30.79V27.72H143.33C143.28 28.25 143.26 28.49 142.83 28.49C142.627 28.4857 142.43 28.4155 142.27 28.29C141.686 27.99 141.037 27.8356 140.38 27.84C139.95 27.8165 139.519 27.8845 139.117 28.0394C138.715 28.1943 138.35 28.4327 138.047 28.7388C137.744 29.0449 137.509 29.4119 137.358 29.8154C137.207 30.2189 137.143 30.6499 137.17 31.08C137.17 33.42 138.87 33.98 140.4 34.48C141.4 34.77 143.11 34.98 143.11 36.25C143.11 37.02 142.32 37.79 141.11 37.79C140.28 37.7888 139.483 37.4704 138.88 36.9C138.238 36.2561 137.845 35.4059 137.77 34.5H137.08V38.15H137.77C137.77 37.98 137.77 37.5 138.16 37.5C138.435 37.568 138.693 37.6904 138.92 37.86C139.561 38.2346 140.288 38.4346 141.03 38.44C141.515 38.4606 141.998 38.3816 142.451 38.2081C142.904 38.0345 143.317 37.7699 143.663 37.4307C144.01 37.0915 144.284 36.6848 144.467 36.2358C144.651 35.7868 144.74 35.3049 144.73 34.82C144.73 32.61 142.88 32.08 141.73 31.75L141.01 31.55C140.419 31.4287 139.852 31.2125 139.33 30.91C139.188 30.7853 139.074 30.6314 138.996 30.4589C138.919 30.2864 138.879 30.0992 138.88 29.91C138.899 29.7057 138.958 29.5071 139.053 29.3256C139.149 29.1441 139.28 28.9833 139.438 28.8523C139.596 28.7214 139.778 28.6228 139.974 28.5624C140.17 28.5019 140.376 28.4807 140.58 28.5C141.215 28.5086 141.833 28.7109 142.35 29.08C142.891 29.4955 143.25 30.105 143.35 30.78L144 30.79Z" fill="#000"/>
<path d="M129.46 30.5C129.56 29.5 129.7 28.39 131.38 28.39C133.06 28.39 133.01 29.56 133.08 30.39V31.78H129.44L129.46 30.5ZM131.89 37.69C129.49 37.69 129.42 35.29 129.39 34.38C129.39 33.74 129.39 33.11 129.39 32.49H136.25C136.175 31.3197 135.718 30.2064 134.95 29.32C134.489 28.8413 133.933 28.4628 133.319 28.2082C132.705 27.9536 132.045 27.8282 131.38 27.84C130.68 27.8165 129.983 27.9365 129.331 28.1927C128.68 28.4488 128.087 28.8357 127.591 29.3294C127.094 29.8231 126.704 30.4132 126.444 31.0634C126.185 31.7136 126.061 32.4101 126.08 33.11C126.064 33.828 126.196 34.5416 126.469 35.2062C126.741 35.8708 127.147 36.472 127.663 36.9723C128.178 37.4726 128.791 37.8612 129.463 38.1137C130.136 38.3662 130.853 38.4773 131.57 38.44C132.543 38.454 133.498 38.1755 134.311 37.6406C135.124 37.1057 135.758 36.3391 136.13 35.44L135.53 35.15C134.93 36.15 133.92 37.74 131.89 37.74" fill="#000"/>
<path d="M120.79 23.71C120.786 24.0534 120.885 24.3903 121.073 24.6776C121.261 24.9649 121.53 25.1898 121.846 25.3235C122.163 25.4572 122.512 25.4937 122.849 25.4284C123.186 25.3632 123.496 25.199 123.74 24.9569C123.983 24.7147 124.149 24.4056 124.217 24.0688C124.284 23.732 124.249 23.3828 124.117 23.0657C123.986 22.7486 123.762 22.4779 123.476 22.2881C123.19 22.0984 122.854 21.9981 122.51 22C122.054 22 121.616 22.1812 121.294 22.5038C120.971 22.8264 120.79 23.2639 120.79 23.72" fill="#000"/>
<path d="M119.71 28.75H121.34V37.52H119.71V38.15H125.87V37.52H124.33V27.91C123.21 27.98 122.58 28.03 121.98 28.08C121.38 28.13 120.79 28.13 119.71 28.13V28.75Z" fill="#000"/>
<path d="M114.12 37.64C113.636 37.5819 113.175 37.4006 112.781 37.1135C112.387 36.8264 112.074 36.443 111.87 36C111.486 35.1151 111.312 34.1535 111.36 33.19C111.36 30.51 112.25 29.64 112.8 29.19C113.149 28.9147 113.576 28.7572 114.02 28.74C115.15 28.74 115.54 29.74 115.7 30.37C115.897 31.2091 115.994 32.0683 115.99 32.93C116.04 35.83 115.73 37.65 114.12 37.65V37.64ZM114.6 27.85C113.98 27.8628 113.374 28.0294 112.834 28.3349C112.295 28.6404 111.84 29.0751 111.51 29.6V27.92C109.967 28.1412 108.407 28.2149 106.85 28.14V28.78H108.41V44.5H106.9V45.17H113.45V44.5H111.51V36.71C111.865 37.2415 112.345 37.6774 112.909 37.9791C113.472 38.2809 114.101 38.4392 114.74 38.44C115.429 38.4454 116.108 38.2812 116.719 37.9621C117.329 37.643 117.851 37.1787 118.24 36.61C118.96 35.6632 119.334 34.4988 119.3 33.31C119.3 29.4 116.64 27.84 114.6 27.84" fill="#000"/>
<path d="M101.32 37.93C100.907 37.9424 100.498 37.8359 100.144 37.6232C99.7894 37.4105 99.5034 37.1005 99.3198 36.73C99.1298 36.4 98.8898 35.89 98.8898 33.04C98.8898 30.93 98.8898 28.44 101.28 28.44C101.719 28.4196 102.154 28.5355 102.524 28.7718C102.895 29.0081 103.183 29.3533 103.35 29.76C103.49 30.07 103.63 30.4 103.66 32.94C103.66 35.3 103.66 37.94 101.31 37.94L101.32 37.93ZM106.92 32.94C106.845 31.5242 106.213 30.1955 105.162 29.2438C104.111 28.2921 102.726 27.7947 101.31 27.86C98.8598 27.86 95.5498 29.39 95.5498 33.11C95.5498 35.79 97.5498 38.43 101.38 38.43C102.485 38.4979 103.584 38.2207 104.524 37.6366C105.465 37.0526 106.201 36.1906 106.63 35.17C106.881 34.4551 106.98 33.6954 106.92 32.94Z" fill="#000"/>
<path d="M90.3601 27.91C88.7919 28.0686 87.2163 28.142 85.6401 28.13V28.75H87.2701V37.52H85.6401V38.15H92.2801V37.52H90.2801V33C90.2607 31.8195 90.6103 30.6623 91.2801 29.69C91.2801 29.69 92.0501 28.69 92.3801 28.69C92.5501 28.69 92.7201 28.81 92.7201 28.93C92.7201 29.05 92.6501 29.07 92.6001 29.17C92.3939 29.4163 92.2838 29.7289 92.2901 30.05C92.2939 30.2448 92.3368 30.4369 92.4164 30.6147C92.496 30.7925 92.6107 30.9525 92.7535 31.085C92.8963 31.2176 93.0643 31.32 93.2476 31.3861C93.4309 31.4523 93.6256 31.4808 93.8201 31.47C94.036 31.4802 94.2516 31.4449 94.4529 31.3663C94.6542 31.2877 94.8367 31.1677 94.9885 31.0139C95.1404 30.8602 95.2582 30.6762 95.3343 30.474C95.4103 30.2717 95.443 30.0557 95.4301 29.84C95.4305 29.5678 95.3754 29.2985 95.2681 29.0483C95.1608 28.7982 95.0035 28.5727 94.806 28.3854C94.6085 28.1982 94.3748 28.0533 94.1193 27.9595C93.8638 27.8657 93.5919 27.825 93.3201 27.84C92.8927 27.8318 92.4692 27.9222 92.0824 28.1043C91.6956 28.2865 91.3561 28.5553 91.0901 28.89C90.7979 29.2362 90.5368 29.6077 90.3101 30L90.3601 27.91Z" fill="#000"/>
<path d="M77.2701 21.08C76.8601 21.13 76.3801 21.2 75.0401 21.27C74.0401 21.32 73.2401 21.32 72.6001 21.32V22H74.3201V37.52H72.6001V38.15H78.7101V37.52H77.2501V33.16C77.2501 31.79 77.2501 30.26 78.6601 29.33C79.0494 29.046 79.5183 28.8921 80.0001 28.89C81.3201 28.89 81.4401 29.97 81.4101 31.2V37.52H80.1301V38.15H86.0001V37.52H84.4201V31.1C84.4738 30.6816 84.4441 30.2567 84.3325 29.8499C84.2209 29.4431 84.0298 29.0625 83.7701 28.73C83.4394 28.4082 83.0429 28.162 82.6078 28.0084C82.1727 27.8547 81.7095 27.7973 81.2501 27.84C80.4724 27.8312 79.7037 28.0081 79.0081 28.356C78.3124 28.7038 77.7097 29.2126 77.2501 29.84L77.2701 21.08Z" fill="#000"/>
<path d="M70.0802 24.1H69.4102C68.0202 27.1 66.5302 27.86 65.4102 28.37V28.75H67.1402L67.0901 35.61C67.0901 36.61 67.0902 38.44 69.5402 38.44C71.9902 38.44 72.6102 36.71 72.9402 35.56L72.2701 35.41C71.9801 36.41 71.6002 37.17 70.8801 37.17C70.1601 37.17 70.0402 36.28 70.0402 35.7V28.7H72.1301V28.08H70.0802V24.1Z" fill="#000"/>
<path d="M57.4401 27.91C55.6701 27.98 54.2801 28.13 52.8101 28.13V28.75H54.4401V37.52H52.8101V38.15H59.0001V37.52H57.4401V33.07C57.4004 32.4183 57.4339 31.7642 57.5401 31.12C57.6883 30.5451 58.0077 30.0289 58.4559 29.6396C58.9042 29.2503 59.4601 29.0063 60.0501 28.94C61.5201 28.94 61.5201 30.24 61.5201 31.58V37.52H60.1701V38.15H66.0701V37.52H64.4901V31.12C64.4901 30.07 64.4901 28.58 62.5501 28.03C62.1048 27.9017 61.6434 27.8377 61.1801 27.84C60.5558 27.8405 59.9375 27.9628 59.3601 28.2C58.5939 28.5085 57.929 29.0245 57.4401 29.69V27.91Z" fill="#000"/>
<path d="M47.3999 36.64C47.0956 36.8755 46.7245 37.0086 46.3399 37.02C46.1084 37.0143 45.8807 36.9608 45.6709 36.8629C45.461 36.765 45.2737 36.6248 45.1207 36.4511C44.9676 36.2774 44.8521 36.0739 44.7814 35.8535C44.7107 35.633 44.6864 35.4003 44.7099 35.17C44.7099 33.04 46.7999 32.92 48.0699 32.85V34.7C48.1217 35.0534 48.0879 35.4141 47.9713 35.7517C47.8547 36.0893 47.6588 36.3939 47.3999 36.64ZM52.2399 36.64C52.044 36.8331 51.7919 36.9592 51.5199 37C50.9399 37 50.9199 36.3 50.9199 35.75V31C51.0093 30.4315 50.8973 29.8496 50.6034 29.3548C50.3094 28.86 49.8519 28.4834 49.3099 28.29C48.5488 27.9925 47.7369 27.8465 46.9199 27.86C44.5899 27.86 42.7199 28.94 42.7199 30.47C42.7142 30.6466 42.7451 30.8225 42.8106 30.9865C42.8762 31.1506 42.9751 31.2993 43.1009 31.4233C43.2268 31.5473 43.377 31.6439 43.542 31.707C43.7071 31.7701 43.8834 31.7984 44.0599 31.79C44.2387 31.7954 44.4168 31.7646 44.5835 31.6996C44.7502 31.6345 44.902 31.5365 45.0299 31.4114C45.1578 31.2863 45.2592 31.1367 45.3279 30.9715C45.3966 30.8063 45.4313 30.6289 45.4299 30.45C45.4269 30.283 45.3858 30.1188 45.3099 29.97C45.2399 29.78 45.0899 29.63 45.0199 29.44C44.9737 29.3612 44.9495 29.2714 44.9499 29.18C44.9499 28.96 45.3099 28.48 46.3899 28.48C47.9899 28.48 48.0699 29.3 48.0699 30.3V32.2C46.5799 32.34 44.6099 32.51 43.2699 33.49C42.8549 33.7672 42.5121 34.1397 42.2703 34.5763C42.0285 35.013 41.8947 35.5011 41.8799 36C41.8799 36.74 42.2399 38.42 44.7099 38.42C45.3585 38.4182 45.9981 38.2687 46.5803 37.9828C47.1625 37.6969 47.6719 37.2821 48.0699 36.77C48.2258 37.2358 48.5198 37.6431 48.9127 37.9378C49.3057 38.2326 49.7791 38.4007 50.2699 38.42C50.7247 38.3998 51.1698 38.2823 51.5752 38.0752C51.9806 37.8682 52.3369 37.5766 52.6199 37.22L52.2399 36.64Z" fill="#000"/>
<path d="M39.7 21.08C38.8431 21.2186 37.9778 21.2988 37.11 21.32C36.25 21.32 35.46 21.32 35 21.32V22H36.68V37.52H35V38.15H41.28V37.52H39.7V21.08Z" fill="#000"/>
<path d="M29.4801 23.71C29.4761 24.053 29.5742 24.3894 29.7619 24.6766C29.9496 24.9637 30.2183 25.1885 30.5341 25.3225C30.8498 25.4565 31.1983 25.4937 31.5352 25.4292C31.8721 25.3647 32.1822 25.2015 32.4261 24.9604C32.6701 24.7193 32.8369 24.4111 32.9052 24.075C32.9736 23.7388 32.9406 23.39 32.8102 23.0727C32.6799 22.7554 32.4582 22.484 32.1733 22.293C31.8884 22.102 31.5531 22.0001 31.2101 22C30.9834 21.9987 30.7586 22.0422 30.5488 22.1281C30.339 22.2139 30.1482 22.3404 29.9874 22.5003C29.8266 22.6601 29.699 22.8502 29.612 23.0595C29.5249 23.2688 29.4801 23.4933 29.4801 23.72" fill="#000"/>
<path d="M28.4001 28.75H30.0001V37.52H28.4001V38.15H34.5601V37.52H33.0001V27.91C31.8701 27.98 31.2501 28.03 30.6501 28.08C30.0501 28.13 29.4501 28.13 28.3701 28.13L28.4001 28.75Z" fill="#000"/>
<path d="M19.2298 21.08C18.8198 21.13 18.3398 21.2 16.9998 21.27C15.9998 21.32 15.1998 21.32 14.5498 21.32V22H16.2798V37.52H14.5498V38.15H20.6698V37.52H19.1998V33.16C19.1998 31.79 19.2498 30.26 20.6198 29.33C21.0198 29.0372 21.5042 28.8828 21.9998 28.89C23.3198 28.89 23.4398 29.97 23.4198 31.2V37.52H22.0798V38.15H27.9998V37.52H26.3698V31.1C26.4258 30.6816 26.3971 30.2562 26.2855 29.849C26.1738 29.4419 25.9814 29.0613 25.7198 28.73C25.3918 28.4074 24.9971 28.1605 24.5635 28.0067C24.1298 27.853 23.6678 27.7961 23.2098 27.84C22.4321 27.8312 21.6635 28.0081 20.9678 28.356C20.2721 28.7038 19.6694 29.2126 19.2098 29.84L19.2298 21.08Z" fill="#000"/>
<path d="M9.85 28.92C9.23667 29.3192 8.5218 29.5344 7.79 29.54H5.59V21.85H7.72C8.18998 21.7952 8.66622 21.8579 9.10602 22.0324C9.54583 22.207 9.93546 22.4879 10.24 22.85C10.7179 23.7372 10.9166 24.748 10.81 25.75C10.81 27.81 10.21 28.67 9.81 28.94L9.85 28.92ZM12.88 22.27C11.6273 21.5124 10.1701 21.1629 8.71 21.27H0V21.9H2V37.52H0V38.15H7.84V37.52H5.59V30.24H8.85C10.2877 30.3451 11.7221 29.9953 12.95 29.24C13.4811 28.8551 13.9093 28.3455 14.1971 27.756C14.4848 27.1666 14.6232 26.5155 14.6 25.86C14.6133 25.1744 14.4688 24.4949 14.1774 23.8741C13.8861 23.2533 13.4559 22.7079 12.92 22.28" fill="#000"/>
<path d="M103.63 13.77C102.05 13.77 101.98 12.47 101.98 10.58C101.98 8.87 101.98 7.44 103.61 7.44C103.887 7.42169 104.163 7.48728 104.402 7.62821C104.641 7.76914 104.832 7.97886 104.95 8.23C105.202 9.01719 105.284 9.84885 105.19 10.67C105.19 12.38 105.19 13.77 103.63 13.77ZM106.37 19.18C106.87 19.18 108.07 19.18 108.07 20.5C108.07 21.82 106.37 23.28 103.51 23.28C100.88 23.28 99.9702 21.92 99.9702 20.84C99.9794 20.5216 100.056 20.2089 100.196 19.9226C100.336 19.6364 100.535 19.3832 100.78 19.18H106.37ZM107.88 8.37C108 8.37 108.02 8.37 108.21 8.61C108.296 8.7105 108.404 8.79048 108.525 8.84411C108.646 8.89774 108.778 8.92367 108.91 8.92C109.048 8.92044 109.185 8.89218 109.312 8.837C109.439 8.78182 109.553 8.70092 109.647 8.59941C109.741 8.49791 109.813 8.37801 109.858 8.24729C109.904 8.11658 109.921 7.97789 109.91 7.84C109.913 7.69219 109.886 7.54536 109.829 7.4086C109.773 7.27184 109.69 7.14807 109.584 7.04495C109.478 6.94183 109.352 6.86156 109.214 6.8091C109.075 6.75665 108.928 6.73313 108.78 6.74C108.419 6.7407 108.067 6.86016 107.78 7.08C107.428 7.37513 107.185 7.78015 107.09 8.23C106.638 7.78032 106.098 7.42708 105.505 7.19161C104.913 6.95613 104.278 6.84333 103.64 6.86C101.45 6.86 99.0102 8.08 99.0102 10.7C99.026 11.2794 99.1827 11.8462 99.4667 12.3515C99.7507 12.8567 100.153 13.2852 100.64 13.6C99.9584 13.7605 99.3487 14.1415 98.9057 14.684C98.4627 15.2264 98.2112 15.8999 98.1902 16.6C98.1826 16.906 98.2362 17.2105 98.3478 17.4955C98.4594 17.7806 98.6268 18.0405 98.8402 18.26C99.1749 18.6514 99.6477 18.8985 100.16 18.95C99.4902 19.19 98.2202 19.62 98.2202 20.95C98.2202 22.28 99.9902 23.95 103.44 23.95C106.73 23.95 109.17 22.32 109.17 19.42C109.196 18.7069 108.989 18.0047 108.58 17.42C107.71 16.18 106.83 16.2 105.1 16.2H100.98C100.18 16.2 99.4902 16.2 99.4902 15.41C99.4902 14.62 100.42 14.14 101.17 13.85C101.924 14.2371 102.763 14.4263 103.61 14.4C106.03 14.4 108.07 13.08 108.07 10.52C108.07 9.89718 107.885 9.28836 107.54 8.77C107.62 8.43 107.69 8.31 107.81 8.31" fill="#000"/>
<path d="M93.4202 6.93C91.852 7.08856 90.2763 7.162 88.7002 7.15V7.77H90.3302V16.55H88.7002V17.17H95.3402V16.55H93.3402V12C93.3208 10.8195 93.6704 9.66231 94.3402 8.69C94.3402 8.69 95.1102 7.69 95.4402 7.69C95.6102 7.69 95.7802 7.81 95.7802 7.93C95.7802 8.05 95.7102 8.07 95.6602 8.17C95.4505 8.41883 95.3369 8.73461 95.3402 9.06C95.3452 9.25485 95.3894 9.44668 95.4702 9.62404C95.5511 9.80141 95.6668 9.96066 95.8105 10.0923C95.9543 10.2239 96.1231 10.3252 96.3069 10.3901C96.4907 10.455 96.6857 10.4822 96.8802 10.47C97.096 10.4802 97.3116 10.4449 97.5129 10.3663C97.7142 10.2877 97.8967 10.1677 98.0486 10.0139C98.2004 9.86018 98.3182 9.67621 98.3943 9.47396C98.4704 9.27171 98.5031 9.05571 98.4902 8.84C98.4906 8.56784 98.4355 8.29846 98.3282 8.04835C98.2208 7.79824 98.0636 7.57266 97.8661 7.38543C97.6685 7.1982 97.4349 7.05326 97.1794 6.95947C96.9239 6.86569 96.6519 6.82503 96.3802 6.84C95.9517 6.83142 95.5271 6.92274 95.1401 7.10673C94.753 7.29071 94.4141 7.56231 94.1502 7.9C93.8554 8.24071 93.5942 8.60909 93.3702 9L93.4202 6.93Z" fill="#000"/>
<path d="M81.72 9.52001C81.82 8.52001 81.96 7.41001 83.64 7.41001C85.32 7.41001 85.27 8.59001 85.34 9.41001V10.8H81.7L81.72 9.52001ZM84.14 16.71C81.75 16.71 81.67 14.32 81.65 13.41C81.65 12.76 81.65 12.14 81.65 11.51H88.51C88.4359 10.3424 87.979 9.23174 87.21 8.35001C86.7501 7.86855 86.1955 7.48759 85.581 7.23114C84.9666 6.9747 84.3057 6.84833 83.64 6.86001C82.939 6.83499 82.2403 6.9543 81.5873 7.21052C80.9342 7.46675 80.3408 7.85444 79.8439 8.34953C79.3469 8.84461 78.957 9.43654 78.6983 10.0886C78.4396 10.7406 78.3176 11.4389 78.34 12.14C78.3238 12.8576 78.4561 13.5708 78.7285 14.2349C79.0009 14.899 79.4076 15.4996 79.923 15.9991C80.4385 16.4986 81.0516 16.8862 81.7239 17.1376C82.3963 17.389 83.1133 17.4988 83.83 17.46C84.8088 17.47 85.7679 17.1841 86.5815 16.6399C87.3952 16.0957 88.0255 15.3185 88.39 14.41L87.79 14.13C87.19 15.08 86.18 16.71 84.14 16.71Z" fill="#000"/>
<path d="M72.1798 16.67C71.6978 16.6491 71.2287 16.5083 70.8148 16.2603C70.401 16.0124 70.0555 15.6651 69.8098 15.25C69.3004 14.3091 69.0518 13.2492 69.0898 12.18C69.07 11.172 69.2822 10.173 69.7098 9.25998C69.9528 8.80115 70.3055 8.40951 70.7364 8.11989C71.1673 7.83028 71.6632 7.65168 72.1798 7.59998C72.662 7.61775 73.1191 7.81926 73.4575 8.16323C73.7959 8.5072 73.9899 8.96756 73.9998 9.44998C74.1171 10.268 74.1739 11.0936 74.1698 11.92C74.1698 14.58 74.0998 16.67 72.1698 16.67H72.1798ZM72.6498 6.85998C71.9776 6.85952 71.3147 7.01778 70.7152 7.32187C70.1157 7.62597 69.5965 8.06731 69.1998 8.60997V0.0999756C68.3421 0.235679 67.4774 0.322486 66.6098 0.359976H64.5298V0.999976H66.2098V16.55H64.5298V17.17H69.1798V15.66C69.5834 16.2162 70.1147 16.6673 70.729 16.9753C71.3433 17.2833 72.0226 17.4392 72.7098 17.43C73.4113 17.4634 74.1099 17.3207 74.7422 17.0151C75.3745 16.7094 75.9202 16.2505 76.3298 15.68C77.1007 14.7169 77.5078 13.5132 77.4798 12.28C77.4798 8.38997 74.8198 6.85998 72.6598 6.85998" fill="#000"/>
<path d="M49.9999 6.93001C48.4817 7.12732 46.95 7.2009 45.4199 7.15001V7.77001H46.9999V16.55H45.3799V17.17H51.3799V16.55H49.9299V11.46C49.8679 10.5302 50.1139 9.60594 50.6299 8.83001C50.845 8.57425 51.1126 8.36776 51.4146 8.22455C51.7165 8.08134 52.0457 8.00476 52.3799 8.00001C53.6699 8.00001 53.8199 9.13001 53.8199 10.5V16.59H52.5199V17.21H58.1499V16.59H56.7199V11.87C56.7199 10.6 56.7199 9.52001 57.6499 8.66001C58.0671 8.2296 58.6313 7.97248 59.2299 7.94001C60.5999 7.94001 60.5999 9.11001 60.5999 10.34V16.55H59.2799V17.17H65.0599V16.55H63.5699V10.26C63.4999 8.97001 63.4799 6.86001 60.3099 6.86001C59.5783 6.83071 58.8532 7.00849 58.2182 7.3729C57.5831 7.73732 57.0638 8.27358 56.7199 8.92001C56.4727 8.25823 56.0148 7.69609 55.4167 7.32022C54.8185 6.94435 54.1134 6.77561 53.4099 6.84001C52.7354 6.84954 52.0731 7.02181 51.4794 7.34215C50.8857 7.6625 50.3782 8.12146 49.9999 8.68001V6.93001Z" fill="#000"/>
<path d="M39.55 17C39.1383 17.0109 38.7319 16.9048 38.378 16.6942C38.024 16.4836 37.7369 16.1771 37.55 15.81C37.36 15.47 37.12 14.97 37.12 12.11C37.12 10 37.12 7.51003 39.52 7.51003C39.9574 7.49168 40.3899 7.60856 40.7585 7.84475C41.1271 8.08094 41.4139 8.42498 41.58 8.83003C41.72 9.14003 41.87 9.48003 41.89 12.02C41.89 14.37 41.89 17.02 39.54 17.02L39.55 17ZM45.15 12.02C45.0724 10.6051 44.4397 9.27796 43.3893 8.32681C42.3389 7.37566 40.9557 6.87732 39.54 6.94003C37.1 6.94003 33.79 8.47003 33.79 12.19C33.79 14.88 35.79 17.51 39.61 17.51C40.7151 17.5779 41.814 17.3007 42.7545 16.7166C43.6951 16.1326 44.4309 15.2706 44.86 14.25C45.1166 13.5364 45.2156 12.7756 45.15 12.02Z" fill="#000"/>
<path d="M27.31 17C26.8979 17.0133 26.4905 16.9083 26.1361 16.6974C25.7817 16.4865 25.495 16.1786 25.31 15.81C25.11 15.47 24.88 14.97 24.88 12.11C24.88 10 24.88 7.51003 27.27 7.51003C27.7088 7.49104 28.1428 7.60753 28.5132 7.84367C28.8835 8.07981 29.1722 8.42418 29.34 8.83003C29.48 9.14003 29.62 9.48003 29.65 12.02C29.65 14.37 29.65 17.02 27.3 17.02L27.31 17ZM32.91 12.02C32.8324 10.6051 32.1997 9.27796 31.1493 8.32681C30.0989 7.37566 28.7157 6.87732 27.3 6.94003C24.85 6.94003 21.54 8.47003 21.54 12.19C21.54 14.88 23.54 17.51 27.37 17.51C28.4746 17.575 29.5722 17.2965 30.5122 16.7128C31.4521 16.1291 32.1884 15.2688 32.62 14.25C32.867 13.5341 32.9657 12.7753 32.91 12.02Z" fill="#000"/>
<path d="M19.71 0.0999756C18.8537 0.243532 17.9881 0.32375 17.12 0.339976C16.25 0.339976 15.46 0.339976 15.01 0.339976V0.999976H16.69V16.55H15V17.17H21.28V16.55H19.71V0.0999756Z" fill="#000"/>
<path d="M10.4298 15.4C10.1746 15.8015 9.81099 16.1226 9.38097 16.3261C8.95094 16.5296 8.4721 16.6072 7.9998 16.55H5.6298V8.71001H7.8598C8.30463 8.66749 8.75324 8.72942 9.16991 8.89088C9.58657 9.05234 9.95978 9.30886 10.2598 9.64001C10.8012 10.5415 11.0362 11.5939 10.9298 12.64C11.0026 13.5715 10.8303 14.5058 10.4298 15.35V15.4ZM5.6298 0.920009H7.4998C9.4998 0.920009 10.4998 1.39001 10.4998 4.56001C10.4998 7.36001 9.4998 8.04001 7.6198 8.04001H5.6198L5.6298 0.920009ZM11.4098 8.61001C10.8167 8.47461 10.2154 8.37774 9.6098 8.32001C10.1606 8.25582 10.7056 8.14883 11.2398 8.00001C12.0454 7.81513 12.7634 7.36016 13.2746 6.71071C13.7858 6.06127 14.0593 5.25645 14.0498 4.43001C14.0741 3.7417 13.9053 3.06034 13.5624 2.46301C13.2196 1.86567 12.7164 1.37621 12.1098 1.05001C10.7811 0.435328 9.32148 0.157146 7.8598 0.240009H0.0498047V0.870009H2.0498V16.55H0.0498047V17.17H7.5298C10.0498 17.17 13.0698 17.17 14.3598 14.72C14.6781 14.1016 14.8428 13.4156 14.8398 12.72C14.8381 11.7454 14.4936 10.8025 13.8664 10.0565C13.2393 9.31056 12.3696 8.80909 11.4098 8.64001" fill="#000"/>
<path d="M157.05 0H156.32V45.25H157.05V0Z" fill="#000"/>
</g>
<defs>
<clipPath id="clip0_2805_2345">
<rect width="338.46" height="45.38" fill="white"/>
</clipPath>
</defs>
</svg>