<svg width="325" height="108" viewBox="0 0 325 108" fill="none" xmlns="http://www.w3.org/2000/svg">
<path d="M263.646 101.831V5.54776H285.947V82.2674H325V101.794H263.646V101.831ZM85.096 41.8272L139.479 0C144.607 4.16082 149.698 8.35813 154.826 12.5372L103.236 51.5905L114.386 61.3538L165.976 20.9136C171.104 25.0744 176.196 29.2717 181.324 33.469C164.209 47.0534 147.012 60.5337 129.734 73.9092L140.866 83.6908L192.511 41.8089L192.493 5.566H214.811V82.2856H255.252V101.812H193.898V65.5511C175.74 79.4753 157.637 93.4542 139.497 107.378L85.096 65.5511C82.4681 78.8548 73.1793 90.37 61.1531 96.4653C55.9521 99.1479 50.2583 100.845 44.4551 101.502C41.1154 101.904 37.7576 101.812 34.3997 101.812H0V5.566H39.6738C50.0504 5.67124 60.0927 9.24996 68.1973 15.7308C76.4824 22.3005 82.3951 31.6441 85.1143 41.8272M20.9501 25.0927V83.6726L38.3416 83.6543C41.9977 83.5354 45.5837 82.6197 48.8493 80.9712C52.1148 79.3227 54.981 76.9811 57.2477 74.11C61.079 69.3022 63.4322 63.4856 64.0218 57.3663C64.6114 51.247 63.4119 45.0881 60.5691 39.6373C58.775 36.1672 56.2562 33.1233 53.1832 30.7115C50.1102 28.2997 46.5549 26.5764 42.7579 25.6584C39.7285 24.9284 36.5896 25.1109 33.5055 25.0744H20.9501V25.0927Z" fill="black"/>
</svg>
