<svg width="501" height="160" viewBox="0 0 501 160" fill="none" xmlns="http://www.w3.org/2000/svg">
<path d="M25.7786 56.639C18.8 56.639 13.1897 59.5347 9.58462 65.0726V0H0V108.45H9.58462V80.5064C9.58462 71.0956 15.1008 65.6735 23.5924 65.6445C31.0704 65.7096 34.9288 69.6767 34.9723 78.3781V108.45H44.5641V77.4588C44.5641 63.8202 36.4708 56.6607 25.7786 56.6462" fill="black"/>
<path d="M454.19 109.492C461.176 109.492 466.787 106.596 470.384 101.066V159.059H479.955V57.7106H470.384V85.6537C470.384 95.0645 464.868 100.494 456.384 100.516C448.906 100.458 445.047 96.4834 445.004 87.782V57.6816H435.412V88.6796C435.412 102.325 443.505 109.485 454.19 109.492Z" fill="black"/>
<path d="M82.707 56.6387C68.2287 56.6387 56.8053 68.0186 56.7764 83.2208C56.7764 98.2927 68.207 109.651 82.707 109.68C97.0694 109.68 108.486 98.2927 108.5 83.2208C108.5 68.0186 97.0694 56.6532 82.707 56.6387ZM82.707 101.116C73.2454 101.116 66.7809 93.4063 66.7809 83.2208C66.7809 72.9123 73.2382 65.1953 82.707 65.1881C92.1757 65.1809 98.6331 72.9123 98.6331 83.2208C98.5896 93.4063 92.1757 101.101 82.707 101.116Z" fill="black"/>
<path d="M147.367 56.6387C139.701 56.6387 133.794 59.7877 130.276 65.4704V57.8404H120.713V159.058H130.305V100.841C133.823 106.516 139.716 109.687 147.396 109.687C161.049 109.651 171.423 98.271 171.43 83.2208C171.43 68.0186 161.049 56.6604 147.396 56.6387M145.644 100.797C136.313 100.797 130.03 93.5583 130.022 83.2063C130.022 72.724 136.313 65.4994 145.644 65.4921C155.121 65.4921 161.571 72.7313 161.571 83.2063C161.571 93.5293 155.128 100.783 145.644 100.797Z" fill="black"/>
<path d="M233.173 108.464V0H223.602V65.5142C219.983 59.8098 214.076 56.6101 206.496 56.639C192.858 56.639 182.347 68.0262 182.332 83.2211C182.332 98.2858 192.872 109.651 206.496 109.687H206.547C214.083 109.687 219.968 106.495 223.602 100.798V108.464H233.173ZM208.125 100.812C198.642 100.812 192.373 93.5731 192.344 83.2211C192.344 72.7389 198.642 65.5142 208.125 65.507C217.608 65.4997 223.885 72.7461 223.899 83.2211C223.899 93.5586 217.608 100.798 208.125 100.812Z" fill="black"/>
<path d="M297.087 83.2499C297.087 68.0477 285.671 56.6678 271.301 56.6533C256.823 56.6533 245.392 68.0332 245.363 83.2499C245.363 98.3073 256.787 109.666 271.301 109.694C285.671 109.694 297.08 98.3073 297.087 83.2499ZM255.375 83.2499C255.375 72.9269 261.84 65.21 271.301 65.2027C280.763 65.1955 287.227 72.9269 287.227 83.2499C287.227 93.3847 280.77 101.116 271.301 101.131C261.832 101.145 255.375 93.4209 255.375 83.2499Z" fill="black"/>
<path d="M358.924 108.464V0H349.368V65.507C345.749 59.8098 339.82 56.6101 332.262 56.639C318.602 56.6607 308.098 68.0479 308.076 83.2501C308.076 98.293 318.624 109.673 332.262 109.709C339.805 109.709 345.698 106.517 349.332 100.819V108.486L358.924 108.464ZM333.876 100.812C324.393 100.812 318.124 93.5731 318.088 83.2284C318.124 72.7389 324.393 65.5142 333.876 65.507C343.36 65.4997 349.651 72.7389 349.651 83.2501C349.651 93.5803 343.36 100.819 333.876 100.834" fill="black"/>
<path d="M412.399 108.464H421.962V0H412.399V65.507C408.78 59.8098 402.865 56.6101 395.286 56.639C381.655 56.6607 371.151 68.0479 371.129 83.2501C371.129 98.3075 381.655 109.673 395.286 109.709H395.329C402.873 109.709 408.765 106.517 412.399 100.819V108.464ZM396.908 100.812C387.439 100.812 381.17 93.5731 381.162 83.2284C381.162 72.7389 387.439 65.5142 396.908 65.507C406.376 65.4997 412.667 72.7461 412.682 83.2284C412.682 93.5586 406.405 100.798 396.908 100.812Z" fill="black"/>
<path d="M177.149 133.968C179.48 133.968 181.934 134.062 183.476 136.226C184.153 137.186 184.498 138.34 184.461 139.513C184.498 140.214 184.395 140.915 184.159 141.576C183.923 142.237 183.558 142.845 183.085 143.364C182.752 143.697 182.477 143.835 182.361 143.98C182.938 144.107 183.493 144.322 184.005 144.617C184.967 145.21 186.285 146.477 186.285 149.242C186.332 150.444 186.046 151.635 185.459 152.684C184.871 153.733 184.004 154.599 182.955 155.186C181.768 155.765 180.595 155.91 178.054 155.91H170.562V133.968H177.149ZM174.977 152.066H177.938C179.176 152.066 180.494 152 181.283 150.82C181.588 150.267 181.743 149.643 181.732 149.011C181.752 148.44 181.604 147.876 181.304 147.389C180.58 146.339 179.328 146.303 178.221 146.339H174.977V152.066ZM175.035 142.481H177.258C178.235 142.481 179.089 142.387 179.683 141.431C179.945 140.993 180.092 140.494 180.11 139.983C180.124 139.667 180.066 139.352 179.94 139.061C179.815 138.77 179.626 138.511 179.386 138.304C178.74 137.896 177.974 137.72 177.214 137.805H175.043L175.035 142.481Z" fill="black"/>
<path d="M202.391 133.967V147.526C202.276 148.64 202.547 149.759 203.159 150.697C203.566 151.204 204.089 151.607 204.683 151.871C205.277 152.136 205.926 152.254 206.576 152.217C209.189 152.217 210.065 150.552 210.304 149.503C210.421 148.906 210.484 148.301 210.492 147.693V133.938H215.002V146.231C215.002 148.656 214.915 151.066 213.511 153.18C211.339 156.438 207.546 156.561 206.424 156.561C203.195 156.561 199.749 155.113 198.519 151.74C198.101 150.445 197.905 149.089 197.939 147.729V133.975L202.391 133.967Z" fill="black"/>
<path d="M234.129 133.968C234.686 133.968 235.229 133.968 235.786 134.004C238.081 134.091 240.296 134.634 241.65 136.806C242.311 137.915 242.652 139.185 242.635 140.476C242.635 142.467 241.911 144.617 240.209 145.739C239.492 146.178 238.695 146.473 237.864 146.607L243.996 155.939H238.537L232.912 146.658V155.939H228.453V133.968H234.129ZM232.963 143.589H234.592C235.83 143.589 237.046 143.458 237.748 142.228C238.004 141.749 238.134 141.214 238.125 140.671C238.153 140.02 237.942 139.382 237.531 138.876C236.764 137.92 235.634 137.833 234.505 137.797H232.963V143.589Z" fill="black"/>
<path d="M269.854 140.663C269.628 140.316 269.361 139.997 269.057 139.715C268.425 139.082 267.672 138.583 266.842 138.248C266.012 137.914 265.123 137.75 264.229 137.768C262.744 137.74 261.303 138.27 260.19 139.252C259.436 139.959 258.845 140.82 258.456 141.778C258.067 142.735 257.891 143.765 257.938 144.797C257.883 146.369 258.291 147.922 259.111 149.263C259.662 150.156 260.434 150.891 261.352 151.398C262.27 151.906 263.303 152.168 264.352 152.159C265.25 152.191 266.142 152.012 266.957 151.634C267.772 151.257 268.487 150.693 269.043 149.987C269.392 149.473 269.688 148.925 269.926 148.351H264.294V144.247H274.899C274.899 145.485 274.994 148.952 272.851 152.043C271.86 153.413 270.552 154.524 269.04 155.28C267.527 156.036 265.855 156.416 264.164 156.387C263.299 156.379 262.438 156.28 261.594 156.09C260.301 155.838 259.074 155.322 257.989 154.575C256.904 153.827 255.985 152.865 255.289 151.747C253.98 149.716 253.323 147.334 253.406 144.92C253.38 143.897 253.485 142.876 253.718 141.88C254.105 140.057 254.933 138.357 256.128 136.928C256.61 136.409 257.127 135.925 257.678 135.48C259.911 133.835 262.676 133.079 265.436 133.362C268.196 133.644 270.751 134.944 272.605 137.008C272.972 137.442 273.301 137.907 273.589 138.398L269.854 140.663Z" fill="black"/>
<path d="M298.419 133.968V138.232H290.992V142.597H298.26V146.868H290.992V151.559H298.397V155.939H286.409V133.968H298.419Z" fill="black"/>
<path d="M317.009 133.968C317.588 133.968 318.117 133.968 318.681 134.004C320.969 134.091 323.191 134.634 324.531 136.806C325.192 137.914 325.536 139.184 325.522 140.476C325.522 142.467 324.798 144.617 323.097 145.739C322.379 146.182 321.579 146.477 320.744 146.607L326.869 155.939H321.418L315.815 146.658V155.939H311.341V133.968H317.009ZM315.829 143.589H317.472C318.703 143.589 319.963 143.458 320.629 142.228C320.891 141.751 321.028 141.215 321.027 140.671C321.048 140.02 320.835 139.383 320.426 138.876C319.644 137.92 318.5 137.833 317.386 137.797H315.829V143.589Z" fill="black"/>
<path d="M366.46 133.968C368.798 133.968 371.216 134.062 372.787 136.226C373.468 137.184 373.817 138.338 373.778 139.513C373.814 140.214 373.71 140.916 373.473 141.577C373.236 142.238 372.869 142.846 372.396 143.364C372.165 143.581 371.923 143.787 371.672 143.98C372.255 144.102 372.814 144.317 373.329 144.617C374.285 145.21 375.61 146.477 375.61 149.242C375.657 150.444 375.371 151.635 374.783 152.684C374.196 153.733 373.329 154.599 372.28 155.186C371.114 155.765 369.927 155.91 367.379 155.91H359.857V133.968H366.46ZM364.288 152.066H367.263C368.501 152.066 369.811 152 370.593 150.82C370.924 150.276 371.093 149.648 371.078 149.011C371.098 148.437 370.941 147.871 370.629 147.389C369.905 146.339 368.66 146.303 367.545 146.339H364.288V152.066ZM364.36 142.481H366.583C367.574 142.481 368.407 142.387 369.015 141.431C369.268 140.99 369.408 140.492 369.42 139.983C369.433 139.667 369.374 139.352 369.249 139.062C369.123 138.771 368.935 138.512 368.696 138.304C368.051 137.895 367.284 137.718 366.525 137.805H364.353L364.36 142.481Z" fill="black"/>
<path d="M396.704 133.968L405.391 155.939H400.411L398.746 151.486H390.015L388.473 155.939H383.551L391.869 133.968H396.704ZM397.262 147.353C396.755 145.862 396.205 144.356 395.698 142.894C395.058 141.259 394.597 139.56 394.323 137.826C394.25 138.261 394.214 138.717 394.105 139.151C393.859 140.215 393.273 141.989 392.896 143.067C392.426 144.515 391.963 145.905 391.449 147.346L397.262 147.353Z" fill="black"/>
<path d="M421.42 133.968C421.984 133.968 422.527 133.968 423.099 134.004C425.372 134.091 427.587 134.634 428.941 136.806C429.604 137.914 429.95 139.184 429.94 140.476C429.94 142.467 429.165 144.617 427.5 145.739C426.787 146.183 425.992 146.478 425.162 146.607L431.272 155.939H425.799L420.218 146.658V155.939H415.744V133.968H421.42ZM420.254 143.589H421.89C423.121 143.589 424.344 143.458 425.046 142.228C425.299 141.747 425.433 141.214 425.437 140.671C425.456 140.018 425.237 139.38 424.822 138.876C424.055 137.92 422.911 137.833 421.811 137.797H420.254V143.589Z" fill="black"/>
<path d="M484.298 150.849C484.354 149.306 484.862 147.813 485.76 146.556C486.658 145.3 487.906 144.335 489.348 143.783C490.79 143.231 492.363 143.115 493.871 143.45C495.378 143.786 496.754 144.557 497.826 145.669C498.898 146.781 499.619 148.183 499.9 149.702C500.181 151.221 500.008 152.788 499.404 154.21C498.8 155.631 497.791 156.843 496.503 157.695C495.215 158.547 493.704 159.001 492.16 159.001C491.107 158.987 490.067 158.766 489.1 158.348C488.133 157.93 487.259 157.324 486.527 156.566C485.796 155.808 485.223 154.912 484.84 153.931C484.457 152.95 484.273 151.902 484.298 150.849ZM498.154 150.849C498.154 147.186 495.533 144.587 492.16 144.587C488.786 144.587 486.166 147.186 486.166 150.849C486.166 154.512 488.728 157.068 492.16 157.068C492.966 157.07 493.764 156.91 494.506 156.595C495.248 156.28 495.919 155.818 496.477 155.237C497.035 154.656 497.47 153.967 497.754 153.213C498.039 152.459 498.167 151.655 498.132 150.849H498.154ZM495.881 154.99H493.926L492.095 151.407H490.813V154.99H489.004V146.506H492.985C494.875 146.506 496.163 146.853 496.163 149.097C496.163 150.661 495.389 151.269 493.941 151.407L495.881 154.99ZM492.985 150.125C493.897 150.125 494.433 149.923 494.433 148.851C494.433 147.99 493.383 147.99 492.587 147.99H490.813V150.125H492.985Z" fill="black"/>
</svg>
