<svg width="444" height="119" viewBox="0 0 444 119" fill="none" xmlns="http://www.w3.org/2000/svg">
<path fill-rule="evenodd" clip-rule="evenodd" d="M441.65 20.4702C440.083 18.6927 437.974 17.819 435.173 17.819C432.371 17.819 430.171 18.7529 428.635 20.7112C427.129 22.6092 426.345 25.4412 426.345 29.0867V55.84C422.85 52.074 419.235 49.3927 415.529 47.585C413.24 46.4703 410.528 45.6568 407.485 45.2652C405.708 45.0543 403.93 44.9338 401.942 44.9338C392.723 44.9338 385.251 48.0972 379.527 54.4842C373.863 60.811 371.031 69.6384 371.031 80.9362C371.031 86.2688 371.754 91.27 373.2 95.8494C374.646 100.399 376.695 104.406 379.467 107.84C382.238 111.214 385.583 113.836 389.349 115.734C393.115 117.571 397.242 118.505 401.731 118.505C403.78 118.505 405.738 118.325 407.516 117.993C408.751 117.812 409.835 117.481 411.01 117.15C413.842 116.216 416.494 114.86 418.904 113.143C421.404 111.365 423.845 109.106 426.345 106.304V108.081C426.345 111.425 427.189 113.956 428.846 115.794C430.563 117.571 432.672 118.505 435.173 118.505C437.794 118.505 439.903 117.632 441.499 115.944C443.096 114.167 444 111.606 444 108.111V28.1226C443.91 24.8086 443.156 22.1875 441.65 20.4702ZM422.881 94.3129C421.284 97.6872 419.054 100.248 416.433 101.905C413.722 103.562 410.769 104.345 407.485 104.345H407.425C404.141 104.345 401.219 103.472 398.477 101.785C395.766 100.007 393.597 97.4462 392.03 94.0116C390.463 90.5771 389.71 86.3592 389.71 81.4785C389.71 76.8088 390.433 72.7114 391.94 69.2769C393.386 65.7821 395.495 63.0706 398.146 61.1725C400.857 59.2444 403.87 58.3406 407.305 58.3406H407.485C410.709 58.3406 413.631 59.2745 416.373 61.1123C419.085 62.9501 421.254 65.6013 422.85 69.0358C424.447 72.4704 425.231 76.6882 425.231 81.4785C425.291 86.6002 424.507 90.8783 422.881 94.3129ZM364.313 95.0962C363.138 94.102 361.601 93.5898 359.643 93.5898C357.865 93.5898 356.6 94.0417 355.606 94.7648C353.286 96.8737 351.388 98.591 349.942 99.8262C348.496 101.001 346.899 102.146 345.121 103.261C343.464 104.315 341.626 105.159 339.789 105.581C337.891 106.093 335.902 106.364 333.673 106.364C333.161 106.364 332.739 106.364 332.287 106.304C329.515 106.123 326.894 105.37 324.574 103.984C321.803 102.387 319.633 100.037 317.916 96.9942C316.319 93.8308 315.416 90.1553 315.355 86.0579H351.81C356.69 86.0579 360.456 85.3349 363.138 84.0695C365.849 82.6836 367.175 79.7311 367.175 75.1819C367.175 70.2409 365.849 65.4205 363.228 60.6905C360.607 55.9605 356.781 52.1041 351.508 49.1516C346.296 46.169 340.09 44.7229 332.799 44.7229H332.257C326.864 44.7831 321.923 45.6568 317.555 47.344C312.945 49.1215 309.119 51.6221 305.895 54.8458C302.852 58.1297 300.412 62.0462 298.785 66.6558C297.158 71.2653 296.284 76.2665 296.284 81.5689C296.284 92.9571 299.629 101.875 306.227 108.533C312.493 114.8 321.14 118.144 332.197 118.475C332.799 118.535 333.462 118.535 334.125 118.535C339.277 118.535 343.946 117.873 347.983 116.547C352.021 115.221 355.365 113.564 358.016 111.546C360.667 109.497 362.686 107.388 363.951 105.219C365.277 103.05 365.939 101.122 365.939 99.4948C366.12 97.5365 365.518 96.0603 364.313 95.0962ZM320.899 61.9257C323.851 58.8226 327.677 57.256 332.317 57.256H332.377C337.198 57.256 341.144 58.7623 344.097 61.8052C347.049 64.8481 348.827 69.5179 349.189 75.7242H315.446C316.078 69.6384 317.856 65.0289 320.899 61.9257ZM285.137 93.5597C283.299 93.5597 282.034 94.0116 281.04 94.7347C278.75 96.8436 276.822 98.5609 275.376 99.7961C273.93 100.971 272.393 102.116 270.616 103.231C268.899 104.285 267.121 105.129 265.223 105.55C263.385 106.063 261.336 106.334 259.107 106.334C258.595 106.334 258.173 106.334 257.721 106.274C254.949 106.093 252.328 105.34 250.009 103.954C247.297 102.357 245.068 100.007 243.471 96.9641C241.754 93.8007 240.91 90.1252 240.85 86.0278H277.244C282.064 86.0278 285.83 85.3047 288.572 84.0394C291.223 82.6535 292.579 79.701 292.579 75.1517C292.579 70.2108 291.313 65.3904 288.692 60.6604C286.071 55.9303 282.215 52.074 276.973 49.1215C271.761 46.1389 265.494 44.6928 258.263 44.6928H257.661C252.268 44.753 247.387 45.6267 242.959 47.3139C238.349 49.0914 234.523 51.592 231.36 54.8156C228.256 58.0995 225.816 62.0161 224.189 66.6256C222.532 71.2352 221.689 76.2363 221.689 81.5388C221.689 92.927 225.063 101.845 231.691 108.503C237.957 114.77 246.574 118.114 257.601 118.445C258.263 118.505 258.866 118.505 259.529 118.505C264.741 118.505 269.35 117.843 273.388 116.517C277.425 115.191 280.769 113.534 283.39 111.516C286.101 109.467 288.06 107.358 289.385 105.189C290.711 103.02 291.374 101.092 291.374 99.4647C291.374 97.6269 290.771 96.1808 289.596 95.1866C288.572 94.0417 286.945 93.5597 285.137 93.5597ZM246.273 61.9257C249.225 58.8226 253.051 57.256 257.691 57.256H257.751C262.572 57.256 266.518 58.7623 269.471 61.8052C272.454 64.8481 274.201 69.5179 274.623 75.7242H240.85C241.513 69.6384 243.35 65.0289 246.273 61.9257ZM38.7539 106.364V63.1308C40.0193 63.2513 41.2545 63.3116 42.4596 63.3116C48.5153 63.3116 54.1793 61.7148 58.9997 58.9431V106.394C58.9997 110.431 58.0657 113.444 56.1677 115.432C54.2696 117.421 51.8293 118.415 48.7864 118.415C45.8339 118.415 43.4538 117.421 41.5859 115.372C39.7783 113.293 38.7539 110.371 38.7539 106.364ZM214.006 20.4702C212.439 18.6927 210.3 17.819 207.559 17.819C204.727 17.819 202.558 18.7529 201.021 20.7112C199.454 22.6092 198.731 25.4412 198.731 29.0867V55.84C195.237 52.074 191.621 49.3927 187.916 47.585C185.596 46.4703 182.914 45.6568 179.932 45.2652C178.214 45.0543 176.377 44.9338 174.388 44.9338C165.169 44.9338 157.637 48.0972 151.973 54.4842C146.309 60.811 143.477 69.6384 143.477 80.9362C143.477 86.2688 144.2 91.27 145.586 95.8494C147.032 100.399 149.141 104.406 151.913 107.84C154.685 111.214 158.029 113.836 161.795 115.734C165.621 117.571 169.688 118.505 174.177 118.505C176.166 118.505 178.124 118.325 179.962 117.993C181.197 117.812 182.282 117.481 183.457 117.15C186.289 116.216 188.94 114.86 191.35 113.143C193.851 111.365 196.231 109.106 198.792 106.304V108.081C198.792 111.425 199.635 113.956 201.292 115.794C202.889 117.571 205.118 118.505 207.619 118.505C210.12 118.505 212.289 117.632 213.886 115.944C215.482 114.167 216.266 111.606 216.266 108.111V28.1226C216.205 24.8086 215.482 22.1875 214.006 20.4702ZM195.297 94.3129C193.7 97.6872 191.471 100.248 188.819 101.905C186.168 103.562 183.155 104.345 179.932 104.345H179.872C176.588 104.345 173.665 103.472 170.924 101.785C168.152 100.007 166.043 97.4462 164.476 94.0116C162.91 90.5771 162.156 86.3592 162.156 81.4785C162.156 76.8088 162.88 72.7114 164.326 69.2769C165.832 65.7821 167.881 63.0706 170.592 61.1725C173.243 59.2444 176.316 58.3406 179.691 58.3406H179.902C183.125 58.3406 186.048 59.2745 188.729 61.1123C191.501 62.9501 193.67 65.6013 195.267 69.0358C196.833 72.4704 197.647 76.6882 197.647 81.4785C197.677 86.6002 196.833 90.8783 195.297 94.3129ZM88.7657 54.7554V56.9848C92.1099 52.767 95.6348 49.7241 99.461 47.7055C103.408 45.7774 107.836 44.753 112.898 44.753C117.779 44.753 122.177 45.8075 126.034 47.8562C129.92 49.9048 132.752 52.8573 134.62 56.6835C135.885 58.913 136.669 61.3533 137 63.884C137.331 66.3846 137.542 69.6987 137.542 73.7056V107.328C137.542 111.004 136.669 113.715 134.921 115.553C133.264 117.451 130.974 118.385 128.263 118.385C125.491 118.385 123.262 117.451 121.484 115.493C119.707 113.595 118.863 110.883 118.863 107.328V77.2004C118.863 71.205 118.02 66.6558 116.302 63.4924C114.645 60.329 111.211 58.7322 106.089 58.7322C102.745 58.7322 99.7623 59.7264 97.0508 61.6245C94.3393 63.5526 92.2906 66.1737 90.9952 69.6083C90.1215 72.3197 89.6695 77.3209 89.6695 84.7624V107.358C89.6695 111.064 88.7958 113.745 87.0183 115.613C85.2408 117.451 83.0114 118.385 80.2396 118.385C77.5281 118.385 75.3589 117.451 73.5814 115.493C71.8039 113.595 70.9603 110.883 70.9603 107.328V55.0566C70.9603 51.6221 71.7436 49.001 73.2801 47.344C74.7865 45.6267 76.8955 44.7229 79.6069 44.7229C81.2037 44.7229 82.6498 45.0543 83.9754 45.8376C85.301 46.6209 86.3555 47.7356 87.1991 49.2119C88.4343 50.8388 88.7657 52.6464 88.7657 54.7554ZM38.8744 2.78529C51.4075 -1.61334 65.7482 -1.37232 76.4435 7.66596C78.432 9.50374 80.7217 11.7633 81.5954 14.5049C82.7101 17.8792 77.8294 14.1735 77.1063 13.6613C73.6115 11.4319 70.1167 9.564 66.17 8.26851C45.0807 1.94172 25.1061 13.3601 12.6936 31.1956C7.60202 39.0288 4.1976 47.2837 1.42586 56.3823C1.15471 57.3765 0.883567 58.672 0.311143 59.5457C-0.231154 60.5399 0.100249 56.8944 0.100249 56.7137C0.552163 52.9477 1.33548 49.3324 2.26944 45.687C8.0238 26.3451 20.6774 10.1967 38.8744 2.78529ZM63.1874 37.6128C63.1874 45.8376 56.5292 52.5259 48.3044 52.5259C40.0795 52.5259 33.4214 45.8677 33.4214 37.6128C33.4214 29.3578 40.0795 22.6996 48.3044 22.6996C56.5292 22.6996 63.1874 29.3578 63.1874 37.6128Z" fill="black"/>
</svg>
